<svg width="1370" height="1308" viewBox="0 0 1370 1308" fill="none" xmlns="http://www.w3.org/2000/svg">
<g clip-path="url(#clip0_256_585)">
<path d="M858.346 1277.95C687.465 1330.37 521.955 1314.15 361.815 1229.3C201.676 1144.44 94.4969 1013.66 40.2788 836.956C-22.6785 631.963 -11.9252 458.83 72.5387 317.556C157.003 176.281 290.387 77.7507 472.693 21.9634C638.13 -28.7967 810.231 8.78528 988.997 134.709C1167.76 260.634 1285.22 414.708 1341.37 596.931C1441.11 921.65 1280.1 1148.65 858.346 1277.95Z" fill="#94FFF3"/>
<path d="M1334.77 675.927C1325.16 845.851 1253.32 988.187 1119.28 1102.93C985.237 1217.68 826.55 1269.78 643.219 1259.24C430.448 1247.16 272.652 1179.93 169.83 1057.54C67.009 935.157 20.7736 783.329 31.1241 602.056C40.4737 437.403 134.495 296.264 313.187 178.637C491.88 61.01 675.821 7.45561 865.01 17.9737C1202.06 37.0331 1358.65 256.351 1334.77 675.927Z" fill="#6DD9F2"/>
<path d="M576.722 77.7876C737.008 53.9938 883.172 90.9901 1015.21 188.776C1147.26 286.563 1225.59 418.344 1250.22 584.12C1278.81 776.496 1245.67 930.24 1150.81 1045.35C1055.94 1160.47 922.987 1230.75 751.936 1256.2C596.727 1279.26 447.524 1222.22 304.326 1085.07C161.128 947.921 76.7737 793.847 51.2637 622.849C5.90703 318.19 181.06 136.503 576.722 77.7876Z" fill="#32B3A3"/>
<path d="M268.808 673.547C269.168 662.834 271.131 652.235 274.63 642.103C278.365 630.096 283.967 614.233 291.437 594.515C300.884 569.33 306.792 552.418 309.16 543.779C311.989 532.798 317.572 522.719 325.381 514.495C328.323 511.181 331.908 508.499 335.917 506.611C339.926 504.724 344.278 503.67 348.707 503.513C351.706 503.381 354.706 503.778 357.568 504.684C372.923 510.224 380.6 520.852 380.6 536.568C380.037 547.859 377.651 558.984 373.533 569.513L368.773 583.68C359.331 611.849 347.789 639.271 334.243 665.713C322.232 688.555 308.354 699.964 292.609 699.94C289.399 699.857 286.222 699.264 283.198 698.183C273.568 694.559 268.808 686.286 268.808 673.547Z" fill="white"/>
<path d="M659.112 497.217C659.112 507.417 655.572 521.181 648.493 538.508C642.585 552.662 635.005 569.684 625.753 589.573C616.501 609.462 609.91 623.531 605.98 631.78C573.708 699.476 550.09 754.177 535.125 795.884C531.48 807.474 525.216 818.07 516.817 826.852C513.809 830.162 510.171 832.837 506.115 834.723C502.059 836.609 497.668 837.666 493.199 837.834C489.782 837.784 486.395 837.191 483.165 836.077C472.961 832.172 463.819 823.411 455.739 809.794C447.659 796.177 441.251 777.605 436.515 754.08C434.538 743.074 433.158 732.836 432.377 723.368C417.389 761.95 401.838 791.662 385.727 812.503C380.808 818.945 375.155 824.793 368.883 829.927C364.142 833.832 358.217 836.013 352.076 836.114C347.943 836.162 343.869 835.141 340.248 833.148C331.204 828.426 326.663 821.581 326.663 812.503C327.081 804.448 328.993 796.541 332.302 789.185C336.037 779.96 341.64 768.063 349.109 753.494C360.119 732.214 370.653 709.091 380.71 684.126C390.768 659.161 396.773 644.311 398.726 639.577L406.965 619.48C412.737 603.934 419.919 588.949 428.423 574.711C434.098 566.255 440.726 562.009 448.196 562.009C450.404 562.189 452.588 562.594 454.714 563.217C461.404 564.452 467.396 568.131 471.521 573.54C475.04 578.94 477.166 585.128 477.71 591.55C478.515 598.615 479.101 609.45 479.504 623.983C479.3 646.27 480.523 668.547 483.165 690.679C485.143 706.053 486.363 719.243 486.827 730.249C497.446 700.33 515.254 656.94 540.252 600.079C565.249 543.218 581.495 508.296 588.989 495.313C600.365 473.691 613.157 462.868 627.364 462.844C632.115 463 636.764 464.252 640.949 466.504C653.058 472.41 659.112 482.648 659.112 497.217Z" fill="white"/>
<path d="M601.22 824.217C601.896 811.364 604.285 798.66 608.323 786.439C609.092 783.291 613.45 771.797 621.286 752.176C636.738 711.959 650.568 674.767 662.773 640.602C674.979 606.436 686.392 571.051 697.011 534.445C703.699 510.871 710.791 493.471 718.285 482.245C725.78 471.019 735.422 465.406 747.213 465.406C769.647 465.406 780.864 477.803 780.864 502.598C780.488 516.293 778.107 529.859 773.797 542.864C766.278 567.634 754.463 599.908 738.352 639.687C722.24 679.465 706.055 716.864 689.797 751.884C673.637 787.123 662.651 809.452 656.841 818.872C645.832 836.199 634.615 844.862 623.19 844.862C618.519 844.709 613.915 843.704 609.605 841.897C604.186 839.555 601.22 833.661 601.22 824.217Z" fill="white"/>
<path d="M1035.5 702.612C1036.03 723 1033.23 743.339 1027.23 762.829C1021.73 778.984 1014.26 787.05 1004.82 787.025C979.989 787.025 968.174 769.32 969.37 733.91C970.944 695.73 974.533 658.649 959.922 630.316C946.52 604.289 920.888 578.665 884.051 578.665C884.418 611.317 879.401 651.449 869.002 699.061C859.104 745.045 844.375 789.855 825.061 832.746C806.166 874.233 784.916 903.652 761.31 921.003C714.464 954.827 659.16 971.751 595.397 971.775C587.927 971.775 577.491 971.372 564.089 970.567C544.414 968.59 534.576 960.525 534.576 946.371C534.303 942.279 534.959 938.179 536.493 934.376C538.028 930.572 540.401 927.165 543.437 924.407C549.332 919.502 558.084 916.244 569.985 914.707C576.319 913.901 585.547 913.132 597.741 912.327C617.05 911.156 633.394 909.484 646.771 907.312C660.729 904.987 674.386 901.12 687.49 895.781C711.901 886.02 733.261 866.057 751.57 835.894C770.938 803.248 785.723 768.094 795.511 731.421C806.411 692.499 813.921 652.706 817.957 612.489C821.472 580.593 826.782 556.384 833.886 539.863C840.989 523.341 853 514.104 869.917 512.152C873.042 511.672 876.204 511.476 879.364 511.566C920.669 511.566 995.185 542.462 1018.51 604.216C1030.22 635.68 1035.98 669.045 1035.5 702.612Z" fill="white"/>
<path d="M943.115 691.594C942.988 695.125 942.139 698.594 940.622 701.785C939.104 704.977 936.95 707.824 934.291 710.153C931.659 712.601 928.553 714.485 925.165 715.687C921.776 716.89 918.178 717.386 914.591 717.145C910.888 717.236 907.21 716.524 903.809 715.058C900.408 713.592 897.365 711.407 894.89 708.652C890.505 703.083 888.398 696.057 888.995 688.995C889.348 685.245 890.584 681.632 892.601 678.45C894.619 675.269 897.361 672.611 900.603 670.692C907.167 665.729 915.225 663.148 923.452 663.371C937.44 664.054 943.994 673.462 943.115 691.594Z" fill="white"/>
<path d="M741.977 399.59C741.911 394.415 742.904 389.281 744.893 384.504C746.883 379.726 749.828 375.405 753.548 371.806C757.233 368.047 761.648 365.082 766.522 363.093C771.396 361.103 776.626 360.132 781.89 360.238C794.815 360.238 804.629 363.899 811.183 371.22C817.986 379.041 821.548 389.161 821.143 399.516C821.143 409.961 815.931 419.223 805.508 427.3C796.224 434.974 784.597 439.249 772.552 439.417C752.144 439.466 741.952 426.19 741.977 399.59Z" fill="white"/>
<path d="M391.036 867.558C390.992 863.988 391.681 860.447 393.06 857.155C394.44 853.862 396.48 850.886 399.055 848.413C401.592 845.823 404.632 843.778 407.989 842.406C411.345 841.034 414.947 840.362 418.572 840.433C422.299 840.15 426.042 840.685 429.54 842C433.038 843.315 436.206 845.379 438.822 848.047C443.53 853.43 445.994 860.413 445.706 867.558C445.567 871.376 444.517 875.105 442.645 878.435C440.772 881.765 438.131 884.6 434.94 886.703C428.542 891.989 420.537 894.945 412.238 895.086C398.103 894.988 391.036 885.812 391.036 867.558Z" fill="white"/>
</g>
<defs>
<clipPath id="clip0_256_585">
<rect width="1370" height="1308" fill="white"/>
</clipPath>
</defs>
</svg>
