<svg width="168" height="188" viewBox="0 0 168 188" fill="none" xmlns="http://www.w3.org/2000/svg">
<path d="M17.5 7C21.0899 7 24 4.08985 24 0.5C24 0.331764 23.9936 0.165021 23.9811 0H33.0189C33.0064 0.165021 33 0.331764 33 0.5C33 4.08985 35.9101 7 39.5 7C43.0899 7 46 4.08985 46 0.5C46 0.331764 45.9936 0.165021 45.9811 0H55.0189C55.0064 0.165021 55 0.331764 55 0.5C55 4.08985 57.9101 7 61.5 7C65.0899 7 68 4.08985 68 0.5C68 0.331764 67.9936 0.165021 67.9811 0H77.0189C77.0064 0.165021 77 0.331764 77 0.5C77 4.08985 79.9101 7 83.5 7C87.0899 7 90 4.08985 90 0.5C90 0.331764 89.9936 0.165021 89.9811 0H99.0189C99.0064 0.165021 99 0.331764 99 0.5C99 4.08985 101.91 7 105.5 7C109.09 7 112 4.08985 112 0.5C112 0.331764 111.994 0.165021 111.981 0H121.019C121.006 0.165021 121 0.331764 121 0.5C121 4.08985 123.91 7 127.5 7C131.09 7 134 4.08985 134 0.5C134 0.331764 133.994 0.165021 133.981 0H143.019C143.006 0.165021 143 0.331764 143 0.5C143 4.08985 145.91 7 149.5 7C153.09 7 156 4.08985 156 0.5C156 0.331764 155.994 0.165021 155.981 0H168V12.0189C167.835 12.0064 167.668 12 167.5 12C163.91 12 161 14.9101 161 18.5C161 22.0899 163.91 25 167.5 25C167.668 25 167.835 24.9936 168 24.9811V34.0189C167.835 34.0064 167.668 34 167.5 34C163.91 34 161 36.9101 161 40.5C161 44.0899 163.91 47 167.5 47C167.668 47 167.835 46.9936 168 46.9811V56.0189C167.835 56.0064 167.668 56 167.5 56C163.91 56 161 58.9101 161 62.5C161 66.0899 163.91 69 167.5 69C167.668 69 167.835 68.9936 168 68.9811V78.0189C167.835 78.0064 167.668 78 167.5 78C163.91 78 161 80.9101 161 84.5C161 88.0899 163.91 91 167.5 91C167.668 91 167.835 90.9936 168 90.9811V100.019C167.835 100.006 167.668 100 167.5 100C163.91 100 161 102.91 161 106.5C161 110.09 163.91 113 167.5 113C167.668 113 167.835 112.994 168 112.981V122.019C167.835 122.006 167.668 122 167.5 122C163.91 122 161 124.91 161 128.5C161 132.09 163.91 135 167.5 135C167.668 135 167.835 134.994 168 134.981V144.019C167.835 144.006 167.668 144 167.5 144C163.91 144 161 146.91 161 150.5C161 154.09 163.91 157 167.5 157C167.668 157 167.835 156.994 168 156.981V166.019C167.835 166.006 167.668 166 167.5 166C163.91 166 161 168.91 161 172.5C161 176.09 163.91 179 167.5 179C167.668 179 167.835 178.994 168 178.981V188H155.981C155.726 184.644 152.922 182 149.5 182C146.078 182 143.274 184.644 143.019 188H133.981C133.726 184.644 130.922 182 127.5 182C124.078 182 121.274 184.644 121.019 188H111.981C111.726 184.644 108.922 182 105.5 182C102.078 182 99.2743 184.644 99.0189 188H89.9811C89.7257 184.644 86.9216 182 83.5 182C80.0784 182 77.2743 184.644 77.0189 188H67.9811C67.7257 184.644 64.9216 182 61.5 182C58.0784 182 55.2743 184.644 55.0189 188H45.9811C45.7257 184.644 42.9216 182 39.5 182C36.0784 182 33.2743 184.644 33.0189 188H23.9811C23.7257 184.644 20.9216 182 17.5 182C14.0784 182 11.2743 184.644 11.0189 188H0V178.981C0.165021 178.994 0.331764 179 0.5 179C4.08985 179 7 176.09 7 172.5C7 168.91 4.08985 166 0.5 166C0.331764 166 0.165021 166.006 0 166.019V156.981C0.165021 156.994 0.331764 157 0.5 157C4.08985 157 7 154.09 7 150.5C7 146.91 4.08985 144 0.5 144C0.331764 144 0.165021 144.006 0 144.019V134.981C0.165021 134.994 0.331764 135 0.5 135C4.08985 135 7 132.09 7 128.5C7 124.91 4.08985 122 0.5 122C0.331764 122 0.165021 122.006 0 122.019V112.981C0.165021 112.994 0.331764 113 0.5 113C4.08985 113 7 110.09 7 106.5C7 102.91 4.08985 100 0.5 100C0.331764 100 0.165021 100.006 0 100.019V90.9811C0.165021 90.9936 0.331764 91 0.5 91C4.08985 91 7 88.0899 7 84.5C7 80.9101 4.08985 78 0.5 78C0.331764 78 0.165021 78.0064 0 78.0189V68.9811C0.165021 68.9936 0.331764 69 0.5 69C4.08985 69 7 66.0899 7 62.5C7 58.9101 4.08985 56 0.5 56C0.331764 56 0.165021 56.0064 0 56.0189V46.9811C0.165021 46.9936 0.331764 47 0.5 47C4.08985 47 7 44.0899 7 40.5C7 36.9101 4.08985 34 0.5 34C0.331764 34 0.165021 34.0064 0 34.0189V24.9811C0.165021 24.9936 0.331764 25 0.5 25C4.08985 25 7 22.0899 7 18.5C7 14.9101 4.08985 12 0.5 12C0.331764 12 0.165021 12.0064 0 12.0189V0H11.0189C11.0064 0.165021 11 0.331764 11 0.5C11 4.08985 13.9101 7 17.5 7Z" fill="white"/>
<rect x="14" y="16" width="140" height="156" rx="4" fill="#FEDE77" fill-opacity="0.8"/>
<path d="M28 51.2728V39.8121C28 37.7067 29.7067 36 31.8121 36V36C33.9175 36 35.5841 37.7248 36.0114 39.7863C37.8183 48.5053 45.7237 55.091 54.9393 55.091H74V78H54.9393C40.2269 78 28 66.0084 28 51.2728Z" fill="#FAEDE5"/>
<path d="M140 51.2728V39.8121C140 37.7067 138.293 36 136.188 36V36C134.083 36 132.416 37.7248 131.989 39.7863C130.182 48.5053 122.276 55.091 113.061 55.091H94V78H113.061C127.773 78 140 66.0084 140 51.2728Z" fill="#FAEDE5"/>
<path d="M84.3074 90.6224C86.5747 86.095 91.1538 83 96.4335 83C102.143 83 107.034 86.6201 109.067 91.7573C110.642 91.1018 112.363 90.7409 114.166 90.7409C121.39 90.7409 127.303 96.5353 127.776 103.865C134.381 106.032 139 110.998 139 116.779C139 120.712 136.861 124.269 133.413 126.823C134.283 128.676 134.771 130.755 134.771 132.953C134.771 140.726 128.664 147.027 121.131 147.027C119.328 147.027 117.607 146.666 116.032 146.011C113.999 151.148 109.108 154.768 103.398 154.768C99.9089 154.768 96.7257 153.416 94.3135 151.193C91.8739 153.554 88.5923 155 84.9834 155C81.0699 155 77.5413 153.299 75.0538 150.575C72.5802 153.164 69.1421 154.768 65.3409 154.768C59.5354 154.768 54.577 151.026 52.6078 145.752C50.8781 146.571 48.9539 147.027 46.9263 147.027C39.3929 147.027 33.2858 140.726 33.2858 132.953C33.2858 130.702 33.7978 128.575 34.7081 126.688C30.5604 124.168 28 120.706 28 116.885C28 111.598 32.9017 106.998 40.1275 104.631C40.2234 96.9426 46.2932 90.7409 53.7668 90.7409C55.7944 90.7409 57.7187 91.1974 59.4483 92.0161C61.4176 86.7421 66.3759 83 72.1814 83C77.461 83 82.0401 86.095 84.3074 90.6224Z" fill="#463424"/>
<g style="mix-blend-mode:multiply">
<path fill-rule="evenodd" clip-rule="evenodd" d="M28.1191 115.464C28.0404 115.931 28 116.405 28 116.885C28 120.431 30.2056 123.669 33.8388 126.13C34.0649 125.338 34.3568 124.574 34.7081 123.846C31.0811 121.643 28.6679 118.718 28.1191 115.464ZM33.3544 131.531C33.309 131.999 33.2858 132.473 33.2858 132.953C33.2858 140.726 39.3929 147.027 46.9263 147.027C48.9539 147.027 50.8781 146.571 52.6078 145.752C54.577 151.026 59.5354 154.768 65.3409 154.768C69.1421 154.768 72.5802 153.164 75.0538 150.575C77.5412 153.299 81.0699 155 84.9834 155C88.5923 155 91.8739 153.554 94.3135 151.193C96.7257 153.416 99.9089 154.768 103.398 154.768C109.108 154.768 113.999 151.148 116.032 146.011C117.607 146.666 119.328 147.027 121.131 147.027C128.664 147.027 134.771 140.726 134.771 132.953C134.771 132.473 134.748 131.999 134.703 131.531C134.012 138.637 128.199 144.185 121.131 144.185C119.328 144.185 117.607 143.824 116.032 143.169C113.999 148.306 109.108 151.926 103.398 151.926C99.9089 151.926 96.7257 150.574 94.3135 148.351C91.8739 150.712 88.5923 152.158 84.9834 152.158C81.0699 152.158 77.5412 150.457 75.0538 147.733C72.5802 150.322 69.1421 151.926 65.3409 151.926C59.5354 151.926 54.577 148.184 52.6078 142.91C50.8781 143.728 48.9539 144.185 46.9263 144.185C39.8577 144.185 34.0449 138.637 33.3544 131.531ZM134.231 126.177C137.196 123.685 139 120.391 139 116.779C139 116.299 138.968 115.825 138.906 115.358C138.459 118.723 136.441 121.738 133.413 123.981C133.743 124.682 134.017 125.416 134.231 126.177Z" fill="#463424"/>
</g>
<path d="M53.9317 72.0308C48.4362 72.6181 43.6306 74.2274 39.6479 76.8169C30.0062 83.0851 26.285 94.366 26.1393 94.8454L25.2851 97.6247L28.1662 97.9757C28.9658 98.0731 48.0067 100.237 57.3982 86.0629L53.9317 72.0308Z" fill="#D18059"/>
<g style="mix-blend-mode:multiply">
<path fill-rule="evenodd" clip-rule="evenodd" d="M25.3653 97.3637C30.8797 97.1288 43.9129 95.1629 51.753 82.6748L49.9663 72.657C51.2442 72.3856 52.5666 72.1767 53.9317 72.0308L57.3982 86.0629C48.0066 100.237 28.9658 98.0731 28.1662 97.9756L25.2851 97.6247L25.3653 97.3637Z" fill="#D18059"/>
</g>
<path d="M114.59 72.0308C120.086 72.6181 124.891 74.2274 128.874 76.8169C138.516 83.0851 142.237 94.366 142.383 94.8454L143.237 97.6247L140.356 97.9757C139.556 98.0731 120.515 100.237 111.124 86.0629L114.59 72.0308Z" fill="#D18059"/>
<g style="mix-blend-mode:multiply">
<path fill-rule="evenodd" clip-rule="evenodd" d="M143.157 97.3637C137.642 97.1288 124.609 95.1629 116.769 82.6748L118.556 72.657C117.278 72.3856 115.956 72.1767 114.59 72.0308L111.124 86.0629C120.515 100.237 139.556 98.0731 140.356 97.9756L143.237 97.6247L143.157 97.3637Z" fill="#D18059"/>
</g>
<path d="M41.4517 90.7145C36.0818 66.1996 54.7497 43 79.8458 43H86.7438C112.051 43 130.875 66.3945 125.46 91.1154V91.1154C124.822 94.0291 123.857 96.8616 122.583 99.5588L118.195 108.851C116.74 111.933 115.751 115.215 115.263 118.588L114.916 120.98C112.668 136.492 99.3714 148 83.6974 148V148C67.8529 148 54.467 136.247 52.4176 120.535L52.2247 119.056C51.7449 115.378 50.6531 111.806 48.9943 108.489L44.6909 99.8818C43.2359 96.9718 42.1479 93.8925 41.4517 90.7145V90.7145Z" fill="#F0BF8E"/>
<ellipse cx="57" cy="107.4" rx="4" ry="2.4" fill="#FF946D"/>
<ellipse cx="110" cy="107.4" rx="4" ry="2.4" fill="#FF946D"/>
<path d="M89.8897 148.11C90.9223 152.127 95.8436 155.49 95.8436 155.49C95.8436 155.49 98.0795 150.291 97.047 146.274C96.0144 142.256 91.4858 138.535 91.4858 138.535C91.4858 138.535 88.8571 144.092 89.8897 148.11Z" fill="#ACCC5F"/>
<path d="M80.9986 146.455C78.4049 149.039 72.829 149.047 72.829 149.047C72.829 149.047 73.1872 143.806 75.7809 141.222C78.3746 138.637 83.7749 138.141 83.7749 138.141C83.7749 138.141 83.5923 143.871 80.9986 146.455Z" fill="#ACCC5F"/>
<path d="M89.6316 149.334C87.4676 154.392 80.1413 157.888 80.1413 157.888C80.1413 157.888 78.0048 150.663 80.1689 145.605C82.333 140.548 89.2741 136.545 89.2741 136.545C89.2741 136.545 91.7957 144.277 89.6316 149.334Z" fill="#BBD468"/>
<path d="M50 124.42C50 114.658 58.5817 107.221 68.3134 107.989C78.8279 108.819 88.0651 108.862 98.6198 108.046C108.368 107.293 117 114.716 117 124.493V124.493C117 132.802 110.682 139.802 102.391 140.346C89.0069 141.226 78.0584 141.213 64.6832 140.338C56.3547 139.793 50 132.766 50 124.42V124.42Z" fill="#FAEDE5"/>
<circle cx="65" cy="125" r="3" fill="#463424"/>
<circle cx="103" cy="125" r="3" fill="#463424"/>
<path d="M115.826 58.2774C113.506 49.2107 101.59 43 84.3267 43C71.2228 43 61.1998 45.6024 55.8112 51.5408C52.8985 54.2558 51 58.7026 51 63.7276C51 71.995 56.139 78.697 62.4783 78.697C65.1927 78.697 67.6871 77.4682 69.6522 75.4138C71.6173 77.4682 74.1116 78.697 76.8261 78.697C79.0615 78.697 81.1476 77.8636 82.9119 76.4221C84.9995 79.2445 87.9295 81 91.1739 81C94.148 81 96.8579 79.5249 98.8969 77.105C100.768 78.833 103.054 79.8485 105.522 79.8485C111.861 79.8485 117 73.1465 117 64.8791C117 62.5096 116.578 60.2688 115.826 58.2774Z" fill="#4D3A2A"/>
<g style="mix-blend-mode:multiply">
<path fill-rule="evenodd" clip-rule="evenodd" d="M51.0756 62.0004C51.7322 69.4541 56.5869 75.2425 62.4783 75.2425C65.1927 75.2425 67.6871 74.0137 69.6522 71.9593C71.6172 74.0137 74.1116 75.2425 76.8261 75.2425C79.0615 75.2425 81.1476 74.4091 82.9119 72.9676C84.9995 75.79 87.9295 77.5455 91.1739 77.5455C94.148 77.5455 96.8579 76.0703 98.8969 73.6505C100.768 75.3785 103.054 76.394 105.522 76.394C111.413 76.394 116.268 70.6056 116.924 63.1519C116.974 63.7186 117 64.2949 117 64.8791C117 73.1465 111.861 79.8485 105.522 79.8485C103.054 79.8485 100.768 78.833 98.8969 77.105C96.8579 79.5249 94.148 81 91.1739 81C87.9295 81 84.9995 79.2445 82.9119 76.4221C81.1476 77.8636 79.0615 78.697 76.8261 78.697C74.1116 78.697 71.6172 77.4682 69.6522 75.4138C67.6871 77.4682 65.1927 78.697 62.4783 78.697C56.139 78.697 51 71.995 51 63.7276C51 63.1435 51.0257 62.5671 51.0756 62.0004Z" fill="#4D3A2A"/>
</g>
<circle cx="102" cy="100" r="5" fill="#463424"/>
<circle cx="104" cy="99" r="2" fill="white"/>
<circle cx="66" cy="100" r="5" fill="#463424"/>
<circle cx="68" cy="99" r="2" fill="white"/>
<path d="M95.2748 44.9686C91.8712 43.2497 86.5473 44.5502 84.9369 45.0083C84.6714 45.0838 84.5307 45.3624 84.6275 45.6209C85.2146 47.1889 87.3278 52.2455 90.7314 53.9645C94.135 55.6835 99.4589 54.383 101.069 53.9248C101.335 53.8493 101.476 53.5708 101.379 53.3123C100.792 51.7443 98.6784 46.6876 95.2748 44.9686Z" fill="#BBD468"/>
<path d="M86.356 54.9219C86.2248 51.6697 83.0882 48.2416 82.0163 47.1615C81.8219 46.9656 81.5129 46.9781 81.3348 47.189C80.3535 48.3519 77.5032 52.0215 77.6344 55.2738C77.7656 58.526 80.9022 61.9541 81.9741 63.0342C82.1685 63.2301 82.4776 63.2176 82.6556 63.0067C83.637 61.8438 86.4872 58.1741 86.356 54.9219Z" fill="#BBD468"/>
</svg>
