<svg width="220" height="208" viewBox="0 0 220 208" fill="none" xmlns="http://www.w3.org/2000/svg">
<path d="M44.9566 101.995L44.9566 101.996C44.2331 122.168 50.807 139.682 64.7682 154.697C78.7083 169.689 96.0456 177.541 116.963 178.293L116.964 178.293C141.557 179.183 159.944 172.849 172.646 159.753C185.507 146.494 192.406 129.115 193.171 107.355L193.171 107.353C193.859 88.207 184.976 70.6484 165.762 54.6179C146.475 38.526 126.046 30.1906 104.426 29.3878C85.1932 28.6907 71.0008 34.3883 61.2977 46.0951C51.4748 57.9465 45.8695 76.4075 44.9566 101.995Z" fill="#513831" stroke="#3D2A25" stroke-width="6"/>
<mask id="mask0_553_725" style="mask-type:alpha" maskUnits="userSpaceOnUse" x="41" y="26" width="156" height="156">
<path d="M41.9995 104C41.8292 125.077 49.3379 145.705 65 160.5C78.2323 173 97.8974 181.253 119.606 181.436C144.791 181.655 164.93 174.299 178 160C188.999 143.5 196.676 127.628 196.842 105.147C197.008 84.7416 187.007 66.5552 166.838 50.5877C146.669 34.6202 125.388 26.5288 102.994 26.3136C63.0987 25.9647 42.4099 51.9841 41.9995 104Z" fill="#513831"/>
</mask>
<g mask="url(#mask0_553_725)">
<g filter="url(#filter0_i_553_725)">
<path d="M50.999 145.5C50.999 182.779 81.2198 213 118.499 213C155.778 213 185.999 182.779 185.999 145.5C185.999 108.221 155.778 78 118.499 78C81.2198 78 50.999 108.221 50.999 145.5Z" fill="url(#paint0_linear_553_725)"/>
</g>
<path opacity="0.35" d="M119.465 171.022C140.541 171.022 157.626 169.514 157.626 167.654C157.626 165.793 140.541 164.285 119.465 164.285C98.3891 164.285 81.3037 165.793 81.3037 167.654C81.3037 169.514 98.3891 171.022 119.465 171.022Z" fill="#650000"/>
<path d="M148.876 140.475C148.858 140.991 148.817 141.502 148.759 142.009C148.589 143.426 148.257 144.817 147.772 146.144C146.095 150.755 142.601 154.666 137.851 156.783L137.586 156.9C132.204 159.3 126.467 160.565 120.703 160.704C119.941 160.722 119.183 160.722 118.42 160.699C112.657 160.538 106.92 159.241 101.546 156.815C96.7919 154.666 93.3068 150.715 91.6607 146.068C91.4992 145.615 91.3557 145.153 91.2346 144.691C90.9924 143.812 90.8219 142.91 90.7188 141.995C90.656 141.453 90.6156 140.905 90.6021 140.354C90.5977 140.201 90.5977 140.053 90.5977 139.905C90.5977 138.524 90.7502 137.129 91.0731 135.738C92.2124 130.813 93.697 126.382 95.0336 122.897C95.8051 120.892 96.5228 119.201 97.1014 117.909C97.1462 117.806 97.1911 117.707 97.2359 117.613C97.7069 116.577 98.0702 115.832 98.2721 115.424C98.3887 115.191 98.4515 115.07 98.4515 115.07H141.044C141.044 115.07 141.116 115.204 141.246 115.469C141.47 115.918 141.865 116.734 142.372 117.864C142.417 117.963 142.462 118.062 142.506 118.16C143.166 119.645 143.991 121.614 144.857 123.942C146.077 127.23 147.377 131.244 148.405 135.657C148.781 137.259 148.934 138.882 148.876 140.475Z" fill="#ECC18E"/>
<path opacity="0.35" d="M148.53 140.475C148.463 142.431 148.082 144.341 147.427 146.144C145.749 150.755 142.255 154.667 137.505 156.784L137.241 156.9C131.858 159.3 126.122 160.565 120.358 160.704C119.932 160.157 119.542 159.506 119.214 158.784C118.887 159.502 118.501 160.152 118.075 160.695C112.311 160.533 106.574 159.237 101.201 156.811C96.4466 154.662 92.9615 150.71 91.3154 146.064C90.6695 144.243 90.3062 142.314 90.2568 140.349C90.369 140.313 90.4856 140.278 90.5977 140.242C90.5977 140.125 90.5932 140.013 90.5932 139.901C90.5932 138.519 90.7457 137.124 91.0687 135.734C92.208 130.809 93.6926 126.378 95.0292 122.892C95.8007 120.887 96.5184 119.197 97.097 117.905C97.1418 117.802 97.1867 117.703 97.2315 117.609C97.7025 116.573 98.0658 115.828 98.2676 115.42C98.3843 115.187 98.4471 115.066 98.4471 115.066H100.102L100.107 115.227L100.295 123.57C100.295 123.57 100.551 132.993 96.0698 139.865C96.007 139.959 95.9442 140.053 95.8814 140.147C100.959 140.932 99.4383 142.395 115.236 147.293C117.151 147.885 118.429 148.943 119.21 150.231C119.99 148.943 121.268 147.889 123.184 147.293C139.43 142.256 137.362 140.852 142.986 140.08C142.937 140.008 142.888 139.937 142.843 139.86C138.362 132.989 138.618 123.565 138.618 123.565L138.806 115.223L138.811 115.061H140.466C140.466 115.061 140.528 115.182 140.645 115.415C140.847 115.819 141.21 116.568 141.681 117.604C141.726 117.703 141.771 117.802 141.816 117.9C142.394 119.192 143.116 120.887 143.883 122.888C145.22 126.373 146.705 130.809 147.844 135.729C148.167 137.12 148.319 138.519 148.319 139.896C148.319 140.049 148.319 140.197 148.315 140.345C148.315 140.363 148.315 140.381 148.315 140.399C148.391 140.421 148.463 140.448 148.53 140.475Z" fill="#650000"/>
<path d="M137.855 156.779L137.59 156.9C126.117 162.018 113.002 161.982 101.555 156.811C93.4951 153.169 89.086 144.346 91.082 135.725C92.2212 130.805 93.7059 126.369 95.0425 122.884C96.8905 118.066 98.4603 115.057 98.4603 115.057H141.053C141.053 115.057 142.852 118.506 144.861 123.929C146.081 127.216 147.382 131.231 148.409 135.64C150.423 144.297 145.969 153.164 137.855 156.779Z" stroke="#650000" stroke-width="0.739528" stroke-miterlimit="10" stroke-linecap="round"/>
<path d="M118.156 160.336C121.255 161.188 124.373 161.776 124.633 162.247C125.373 163.583 117.331 166.956 112.688 165.095" fill="white"/>
<path d="M114.589 159.721C115.536 159.124 116.428 159.865 118.155 160.34C121.255 161.192 124.372 161.78 124.632 162.251C125.372 163.587 117.33 166.96 112.688 165.099C109.028 163.628 113.19 160.6 114.589 159.721Z" stroke="#650000" stroke-width="0.739528" stroke-miterlimit="10" stroke-linecap="round"/>
<path d="M120.071 155.954C123.174 156.788 126.292 157.358 126.556 157.828C127.305 159.165 119.281 162.578 114.63 160.744" fill="white"/>
<path d="M116.505 155.357C117.451 154.752 118.344 155.492 120.075 155.954C123.179 156.788 126.297 157.358 126.561 157.828C127.31 159.165 119.286 162.578 114.635 160.744C110.966 159.3 115.11 156.25 116.505 155.357Z" stroke="#650000" stroke-width="0.739528" stroke-miterlimit="10" stroke-linecap="round"/>
<path d="M115.465 150.899C116.394 150.276 117.309 150.989 119.045 151.415C122.166 152.178 125.297 152.675 125.575 153.142C126.356 154.461 118.408 158.058 113.721 156.327C110.016 154.963 114.093 151.819 115.465 150.899Z" fill="white"/>
<path d="M115.465 150.899C116.394 150.276 117.309 150.989 119.045 151.415C122.166 152.178 125.297 152.675 125.575 153.142C126.356 154.461 118.408 158.058 113.721 156.327C110.016 154.963 114.093 151.819 115.465 150.899Z" stroke="#650000" stroke-width="0.739528" stroke-miterlimit="10" stroke-linecap="round"/>
<path d="M116.227 164.35C110.181 168.283 94.9132 167.656 88.6875 161.439C78.2995 151.069 85.7766 141.551 93.4734 142.313C100.937 143.053 97.2231 144.269 114.698 149.687C122.453 152.096 119.731 162.067 116.227 164.35Z" fill="#D3A17F"/>
<path d="M123.331 164.35C129.378 168.283 144.646 167.656 150.871 161.439C161.259 151.069 153.782 141.551 146.086 142.313C138.622 143.053 142.336 144.269 124.861 149.687C117.101 152.096 119.824 162.067 123.331 164.35Z" fill="#D3A17F"/>
<path d="M116.227 164.35C110.181 168.283 94.9132 167.656 88.6875 161.439C78.2995 151.069 85.7766 141.551 93.4734 142.313C100.937 143.053 97.2231 144.269 114.698 149.687C122.453 152.096 119.731 162.067 116.227 164.35Z" fill="#D3A17F"/>
<path d="M123.331 164.35C129.378 168.283 144.646 167.656 150.871 161.439C161.259 151.069 153.782 141.551 146.086 142.313C138.622 143.053 142.336 144.269 124.861 149.687C117.101 152.096 119.824 162.067 123.331 164.35Z" fill="#D3A17F"/>
<path d="M116.223 164.35C110.177 168.284 94.9088 167.656 88.6832 161.439C81.6233 154.393 82.8164 147.741 86.7186 144.44C88.5576 142.883 91.0066 142.072 93.4735 142.314C99.5915 142.924 98.1966 143.848 107.122 147.144C109.087 147.871 111.545 148.71 114.694 149.688C122.453 152.096 119.731 162.067 116.223 164.35Z" fill="#ECC18E"/>
<path opacity="0.35" d="M116.223 164.35C110.176 168.284 94.9083 167.656 88.6827 161.439C83.9866 156.752 82.9415 152.235 83.9193 148.768C84.5293 151.159 86.0184 153.765 88.6827 156.42C94.9083 162.632 110.172 163.265 116.223 159.327C117.564 158.456 118.793 156.456 119.358 154.186C120.506 158.008 118.537 162.848 116.223 164.35Z" fill="#650000"/>
<path d="M116.227 164.35C110.181 168.283 94.9132 167.656 88.6875 161.439C78.2995 151.069 85.7766 141.551 93.4734 142.313C100.937 143.053 97.2231 144.269 114.698 149.687C122.453 152.096 119.731 162.067 116.227 164.35Z" stroke="#650000" stroke-width="1.10929" stroke-miterlimit="10" stroke-linecap="round"/>
<path d="M121.403 160.336C118.304 161.188 115.187 161.776 114.927 162.247C114.187 163.583 122.229 166.956 126.871 165.095" fill="white"/>
<path d="M124.969 159.721C124.023 159.124 123.13 159.865 121.403 160.34C118.304 161.192 115.187 161.78 114.927 162.251C114.187 163.587 122.229 166.96 126.871 165.099C130.527 163.628 126.364 160.6 124.969 159.721Z" stroke="#650000" stroke-width="0.739528" stroke-miterlimit="10" stroke-linecap="round"/>
<path d="M119.483 155.954C116.379 156.788 113.262 157.358 112.997 157.828C112.248 159.165 120.272 162.578 124.924 160.744" fill="white"/>
<path d="M123.053 155.357C122.107 154.752 121.214 155.492 119.483 155.954C116.379 156.788 113.262 157.358 112.997 157.828C112.248 159.165 120.272 162.578 124.924 160.744C128.588 159.3 124.444 156.25 123.053 155.357Z" stroke="#650000" stroke-width="0.739528" stroke-miterlimit="10" stroke-linecap="round"/>
<path d="M124.094 150.899C123.166 150.276 122.251 150.989 120.515 151.415C117.393 152.178 114.262 152.675 113.984 153.142C113.204 154.461 121.152 158.058 125.839 156.327C129.539 154.963 125.462 151.819 124.094 150.899Z" fill="white"/>
<path d="M124.094 150.899C123.166 150.276 122.251 150.989 120.515 151.415C117.393 152.178 114.262 152.675 113.984 153.142C113.204 154.461 121.152 158.058 125.839 156.327C129.539 154.963 125.462 151.819 124.094 150.899Z" stroke="#650000" stroke-width="0.739528" stroke-miterlimit="10" stroke-linecap="round"/>
<path d="M123.331 164.35C129.378 168.283 144.646 167.656 150.871 161.439C161.259 151.069 153.782 141.551 146.086 142.313C138.622 143.053 142.336 144.269 124.861 149.687C117.101 152.096 119.824 162.067 123.331 164.35Z" fill="#ECC18E"/>
<path opacity="0.35" d="M150.867 161.439C144.641 167.656 129.378 168.284 123.327 164.35C121.004 162.839 119.03 157.963 120.205 154.142C120.779 156.384 121.995 158.353 123.327 159.219C129.373 163.153 144.641 162.52 150.867 156.308C153.509 153.671 154.998 151.087 155.617 148.714C156.622 152.19 155.59 156.725 150.867 161.439Z" fill="#650000"/>
<path d="M123.331 164.35C129.378 168.283 144.646 167.656 150.871 161.439C161.259 151.069 153.782 141.551 146.086 142.313C138.622 143.053 142.336 144.269 124.861 149.687C117.101 152.096 119.824 162.067 123.331 164.35Z" stroke="#650000" stroke-width="1.10929" stroke-miterlimit="10" stroke-linecap="round"/>
<path d="M104.812 112.486L104.004 115.056L102.466 119.95L99.9631 127.916C99.9631 127.916 97.1732 136.918 90.7233 141.986C88.6331 143.628 86.1572 144.857 83.2686 145.234C63.6677 147.786 70.1087 133.078 70.1087 133.078C70.1087 133.078 79.7252 131.818 82.9547 130.715C87.3413 129.217 89.2969 122.435 95.7513 117.214C96.5273 116.586 97.366 115.985 98.2811 115.411C98.4739 115.29 98.6668 115.173 98.8641 115.056C100.569 114.061 102.529 113.182 104.812 112.486Z" fill="#ECC18E"/>
<path opacity="0.35" d="M99.7256 128.611C99.8422 128.293 99.914 128.073 99.9454 127.974L99.8915 128.154C99.8915 128.154 99.8422 128.315 99.7256 128.611Z" fill="#650000"/>
<path opacity="0.35" d="M99.959 127.925L99.9453 127.97C99.9544 127.952 99.9544 127.934 99.959 127.925Z" fill="#650000"/>
<path opacity="0.35" d="M99.7208 128.625C98.9359 130.791 96.2223 137.434 91.118 141.668C91.0821 141.699 91.0417 141.731 91.0058 141.762C90.9116 141.838 90.8175 141.915 90.7233 141.986C88.6331 143.628 86.1572 144.857 83.2686 145.234C63.6677 147.786 70.1087 133.078 70.1087 133.078C70.1087 133.078 77.8504 131.769 81.2189 131.195C82.6811 134.061 78.2361 135.196 78.2361 137.631C78.2361 140.026 79.344 140.887 81.3983 141.322C84.9731 142.085 88.7183 141.197 91.5979 138.945C91.6158 138.932 91.6383 138.914 91.6562 138.9C96.9982 134.702 99.1378 130.087 99.7208 128.625Z" fill="#650000"/>
<path d="M104.88 112.715C103.314 113.553 101.772 114.284 100.278 115.114C98.7933 115.953 97.3714 116.89 96.0393 117.953C95.7029 118.214 95.3889 118.501 95.0615 118.774C94.752 119.07 94.429 119.348 94.133 119.658C93.5185 120.254 92.9489 120.896 92.3882 121.551C91.2759 122.869 90.2577 124.269 89.2261 125.695C88.7102 126.408 88.1855 127.121 87.6203 127.826C87.0552 128.525 86.4541 129.216 85.7454 129.844C85.0412 130.468 84.2204 131.019 83.2875 131.356C82.3904 131.67 81.5292 131.858 80.6546 132.06C77.174 132.795 73.7023 133.311 70.2038 133.791L70.7689 133.37C70.6882 133.562 70.5985 133.805 70.5222 134.024C70.446 134.253 70.3742 134.482 70.3069 134.715C70.1724 135.182 70.0692 135.653 69.984 136.128C69.8225 137.074 69.7552 138.039 69.8629 138.963C69.966 139.887 70.2307 140.779 70.6882 141.546C71.1502 142.313 71.8185 142.941 72.6034 143.417C73.3884 143.901 74.2989 144.197 75.2229 144.421L75.9271 144.569C76.1648 144.61 76.407 144.632 76.6492 144.668C77.1291 144.744 77.6225 144.753 78.1114 144.789C78.2325 144.794 78.3536 144.807 78.4792 144.807H78.8515L79.5916 144.803C79.8383 144.807 80.085 144.789 80.3316 144.776L81.0762 144.731L81.4485 144.708L81.8208 144.668L82.5653 144.587C82.812 144.556 83.0677 144.543 83.3054 144.498L84.0186 144.377C84.9605 144.175 85.8935 143.919 86.7771 143.52C87.6652 143.134 88.5219 142.672 89.3203 142.116C90.1231 141.569 90.8901 140.954 91.5988 140.277C92.312 139.604 92.9893 138.882 93.6082 138.115C94.8596 136.586 95.963 134.917 96.8556 133.136L98.2102 130.472C98.4434 130.028 98.6722 129.584 98.9278 129.149C99.179 128.709 99.4392 128.27 99.7352 127.848L99.7397 127.839C99.8159 127.727 99.9729 127.7 100.085 127.776C100.157 127.826 100.193 127.906 100.193 127.987C100.175 128.53 100.085 129.041 99.9639 129.553C99.8473 130.059 99.6948 130.557 99.5109 131.042C99.1521 132.015 98.7081 132.952 98.1922 133.854C97.1516 135.648 96.0482 137.411 94.7161 139.021C94.0612 139.833 93.3436 140.6 92.5811 141.318C91.8231 142.044 90.9978 142.704 90.1231 143.3C88.3828 144.498 86.3868 145.372 84.2877 145.785L83.4983 145.92C83.2337 145.964 82.9825 145.982 82.7223 146.014L81.9509 146.094L81.5651 146.135L81.1749 146.157L80.3944 146.202C80.1343 146.216 79.8741 146.238 79.614 146.233L78.8291 146.238H78.4388C78.3088 146.238 78.1787 146.225 78.0441 146.22C77.5193 146.184 76.9946 146.175 76.4698 146.09C76.2051 146.054 75.945 146.027 75.6804 145.982L74.8954 145.816C73.8548 145.565 72.8097 145.224 71.8544 144.641C70.9035 144.063 70.0468 143.264 69.4592 142.286C68.8716 141.309 68.5532 140.205 68.4321 139.115C68.3065 138.021 68.3872 136.935 68.5621 135.881C68.6563 135.357 68.7685 134.832 68.9165 134.32C68.9882 134.065 69.069 133.809 69.1542 133.558C69.2439 133.302 69.3246 133.065 69.4457 132.786L69.6027 132.419L70.0109 132.365C73.4691 131.889 76.9497 131.374 80.3406 130.651C81.1794 130.463 82.0316 130.266 82.7941 130.001C83.5162 129.741 84.1801 129.301 84.7901 128.763C85.4001 128.225 85.9607 127.588 86.4945 126.924C87.0282 126.256 87.5441 125.556 88.0599 124.847C89.087 123.43 90.1321 121.99 91.2893 120.622C92.451 119.263 93.6979 117.953 95.0839 116.792C96.4609 115.621 97.9769 114.603 99.6006 113.814C101.22 113.015 102.951 112.445 104.745 112.257C104.88 112.244 105.001 112.342 105.014 112.472C105.019 112.576 104.965 112.67 104.88 112.715Z" fill="#650000"/>
<path d="M77.581 134.935C77.1818 135.348 76.527 135.366 76.1009 134.976C75.1006 134.061 73.1181 132.634 70.4359 132.589C68.3054 132.554 71.9789 129.055 75.3429 129.333C77.5765 129.517 79.1733 130.499 80.1242 131.307C80.6804 131.778 80.6041 132.652 79.9807 133.029C79.5905 133.267 79.115 133.581 78.5857 133.998C78.2942 134.222 77.9129 134.594 77.581 134.935Z" fill="white"/>
<path opacity="0.35" d="M79.9813 133.024C79.5911 133.262 79.1201 133.576 78.5864 133.993C78.2948 134.222 77.9136 134.594 77.5816 134.935C77.1824 135.348 76.5276 135.366 76.1015 134.975C75.0968 134.056 73.1143 132.634 70.4365 132.589C69.2883 132.571 69.8265 131.54 71.0959 130.643C73.6435 130.773 75.5274 132.136 76.5007 133.02C76.9223 133.41 77.5772 133.392 77.9808 132.979C78.3128 132.639 78.694 132.266 78.9856 132.038C79.3892 131.724 79.7525 131.468 80.0755 131.262C80.0934 131.275 80.1114 131.288 80.1293 131.306C80.681 131.777 80.6048 132.648 79.9813 133.024Z" fill="#650000"/>
<path d="M77.5093 135.007C77.1504 135.379 76.5539 135.402 76.1771 135.047C75.2038 134.137 73.1854 132.634 70.4359 132.589C68.3054 132.554 71.9789 129.055 75.3429 129.333C77.6932 129.526 79.3303 130.602 80.2633 131.428C80.7477 131.854 80.6625 132.625 80.1063 132.953C79.6936 133.195 79.1733 133.536 78.5813 133.998C78.2718 134.24 77.8591 134.648 77.5093 135.007Z" stroke="#650000" stroke-width="0.739528" stroke-miterlimit="10" stroke-linecap="round"/>
<path d="M73.1994 141.103C73.1994 141.103 69.9655 142.018 68.7858 138.187C67.1666 132.93 71.1316 130.311 71.9973 130.598C72.863 130.885 71.6609 133.863 74.4956 136.38C75.5407 137.308 74.8993 139.735 73.1994 141.103Z" fill="white"/>
<path opacity="0.35" d="M73.1989 141.103C73.1989 141.103 69.965 142.018 68.7853 138.187C68.283 136.554 68.3188 135.173 68.6328 134.056C68.6777 134.236 68.727 134.419 68.7853 134.608C69.965 138.438 73.1989 137.523 73.1989 137.523C73.6609 137.156 74.0421 136.707 74.3337 136.232C74.3875 136.281 74.4368 136.33 74.4907 136.375C75.5402 137.308 74.8988 139.735 73.1989 141.103Z" fill="#650000"/>
<path d="M73.1994 141.103C73.1994 141.103 69.9655 142.018 68.7858 138.187C67.1666 132.93 71.1316 130.311 71.9973 130.598C72.863 130.885 71.6609 133.863 74.4956 136.38C75.5407 137.308 74.8993 139.735 73.1994 141.103Z" stroke="#650000" stroke-width="0.739528" stroke-miterlimit="10" stroke-linecap="round"/>
<path d="M76.209 143.704C75.5631 144.355 74.6302 144.664 72.3202 144.242C67.6017 143.386 64.0762 140.107 65.2155 138.896C65.9825 138.08 67.5703 138.757 69.5663 138.838C73.1007 138.981 74.0336 138.322 74.8589 138.322C76.689 138.322 78.1422 141.753 76.209 143.704Z" fill="white"/>
<path opacity="0.35" d="M76.209 143.7C75.5631 144.355 74.6301 144.66 72.3202 144.239C67.7182 143.404 64.2511 140.265 65.1437 138.986C66.3906 140.247 68.7454 141.579 71.5039 142.081C73.8093 142.503 74.7468 142.193 75.3926 141.543C76.0879 140.843 76.3435 139.946 76.3032 139.094C77.2496 140.22 77.5725 142.328 76.209 143.7Z" fill="#650000"/>
<path d="M76.209 143.704C75.5631 144.355 74.6302 144.664 72.3202 144.242C67.6017 143.386 64.0762 140.107 65.2155 138.896C65.9825 138.08 67.5703 138.757 69.5663 138.838C73.1007 138.981 74.0336 138.322 74.8589 138.322C76.689 138.322 78.1422 141.753 76.209 143.704Z" stroke="#650000" stroke-width="0.739528" stroke-miterlimit="10" stroke-linecap="round"/>
<path d="M134.119 112.486L134.927 115.056L136.465 119.95L138.968 127.916C138.968 127.916 141.758 136.918 148.208 141.986C150.298 143.628 152.774 144.857 155.662 145.234C175.263 147.786 168.822 133.078 168.822 133.078C168.822 133.078 159.206 131.818 155.976 130.715C151.59 129.217 149.634 122.435 143.18 117.214C142.404 116.586 141.565 115.985 140.65 115.411C140.457 115.29 140.264 115.173 140.067 115.056C138.362 114.061 136.402 113.182 134.119 112.486Z" fill="#ECC18E"/>
<path opacity="0.35" d="M139.21 128.625C139.995 130.791 142.709 137.434 147.813 141.668C147.849 141.699 147.889 141.731 147.925 141.762C148.019 141.838 148.113 141.915 148.208 141.986C150.298 143.628 152.774 144.857 155.662 145.234C175.263 147.786 168.822 133.078 168.822 133.078C168.822 133.078 161.08 131.769 157.712 131.195C156.25 134.061 160.695 135.196 160.695 137.631C160.695 140.026 159.587 140.887 157.533 141.322C153.958 142.085 150.212 141.197 147.333 138.945C147.315 138.932 147.293 138.914 147.275 138.9C141.933 134.702 139.793 130.087 139.21 128.625Z" fill="#650000"/>
<path d="M134.191 112.257C135.985 112.446 137.716 113.011 139.336 113.814C140.959 114.608 142.475 115.626 143.852 116.792C145.238 117.954 146.481 119.264 147.647 120.623C148.8 121.991 149.849 123.43 150.876 124.848C151.392 125.556 151.904 126.256 152.442 126.925C152.976 127.588 153.536 128.225 154.146 128.763C154.756 129.302 155.42 129.741 156.142 130.001C156.905 130.266 157.757 130.463 158.596 130.652C161.987 131.369 165.467 131.89 168.925 132.365L169.334 132.419L169.491 132.787C169.607 133.06 169.692 133.298 169.782 133.558C169.867 133.809 169.948 134.065 170.02 134.321C170.168 134.832 170.28 135.352 170.374 135.882C170.549 136.936 170.63 138.021 170.504 139.116C170.383 140.206 170.065 141.309 169.477 142.287C168.889 143.265 168.033 144.067 167.082 144.642C166.127 145.225 165.081 145.566 164.041 145.817L163.256 145.983C162.991 146.023 162.731 146.054 162.466 146.09C161.942 146.176 161.417 146.185 160.892 146.22C160.762 146.225 160.628 146.238 160.497 146.238H160.107L159.322 146.234C159.062 146.238 158.802 146.22 158.542 146.202L157.761 146.158L157.371 146.135L156.985 146.095L156.214 146.014C155.954 145.983 155.703 145.969 155.438 145.92L154.649 145.785C152.554 145.373 150.558 144.498 148.813 143.3C147.939 142.704 147.113 142.045 146.355 141.318C145.593 140.596 144.875 139.829 144.22 139.021C142.888 137.411 141.785 135.644 140.744 133.854C140.228 132.953 139.784 132.015 139.425 131.042C139.241 130.558 139.093 130.06 138.972 129.553C138.856 129.046 138.762 128.53 138.744 127.988C138.739 127.848 138.847 127.736 138.986 127.732C139.071 127.727 139.152 127.772 139.197 127.835L139.201 127.844C139.497 128.27 139.757 128.71 140.004 129.145C140.26 129.58 140.488 130.024 140.722 130.468L142.076 133.132C142.969 134.913 144.077 136.581 145.324 138.111C145.947 138.882 146.62 139.6 147.333 140.273C148.042 140.955 148.809 141.565 149.612 142.112C150.41 142.668 151.271 143.13 152.155 143.516C153.038 143.915 153.971 144.175 154.913 144.372L155.626 144.494C155.864 144.534 156.12 144.552 156.366 144.583L157.111 144.664L157.483 144.704L157.856 144.727L158.6 144.772C158.847 144.785 159.098 144.803 159.34 144.799L160.08 144.803H160.453C160.574 144.803 160.699 144.79 160.82 144.785C161.309 144.754 161.803 144.745 162.283 144.664C162.525 144.633 162.767 144.606 163.005 144.565L163.709 144.417C164.637 144.193 165.548 143.893 166.328 143.413C167.113 142.937 167.777 142.309 168.244 141.542C168.706 140.775 168.97 139.883 169.069 138.959C169.177 138.035 169.109 137.07 168.948 136.124C168.863 135.648 168.759 135.178 168.625 134.711C168.558 134.478 168.486 134.249 168.41 134.02C168.333 133.796 168.248 133.558 168.163 133.365L168.728 133.787C165.229 133.307 161.758 132.791 158.277 132.056C157.403 131.854 156.541 131.666 155.644 131.352C154.711 131.015 153.891 130.459 153.186 129.84C152.482 129.217 151.877 128.526 151.311 127.822C150.746 127.117 150.222 126.404 149.706 125.691C148.674 124.265 147.656 122.865 146.544 121.547C145.983 120.896 145.413 120.25 144.799 119.654C144.498 119.349 144.18 119.066 143.87 118.77C143.543 118.497 143.229 118.205 142.893 117.949C141.56 116.886 140.139 115.949 138.654 115.11C137.16 114.28 135.617 113.549 134.052 112.71C133.935 112.648 133.89 112.5 133.953 112.379C133.998 112.293 134.092 112.249 134.191 112.257Z" fill="#650000"/>
<path d="M161.349 134.935C161.748 135.348 162.403 135.366 162.829 134.976C163.83 134.061 165.812 132.634 168.494 132.589C170.625 132.554 166.951 129.055 163.587 129.333C161.354 129.517 159.757 130.499 158.806 131.307C158.25 131.778 158.326 132.652 158.95 133.029C159.34 133.267 159.815 133.581 160.345 133.998C160.636 134.222 161.017 134.594 161.349 134.935Z" fill="white"/>
<path opacity="0.35" d="M158.95 133.024C159.341 133.262 159.812 133.576 160.345 133.993C160.637 134.222 161.018 134.594 161.35 134.935C161.749 135.348 162.404 135.366 162.83 134.975C163.835 134.056 165.817 132.634 168.495 132.589C169.643 132.571 169.105 131.54 167.836 130.643C165.288 130.773 163.404 132.136 162.431 133.02C162.009 133.41 161.354 133.392 160.951 132.979C160.619 132.639 160.238 132.266 159.946 132.038C159.542 131.724 159.179 131.468 158.856 131.262C158.838 131.275 158.82 131.288 158.802 131.306C158.251 131.777 158.327 132.648 158.95 133.024Z" fill="#650000"/>
<path d="M161.422 135.007C161.78 135.379 162.377 135.402 162.754 135.047C163.727 134.137 165.745 132.634 168.495 132.589C170.625 132.554 166.952 129.055 163.588 129.333C161.238 129.526 159.601 130.602 158.668 131.428C158.183 131.854 158.268 132.625 158.825 132.953C159.237 133.195 159.758 133.536 160.35 133.998C160.659 134.24 161.072 134.648 161.422 135.007Z" stroke="#650000" stroke-width="0.739528" stroke-miterlimit="10" stroke-linecap="round"/>
<path d="M165.732 141.103C165.732 141.103 168.966 142.018 170.146 138.187C171.765 132.93 167.8 130.311 166.934 130.598C166.069 130.881 167.271 133.863 164.436 136.38C163.391 137.308 164.032 139.735 165.732 141.103Z" fill="white"/>
<path opacity="0.35" d="M165.732 141.103C165.732 141.103 168.966 142.018 170.145 138.187C170.648 136.554 170.612 135.173 170.298 134.056C170.253 134.236 170.204 134.419 170.145 134.608C168.966 138.438 165.732 137.523 165.732 137.523C165.27 137.156 164.889 136.707 164.597 136.232C164.543 136.281 164.494 136.33 164.44 136.375C163.39 137.308 164.032 139.735 165.732 141.103Z" fill="#650000"/>
<path d="M165.732 141.103C165.732 141.103 168.966 142.018 170.146 138.187C171.765 132.93 167.8 130.311 166.934 130.598C166.069 130.881 167.271 133.863 164.436 136.38C163.391 137.308 164.032 139.735 165.732 141.103Z" stroke="#650000" stroke-width="0.739528" stroke-miterlimit="10" stroke-linecap="round"/>
<path d="M162.723 143.704C163.368 144.355 164.301 144.664 166.611 144.242C171.33 143.386 174.855 140.107 173.716 138.896C172.949 138.08 171.361 138.757 169.365 138.838C165.831 138.981 164.898 138.322 164.073 138.322C162.243 138.322 160.789 141.753 162.723 143.704Z" fill="white"/>
<path opacity="0.35" d="M162.722 143.7C163.368 144.355 164.301 144.66 166.611 144.239C171.213 143.404 174.68 140.265 173.787 138.986C172.54 140.247 170.186 141.579 167.427 142.081C165.122 142.503 164.184 142.193 163.538 141.543C162.843 140.843 162.588 139.946 162.628 139.094C161.681 140.22 161.359 142.328 162.722 143.7Z" fill="#650000"/>
<path d="M162.723 143.704C163.368 144.355 164.301 144.664 166.611 144.242C171.33 143.386 174.855 140.107 173.716 138.896C172.949 138.08 171.361 138.757 169.365 138.838C165.831 138.981 164.898 138.322 164.073 138.322C162.243 138.322 160.789 141.753 162.723 143.704Z" stroke="#650000" stroke-width="0.739528" stroke-miterlimit="10" stroke-linecap="round"/>
<path opacity="0.35" d="M146.625 120.625C146.097 120.892 145.554 121.153 145.001 121.405C143.126 122.254 141.112 122.979 138.99 123.591C133.453 125.185 127.156 125.98 120.478 126C113.391 126.019 106.729 125.161 100.945 123.394C98.862 122.762 96.8879 122.007 95.052 121.134C94.5437 120.892 94.0452 120.64 93.5566 120.383C94.4104 119.692 95.3333 119.031 96.3401 118.399C96.4684 118.143 96.5375 118.01 96.5375 118.01H96.9866C98.862 116.914 102.642 118.01 102.642 118.01H137.243L136.355 115.182C138.867 115.942 141.024 116.909 142.899 118.01H143.402C143.402 118.01 143.481 118.158 143.624 118.449C144.715 119.13 145.712 119.865 146.625 120.625Z" fill="#650000"/>
<path d="M160.666 94.9226C160.715 113.129 142.711 121.79 120.478 121.849C98.2451 121.908 80.1969 113.341 80.1476 95.1348C80.1032 77.6839 91.3752 57.7258 116.905 56.0331C119.99 54.4488 124.165 51.7098 126.509 47.6629C127.244 46.3995 129.11 46.5772 129.579 47.964C130.201 49.8097 130.768 52.2379 129.539 55.3717C132.95 53.7036 136.34 51.8085 137.455 50.8017C138.65 49.7258 140.555 50.5994 140.5 52.2033C140.451 53.7579 139.898 57.0497 139.257 59.8134C153.919 66.703 160.631 81.5334 160.666 94.9226Z" fill="#ECC18E"/>
<path opacity="0.35" d="M160.666 94.9224C160.715 113.128 142.711 121.79 120.478 121.849C98.2449 121.908 80.1968 113.341 80.1475 95.1395C80.1475 94.4042 80.1623 93.6639 80.2017 92.9187C81.2974 110.004 98.9161 118.059 120.478 117.999C141.956 117.94 159.486 109.856 160.611 92.8989C160.646 93.5751 160.666 94.2512 160.666 94.9224Z" fill="#650000"/>
<path opacity="0.3" d="M159.215 103.327C159.6 101.61 159.798 99.7838 159.793 97.8541C159.758 85.2595 152.859 70.6561 139.845 63.2385C138.364 62.3946 137.594 60.6968 137.959 59.0337C138.374 57.1583 138.714 55.3915 138.744 54.3649C138.793 52.761 137.777 52.6574 136.587 53.7332C135.714 54.5179 133.453 55.8505 130.877 57.1928C130.088 57.6025 129.15 56.951 129.283 56.0676C129.609 53.9849 129.175 52.2773 128.706 50.8955C128.237 49.5087 127.442 49.1583 126.337 51.083C124.782 53.7826 122.088 55.6827 119.556 57.1188C117.527 58.2638 115.282 58.9646 112.972 59.2607C95.7779 61.4815 85.6212 72.3785 81.4707 84.6425C85.1178 70.5031 96.4244 57.3902 116.906 56.0331C119.99 54.4488 124.165 51.7098 126.51 47.6629C127.245 46.3995 129.11 46.5772 129.579 47.964C130.201 49.8097 130.769 52.2379 129.54 55.3717C132.95 53.7036 136.341 51.8085 137.456 50.8017C138.65 49.7258 140.555 50.5994 140.501 52.2033C140.452 53.7579 139.899 57.0497 139.257 59.8134C153.915 66.6931 160.627 81.5235 160.661 94.9128C160.676 97.9973 160.173 100.796 159.215 103.327Z" fill="white"/>
<path d="M152.711 92.4841C152.726 97.7895 151.132 103.504 146.325 107.931C141.414 112.457 133.148 115.64 119.803 115.675C106.601 115.709 98.3497 112.635 93.3947 108.213C88.4447 103.791 86.7865 98.0214 86.7717 92.6568C86.7667 91.5661 86.8556 90.4952 87.0283 89.4539C88.5286 80.2447 96.5089 73.2071 106.142 73.1824C111.413 73.1676 116.2 75.2552 119.704 78.6556C123.194 75.2355 127.971 73.1282 133.237 73.1133C142.752 73.0887 150.683 79.9091 152.376 88.9357C152.593 90.0856 152.706 91.27 152.711 92.4841Z" fill="#FEFAFB"/>
<path d="M124.659 93.7533C124.664 95.4066 122.468 97.4005 119.753 97.4054C117.039 97.4103 114.833 95.4313 114.828 93.778C114.823 92.1247 117.024 91.4239 119.739 91.419C122.453 91.414 124.659 92.1 124.659 93.7533Z" fill="#650000"/>
<path opacity="0.5" d="M121.879 92.8457C121.879 93.2306 120.986 93.6995 119.881 93.7044C118.775 93.7093 117.877 93.2454 117.877 92.8605C117.877 92.4755 118.77 92.3077 119.876 92.3077C120.981 92.3028 121.879 92.4607 121.879 92.8457Z" fill="#FEFAFB"/>
<path d="M96.6214 117.684C86.6572 113.474 80.1772 106.032 80.1476 95.135C80.1032 78.2664 90.6349 59.0535 114.398 56.2651" stroke="#650000" stroke-width="1.22056" stroke-miterlimit="10" stroke-linecap="round"/>
<path d="M101.774 119.605C101.315 119.619 100.866 119.59 100.422 119.55C99.9779 119.501 99.5338 119.437 99.0995 119.353C98.6602 119.269 98.2259 119.175 97.8064 119.032C97.3869 118.889 96.9724 118.721 96.5924 118.484C96.242 118.262 96.1383 117.798 96.3555 117.448C96.5282 117.172 96.849 117.048 97.1501 117.112H97.155C97.5794 117.206 97.9742 117.359 98.3691 117.522C98.7639 117.69 99.1439 117.892 99.5288 118.09C99.9138 118.287 100.299 118.494 100.684 118.706C101.069 118.924 101.454 119.146 101.829 119.402C101.878 119.437 101.893 119.506 101.858 119.555C101.843 119.585 101.809 119.6 101.774 119.605Z" fill="#650000"/>
<path d="M112.968 92.8596C112.158 98.6091 107.534 99.9762 101.493 102.419C97.7032 103.954 95.0974 106.219 93.3947 108.208C88.4447 103.786 86.7865 98.0169 86.7717 92.6523C86.7667 91.5616 86.8556 90.4907 87.0283 89.4493C90.5817 85.738 96.198 82.1699 104.302 83.1224C110.229 83.8281 113.55 88.7337 112.968 92.8596Z" fill="#967660"/>
<path d="M152.711 92.4847C152.726 97.79 151.132 103.505 146.325 107.932C144.607 105.987 142.026 103.806 138.32 102.33C132.269 99.9171 127.635 98.5797 126.796 92.8301C126.194 88.7043 129.486 83.7839 135.413 83.0535C143.26 82.0861 148.792 85.3779 152.38 88.9412C152.592 90.0861 152.706 91.2706 152.711 92.4847Z" fill="#967660"/>
<path d="M128.696 56.5808C130.971 54.1329 130.468 50.6043 129.579 47.9688C129.11 46.582 127.245 46.4044 126.51 47.6678C122.482 54.6166 114.394 56.265 114.394 56.265" stroke="#650000" stroke-width="1.22056" stroke-miterlimit="10" stroke-linecap="round"/>
<path d="M143.383 117.945C153.85 113.76 160.695 106.16 160.666 94.9225C160.631 81.4937 153.88 66.614 139.133 59.759L139.203 59.6109C140.116 57.6319 140.426 54.6659 140.505 52.2081C140.555 50.5992 138.655 49.7306 137.46 50.8065C135.279 52.7707 132.239 55.0557 129.51 55.4752" stroke="#650000" stroke-width="1.22056" stroke-miterlimit="10" stroke-linecap="round" stroke-linejoin="round"/>
<path d="M137.686 119.692C138.106 119.435 138.53 119.213 138.955 118.996C139.379 118.779 139.803 118.572 140.228 118.369C140.652 118.167 141.072 117.965 141.501 117.792C141.931 117.619 142.365 117.466 142.824 117.367H142.829C143.233 117.279 143.633 117.54 143.717 117.945C143.786 118.271 143.633 118.591 143.362 118.749C142.942 118.996 142.493 119.169 142.034 119.312C141.575 119.46 141.101 119.554 140.628 119.643C140.154 119.731 139.675 119.796 139.191 119.845C138.708 119.889 138.224 119.914 137.731 119.899C137.671 119.899 137.622 119.845 137.622 119.786C137.637 119.746 137.657 119.712 137.686 119.692Z" fill="#650000"/>
<path d="M96.6086 85.2263C96.7123 85.098 96.7912 85.0091 96.8801 84.9104C96.9689 84.8167 97.0627 84.7229 97.1515 84.6341C97.3341 84.4515 97.5315 84.2935 97.7338 84.1307C98.1385 83.8148 98.5679 83.5335 99.0269 83.2917C99.9399 82.808 100.947 82.4774 101.998 82.3244C102.521 82.2504 103.059 82.2306 103.587 82.2504C104.12 82.28 104.648 82.3589 105.161 82.4872C106.188 82.7537 107.145 83.2177 107.935 83.8691C108.3 84.1751 108.354 84.718 108.048 85.0832C107.841 85.3349 107.52 85.4385 107.219 85.3793L107.18 85.3694C106.316 85.2016 105.512 85.0536 104.722 84.9943C104.327 84.9697 103.932 84.9549 103.543 84.9647C103.153 84.9746 102.763 85.0091 102.373 85.0536C101.593 85.1572 100.813 85.3398 100.034 85.5915C99.6438 85.7149 99.2539 85.858 98.8591 86.011C98.6617 86.085 98.4692 86.1689 98.2718 86.2528L97.9806 86.3811C97.8868 86.4157 97.7832 86.4749 97.7092 86.4946L97.4772 86.5588C97.033 86.6822 96.5691 86.4256 96.4458 85.9814C96.3717 85.7149 96.4458 85.4336 96.6086 85.2263Z" fill="#650000"/>
<path d="M142.116 86.3811C142.047 86.3614 141.938 86.3071 141.845 86.2725L141.553 86.1492C141.356 86.0702 141.164 85.9814 140.966 85.9123C140.576 85.7593 140.181 85.6161 139.792 85.4977C139.007 85.246 138.227 85.0733 137.447 84.9696C137.057 84.9252 136.668 84.8956 136.278 84.8857C135.888 84.8759 135.493 84.8956 135.098 84.9203C134.304 84.9844 133.504 85.1325 132.64 85.3102L132.601 85.32C132.132 85.4138 131.678 85.1128 131.584 84.6439C131.52 84.3231 131.643 84.0073 131.875 83.8099C132.66 83.1535 133.618 82.6846 134.644 82.4132C135.157 82.2799 135.685 82.201 136.218 82.1664C136.751 82.1418 137.284 82.1615 137.813 82.2306C138.864 82.3786 139.875 82.7044 140.788 83.1831C141.247 83.4249 141.682 83.7013 142.081 84.0171C142.284 84.18 142.481 84.3379 142.664 84.5205C142.758 84.6094 142.851 84.6982 142.94 84.7969C143.034 84.8956 143.108 84.9844 143.217 85.1128C143.513 85.4681 143.463 85.9962 143.108 86.2873C142.891 86.465 142.61 86.5193 142.358 86.4502L142.116 86.3811Z" fill="#650000"/>
<path d="M125.37 101.521C125.158 101.718 124.975 101.866 124.768 102.019C124.566 102.168 124.354 102.301 124.141 102.434C123.712 102.691 123.258 102.908 122.784 103.085C121.837 103.446 120.805 103.653 119.734 103.638C118.648 103.618 117.617 103.362 116.684 102.952C116.22 102.745 115.776 102.508 115.357 102.232C115.149 102.089 114.947 101.95 114.75 101.788C114.552 101.63 114.374 101.472 114.172 101.264C113.861 100.953 113.866 100.445 114.177 100.139C114.394 99.9269 114.7 99.8628 114.972 99.9418L115.09 99.9812C115.263 100.036 115.475 100.119 115.672 100.184C115.875 100.253 116.072 100.327 116.27 100.386C116.669 100.514 117.064 100.633 117.459 100.731C118.244 100.934 119.019 101.052 119.759 101.062C120.134 101.062 120.524 101.047 120.914 100.998C121.304 100.958 121.698 100.889 122.098 100.81C122.498 100.731 122.903 100.633 123.307 100.524C123.51 100.475 123.712 100.411 123.914 100.356C124.112 100.302 124.329 100.228 124.506 100.184L124.635 100.154C125.064 100.05 125.494 100.312 125.597 100.741C125.671 101.042 125.573 101.333 125.37 101.521Z" fill="#650000"/>
<path d="M83.8604 60.0362C87.6577 60.7001 91.2543 64.9765 91.2543 64.9765C91.2543 64.9765 86.4201 67.7791 82.6228 67.1153C78.8255 66.4514 75.2289 62.175 75.2289 62.175C75.2289 62.175 80.063 59.3724 83.8604 60.0362Z" fill="#34876F"/>
<path d="M95.5583 55.5231C94.6625 59.2724 90.4255 62.6598 90.4255 62.6598C90.4255 62.6598 88.1775 57.7229 89.0733 53.9735C89.9692 50.2242 94.2062 46.8368 94.2062 46.8368C94.2062 46.8368 96.4542 51.7737 95.5583 55.5231Z" fill="#34876F"/>
<g filter="url(#filter1_d_553_725)">
<path d="M107.735 58.1733C107.831 58.0918 107.925 58.0049 108.015 57.9128C109.559 56.3387 109.544 53.8193 107.98 52.2856C106.417 50.7519 103.897 50.7847 102.353 52.3588C102.203 52.5116 102.068 52.6733 101.948 52.8422C101.564 51.3463 100.353 50.1383 98.7671 49.8616C96.6211 49.4873 94.6002 50.9592 94.2533 53.1491C94.0683 54.3165 94.3965 55.4524 95.0684 56.3152C94.9052 56.3245 94.7408 56.3435 94.576 56.3729C92.3932 56.7619 90.9605 58.8108 91.376 60.9492C91.7916 63.0876 93.8979 64.5058 96.0807 64.1168C96.1985 64.0958 96.3142 64.07 96.4274 64.0396C96.3992 64.1534 96.3756 64.2695 96.3569 64.3877C96.01 66.5776 97.4685 68.6563 99.6145 69.0305C101.761 69.4048 103.781 67.9329 104.128 65.743C104.159 65.5486 104.176 65.355 104.179 65.1634C105.008 65.6773 106.027 65.9002 107.064 65.7154C109.247 65.3264 110.679 63.2776 110.264 61.1392C109.992 59.7421 108.999 58.6524 107.735 58.1733Z" fill="#FFA787"/>
<g style="mix-blend-mode:multiply">
<circle cx="101.358" cy="59.3555" r="2.99155" transform="rotate(69.1033 101.358 59.3555)" fill="#FEB1AA" fill-opacity="0.5"/>
</g>
</g>
<g filter="url(#filter2_d_553_725)">
<path d="M96.3875 67.1443C96.4792 67.0669 96.5682 66.9844 96.654 66.8969C98.1208 65.4016 98.1058 63.0085 96.6206 61.5516C95.1354 60.0947 92.7424 60.1258 91.2756 61.6211C91.1332 61.7662 91.0048 61.9198 90.8903 62.0803C90.5261 60.6593 89.3761 59.5118 87.8691 59.249C85.8306 58.8935 83.9109 60.2916 83.5814 62.3718C83.4058 63.4808 83.7175 64.5597 84.3557 65.3793C84.2007 65.3881 84.0445 65.4062 83.888 65.4341C81.8145 65.8036 80.4536 67.7499 80.8483 69.7811C81.243 71.8124 83.2439 73.1596 85.3173 72.7901C85.4292 72.7701 85.5391 72.7456 85.6467 72.7167C85.6199 72.8248 85.5974 72.9351 85.5797 73.0474C85.2501 75.1276 86.6356 77.1021 88.6741 77.4577C90.7126 77.8132 92.6323 76.4151 92.9618 74.3349C92.9911 74.1501 93.0068 73.9662 93.0097 73.7842C93.7974 74.2724 94.7657 74.4841 95.7504 74.3086C97.8238 73.9391 99.1847 71.9929 98.79 69.9616C98.5322 68.6345 97.5888 67.5995 96.3875 67.1443Z" fill="#FFCE05"/>
<g style="mix-blend-mode:multiply">
<circle cx="90.3305" cy="68.268" r="2.84169" transform="rotate(69.1033 90.3305 68.268)" fill="#FED402"/>
</g>
</g>
<circle cx="103.851" cy="92.7959" r="5.03471" fill="#09060D"/>
<circle cx="105.529" cy="91.6769" r="1.11882" fill="white"/>
<circle r="5.03471" transform="matrix(-1 0 0 1 136.403 92.7955)" fill="#09060D"/>
<circle r="1.11882" transform="matrix(-1 0 0 1 134.725 91.6764)" fill="white"/>
</g>
<path fill-rule="evenodd" clip-rule="evenodd" d="M180.774 60.9513C180.774 60.9513 183.12 68.8955 186.941 74.5949L190.403 72.2372L187.987 75.472C187.987 75.472 191.3 80.4945 197.384 84.9153L198.143 74.8204L195.48 73.5938L198.18 74.3214C198.18 74.3214 199.395 63.8444 199.139 61.561C198.882 59.2775 180.775 60.9457 180.775 60.9457L180.774 60.9513Z" fill="url(#paint1_linear_553_725)"/>
<path fill-rule="evenodd" clip-rule="evenodd" d="M175.781 64.0942C175.781 64.0942 177.034 76.6443 177.524 78.1754C178.013 79.7064 180.088 83.2101 180.088 83.2101C180.088 83.2101 183.464 77.9087 184.243 75.0529C185.022 72.197 187.09 64.9438 187.09 64.9438L175.781 64.0942Z" fill="url(#paint2_linear_553_725)"/>
<path fill-rule="evenodd" clip-rule="evenodd" d="M185.396 60.0947C185.396 60.0947 192.573 54.4402 195.927 53.5971C199.282 52.7484 211.422 54.9037 212.975 55.9386C214.529 56.9735 218.862 62.6088 218.862 62.6088L213.256 61.76L212.874 58.4234L212.362 61.6015C212.362 61.6015 205.979 61.3045 203.164 61.2699C200.349 61.2352 195.661 61.6131 195.661 61.6131L193.478 60.0004L194.102 61.4959C194.102 61.4959 187.348 61.2109 185.384 60.0939L185.396 60.0947Z" fill="url(#paint3_linear_553_725)"/>
<path fill-rule="evenodd" clip-rule="evenodd" d="M147.955 59.5348C147.955 59.5348 161.497 61.4874 166.435 62.8565C171.368 64.2308 181.24 62.4915 181.24 62.4915L171.44 53.4855L162.558 52.8183L147.961 59.5295L147.955 59.5348Z" fill="url(#paint4_linear_553_725)"/>
<path fill-rule="evenodd" clip-rule="evenodd" d="M180 157C180 157 187.551 119.493 187.878 104.375C188.021 97.845 187.835 62.1465 187.835 62.1465L189.057 61.8673C189.057 61.8673 189.872 100.554 190.101 105.399C190.33 110.243 186.001 147 186.001 147C184.036 150.644 182.775 152.848 180 157Z" fill="url(#paint5_linear_553_725)"/>
<path fill-rule="evenodd" clip-rule="evenodd" d="M188.402 59.922C188.402 59.922 187.748 51.3179 186.776 49.7564C185.809 48.2009 174.124 52.5074 174.124 52.5074L182.353 57.2262L188.402 59.9163L188.402 59.922Z" fill="url(#paint6_linear_553_725)"/>
<path style="mix-blend-mode:multiply" opacity="0.95" fill-rule="evenodd" clip-rule="evenodd" d="M186.424 73.8035L189.546 67.9298C189.546 67.9298 190.467 68.883 193.024 73.4153C195.58 77.9476 197.384 84.9213 197.384 84.9213L198.142 74.8264L195.479 73.5998L198.179 74.3273L198.334 72.263L197.665 67.0512L188.652 62.9806L185.985 67.1262L185.851 72.8537L186.43 73.8096L186.424 73.8035Z" fill="url(#paint7_linear_553_725)"/>
<path fill-rule="evenodd" clip-rule="evenodd" d="M185.518 58.4612C185.518 58.4612 175.117 51.1496 171.18 49.5763C167.243 48.003 153.258 53.4028 144.647 59.3034C144.647 59.3034 154.027 60.1734 160.16 60.4516L163.103 56.9542L161.969 60.5875C161.969 60.5875 168.813 61.1872 173.43 61.8307C178.047 62.4741 185.32 61.0871 185.32 61.0871L185.518 58.4612Z" fill="url(#paint8_linear_553_725)"/>
<path fill-rule="evenodd" clip-rule="evenodd" d="M185.32 61.0869C185.32 61.0869 197.627 58.8119 201.247 59.9736C204.867 61.1409 212.436 67.5839 212.436 67.5839L209.22 67.3423L212.979 69.2274C212.979 69.2274 215.642 74.9368 216.243 83.6338L206.517 79.1105L205.054 77.4036L203.07 77.3915C203.07 77.3915 192.835 66.2711 192.071 65.6662C191.301 65.0608 185.129 62.8691 185.129 62.8691L185.321 61.0756L185.32 61.0869Z" fill="url(#paint9_linear_553_725)"/>
<path fill-rule="evenodd" clip-rule="evenodd" d="M192.139 61.1263C192.139 61.1263 198.527 63.3229 200.887 64.7721C203.248 66.2156 216.243 83.6401 216.243 83.6401C216.243 83.6401 215.792 76.4315 212.98 69.2336L209.566 67.5229L212.436 67.5902C212.436 67.5902 205.285 61.344 201.247 59.9798C197.209 58.6157 188.946 59.0557 188.946 59.0557L192.138 61.132L192.139 61.1263Z" fill="url(#paint10_linear_553_725)"/>
<path fill-rule="evenodd" clip-rule="evenodd" d="M187.55 58.7912C187.55 58.7912 184.435 53.4927 180.357 52.0571C180.357 52.0571 176.977 51.5693 172.854 57.3279L176.876 59.438L172.141 59.0823C172.141 59.0823 167.602 67.8836 167.022 71.7297C166.442 75.5758 167.417 83.9987 167.417 83.9987C167.417 83.9987 175.719 77.2765 180.243 72.8598L178.848 67.1259L182.022 71.0316L195.907 58.2441C195.907 58.2441 192.302 58.0931 187.55 58.7912Z" fill="url(#paint11_linear_553_725)"/>
<path fill-rule="evenodd" clip-rule="evenodd" d="M187.552 58.7912C187.552 58.7912 181.463 60.136 179.273 61.4258C177.089 62.7161 170.769 70.7734 169.879 73.0449C168.99 75.3165 167.414 83.9983 167.414 83.9983C167.414 83.9983 166.522 76.1292 167.018 71.7293C167.514 67.335 172.137 59.0818 172.137 59.0818L176.873 59.4376L172.851 57.3275C172.851 57.3275 174.801 52.86 180.353 52.0566C180.353 52.0566 185.888 53.6873 187.547 58.7908L187.552 58.7912Z" fill="url(#paint12_linear_553_725)"/>
<path fill-rule="evenodd" clip-rule="evenodd" d="M192.599 61.2913C192.599 61.2913 198.943 63.3135 201.321 64.7583C203.7 66.2031 211.853 76.9389 211.853 76.9389L216.243 83.6393L206.962 71.5925C206.962 71.5925 202.243 65.7743 201.119 65.1024C199.994 64.4305 192.605 61.2861 192.605 61.2861L192.599 61.2913Z" fill="url(#paint13_linear_553_725)"/>
<path fill-rule="evenodd" clip-rule="evenodd" d="M167.886 81.5016C167.886 81.5016 169.595 74.769 170.201 73.0693C170.809 71.364 178.943 62.4564 180.139 61.4911C181.336 60.5259 187.551 58.7913 187.551 58.7913C187.551 58.7913 181.253 60.2573 179.085 61.4119C176.916 62.5664 170.484 71.5849 169.893 72.8522C169.307 74.12 167.885 81.5073 167.885 81.5073L167.886 81.5016Z" fill="url(#paint14_linear_553_725)"/>
<path fill-rule="evenodd" clip-rule="evenodd" d="M147.344 57.5726C147.344 57.5726 162.56 50.1323 167.343 49.8529C172.127 49.5734 177.243 52.9805 177.243 52.9805C177.243 52.9805 172.279 49.8244 170.483 49.3644C168.686 48.9044 160.663 49.7274 147.344 57.5726Z" fill="url(#paint15_linear_553_725)"/>
<path fill-rule="evenodd" clip-rule="evenodd" d="M183.422 49.7033C183.422 49.7033 185.735 49.5918 186.449 50.1759C187.164 50.76 188.235 57.9867 188.235 57.9867C188.235 57.9867 187.693 50.777 186.783 49.7561C186.167 49.0711 183.422 49.7033 183.422 49.7033Z" fill="url(#paint16_linear_553_725)"/>
<path fill-rule="evenodd" clip-rule="evenodd" d="M189.072 57.3943C189.072 57.3943 195.453 54.2292 197.478 53.8395C199.504 53.4442 211.445 55.288 212.726 56.0687C214.008 56.8493 218.868 62.6097 218.868 62.6097C218.868 62.6097 214.323 56.9129 212.981 55.9395C211.634 54.9657 199.617 52.6942 195.933 53.598C192.25 54.5019 189.078 57.3947 189.078 57.3947L189.072 57.3943Z" fill="url(#paint17_linear_553_725)"/>
<path style="mix-blend-mode:multiply" opacity="0.5" fill-rule="evenodd" clip-rule="evenodd" d="M182.019 71.0317L177.143 64.5686L179.2 62.3905L184.978 68.3111L182.019 71.0317Z" fill="url(#paint18_linear_553_725)"/>
<path style="mix-blend-mode:multiply" opacity="0.5" fill-rule="evenodd" clip-rule="evenodd" d="M204.439 68.5456L203.072 77.4027L205.056 77.4149L205.382 69.6488L204.439 68.5456Z" fill="url(#paint19_linear_553_725)"/>
<path style="mix-blend-mode:multiply" opacity="0.95" fill-rule="evenodd" clip-rule="evenodd" d="M193.455 67.0767L193.711 61.7691L195.64 59.0852L195.045 59.0405L189.224 64.4034C189.224 64.4034 191.557 65.3087 191.811 65.4932C192.071 65.6781 193.455 67.0767 193.455 67.0767Z" fill="url(#paint20_linear_553_725)"/>
<path style="mix-blend-mode:multiply" opacity="0.5" fill-rule="evenodd" clip-rule="evenodd" d="M209.568 67.5173L203.304 66.5506L201.847 65.1465L210.064 65.7638L212.431 67.5842L209.568 67.5173Z" fill="url(#paint21_linear_553_725)"/>
<path style="mix-blend-mode:multiply" opacity="0.5" fill-rule="evenodd" clip-rule="evenodd" d="M172.852 57.3223L179.725 61.1066L183.744 59.7716L174.386 55.1276C174.386 55.1276 173.253 56.4683 172.852 57.3223Z" fill="url(#paint22_linear_553_725)"/>
<path style="mix-blend-mode:multiply" opacity="0.5" fill-rule="evenodd" clip-rule="evenodd" d="M161.967 60.5879L164.87 50.3347C164.87 50.3347 166.786 49.5147 168.919 49.8917L167.29 61.1018L161.973 60.5883L161.967 60.5879Z" fill="url(#paint23_linear_553_725)"/>
<path style="mix-blend-mode:multiply" opacity="0.5" fill-rule="evenodd" clip-rule="evenodd" d="M212.366 61.6077L213.263 56.4965C213.263 56.4965 212.393 55.8608 211.305 55.6137L208.802 61.454L212.36 61.6073L212.366 61.6077Z" fill="url(#paint24_linear_553_725)"/>
<path fill-rule="evenodd" clip-rule="evenodd" d="M167.055 71.2195L170.415 71.9681L176.841 63.6393L170.174 62.8761C170.174 62.8761 167.258 69.1245 167.05 71.2191L167.055 71.2195Z" fill="url(#paint25_linear_553_725)"/>
<path fill-rule="evenodd" clip-rule="evenodd" d="M212.974 69.2335L205.234 68.7147L210.319 74.9711L215.133 76.1027C215.133 76.1027 214.148 71.3692 212.968 69.2387L212.974 69.2335Z" fill="url(#paint26_linear_553_725)"/>
<path fill-rule="evenodd" clip-rule="evenodd" d="M158.646 52.5304L155.868 60.2093L160.161 60.4577L163.104 56.9603L164.873 50.3405C164.873 50.3405 160.726 50.9529 158.645 52.5361L158.646 52.5304Z" fill="url(#paint27_linear_553_725)"/>
<path fill-rule="evenodd" clip-rule="evenodd" d="M187.913 76.9326C187.913 76.9326 188.287 77.744 188.682 78.3221C189.077 78.8945 189.125 101.917 188.819 105.404C188.512 108.887 188.097 113.336 188.097 113.336L187.128 113.967C187.128 113.967 187.545 108.766 187.881 104.374C188.217 99.9818 187.913 76.9383 187.913 76.9383L187.913 76.9326Z" fill="url(#paint28_linear_553_725)"/>
<path fill-rule="evenodd" clip-rule="evenodd" d="M187.991 101.212L188.973 99.745L189.08 87.1641L188.015 87.9486L187.991 101.212Z" fill="url(#paint29_linear_553_725)"/>
<g filter="url(#filter3_d_553_725)">
<g filter="url(#filter4_i_553_725)">
<path d="M190.112 160.519C190.242 159.775 190.31 159.01 190.31 158.229C190.31 150.923 184.366 145 177.033 145C171.582 145 166.898 148.273 164.853 152.955C163.197 151.53 161.047 150.67 158.698 150.67C153.461 150.67 149.215 154.947 149.215 160.224C149.215 160.518 149.228 160.808 149.254 161.096C146.735 162.325 145 164.905 145 167.888C145 172.063 148.397 175.448 152.587 175.448H188.413C192.603 175.448 196 172.063 196 167.888C196 164.295 193.484 161.288 190.112 160.519Z" fill="url(#paint30_linear_553_725)"/>
</g>
</g>
<g filter="url(#filter5_d_553_725)">
<g filter="url(#filter6_i_553_725)">
<path d="M43.7347 45.252C43.63 44.6169 43.5754 43.9635 43.5754 43.2966C43.5754 37.0576 48.3541 32 54.2489 32C58.6312 32 62.3967 34.7952 64.0405 38.7929C65.3722 37.5761 67.1002 36.8414 68.9886 36.8414C73.1992 36.8414 76.6125 40.4941 76.6125 45C76.6125 45.2509 76.602 45.4992 76.5812 45.7443C78.6065 46.7942 80.001 48.9972 80.001 51.5448C80.001 55.1099 77.2703 58 73.9018 58H45.1001C41.7317 58 39.001 55.1099 39.001 51.5448C39.001 48.4766 41.0236 45.9083 43.7347 45.252Z" fill="url(#paint31_linear_553_725)"/>
</g>
</g>
<g filter="url(#filter7_d_553_725)">
<g filter="url(#filter8_i_553_725)">
<path d="M69.7653 156.432C69.9033 155.644 69.9752 154.834 69.9752 154.007C69.9752 146.271 63.6813 140 55.9174 140C50.1455 140 45.1861 143.466 43.0211 148.423C41.2672 146.914 38.9913 146.003 36.5041 146.003C30.9585 146.003 26.4628 150.532 26.4628 156.119C26.4628 156.431 26.4767 156.738 26.504 157.042C23.8367 158.344 22 161.076 22 164.235C22 168.655 25.5965 172.239 30.0331 172.239H67.9669C72.4035 172.239 76 168.655 76 164.235C76 160.43 73.336 157.246 69.7653 156.432Z" fill="url(#paint32_linear_553_725)"/>
</g>
</g>
<g filter="url(#filter9_d_553_725)">
<g filter="url(#filter10_i_553_725)">
<path d="M63.2347 166.432C63.0967 165.644 63.0248 164.834 63.0248 164.007C63.0248 156.271 69.3187 150 77.0826 150C82.8545 150 87.8139 153.466 89.9789 158.423C91.7328 156.914 94.0087 156.003 96.4959 156.003C102.042 156.003 106.537 160.532 106.537 166.119C106.537 166.431 106.523 166.738 106.496 167.042C109.163 168.344 111 171.076 111 174.235C111 178.655 107.403 182.239 102.967 182.239H65.0331C60.5965 182.239 57 178.655 57 174.235C57 170.43 59.664 167.246 63.2347 166.432Z" fill="url(#paint33_linear_553_725)"/>
</g>
</g>
<defs>
<filter id="filter0_i_553_725" x="50.999" y="78" width="135" height="140.976" filterUnits="userSpaceOnUse" color-interpolation-filters="sRGB">
<feFlood flood-opacity="0" result="BackgroundImageFix"/>
<feBlend mode="normal" in="SourceGraphic" in2="BackgroundImageFix" result="shape"/>
<feColorMatrix in="SourceAlpha" type="matrix" values="0 0 0 0 0 0 0 0 0 0 0 0 0 0 0 0 0 0 127 0" result="hardAlpha"/>
<feOffset dy="5.97561"/>
<feGaussianBlur stdDeviation="10.7561"/>
<feComposite in2="hardAlpha" operator="arithmetic" k2="-1" k3="1"/>
<feColorMatrix type="matrix" values="0 0 0 0 1 0 0 0 0 1 0 0 0 0 1 0 0 0 0.81 0"/>
<feBlend mode="normal" in2="shape" result="effect1_innerShadow_553_725"/>
</filter>
<filter id="filter1_d_553_725" x="91.3047" y="49.8037" width="19.0312" height="20.0989" filterUnits="userSpaceOnUse" color-interpolation-filters="sRGB">
<feFlood flood-opacity="0" result="BackgroundImageFix"/>
<feColorMatrix in="SourceAlpha" type="matrix" values="0 0 0 0 0 0 0 0 0 0 0 0 0 0 0 0 0 0 127 0" result="hardAlpha"/>
<feOffset dy="0.813704"/>
<feComposite in2="hardAlpha" operator="out"/>
<feColorMatrix type="matrix" values="0 0 0 0 0.74902 0 0 0 0 0.52549 0 0 0 0 0.466667 0 0 0 0.5 0"/>
<feBlend mode="normal" in2="BackgroundImageFix" result="effect1_dropShadow_553_725"/>
<feBlend mode="normal" in="SourceGraphic" in2="effect1_dropShadow_553_725" result="shape"/>
</filter>
<filter id="filter2_d_553_725" x="80.7803" y="59.1938" width="18.0781" height="19.1326" filterUnits="userSpaceOnUse" color-interpolation-filters="sRGB">
<feFlood flood-opacity="0" result="BackgroundImageFix"/>
<feColorMatrix in="SourceAlpha" type="matrix" values="0 0 0 0 0 0 0 0 0 0 0 0 0 0 0 0 0 0 127 0" result="hardAlpha"/>
<feOffset dy="0.813704"/>
<feComposite in2="hardAlpha" operator="out"/>
<feColorMatrix type="matrix" values="0 0 0 0 0.74902 0 0 0 0 0.52549 0 0 0 0 0.466667 0 0 0 0.5 0"/>
<feBlend mode="normal" in2="BackgroundImageFix" result="effect1_dropShadow_553_725"/>
<feBlend mode="normal" in="SourceGraphic" in2="effect1_dropShadow_553_725" result="shape"/>
</filter>
<filter id="filter3_d_553_725" x="124.448" y="127.493" width="92.1045" height="71.5522" filterUnits="userSpaceOnUse" color-interpolation-filters="sRGB">
<feFlood flood-opacity="0" result="BackgroundImageFix"/>
<feColorMatrix in="SourceAlpha" type="matrix" values="0 0 0 0 0 0 0 0 0 0 0 0 0 0 0 0 0 0 127 0" result="hardAlpha"/>
<feOffset dy="3.04478"/>
<feGaussianBlur stdDeviation="10.2761"/>
<feComposite in2="hardAlpha" operator="out"/>
<feColorMatrix type="matrix" values="0 0 0 0 0 0 0 0 0 0 0 0 0 0 0 0 0 0 0.25 0"/>
<feBlend mode="normal" in2="BackgroundImageFix" result="effect1_dropShadow_553_725"/>
<feBlend mode="normal" in="SourceGraphic" in2="effect1_dropShadow_553_725" result="shape"/>
</filter>
<filter id="filter4_i_553_725" x="145" y="145" width="51" height="36.5827" filterUnits="userSpaceOnUse" color-interpolation-filters="sRGB">
<feFlood flood-opacity="0" result="BackgroundImageFix"/>
<feBlend mode="normal" in="SourceGraphic" in2="BackgroundImageFix" result="shape"/>
<feColorMatrix in="SourceAlpha" type="matrix" values="0 0 0 0 0 0 0 0 0 0 0 0 0 0 0 0 0 0 127 0" result="hardAlpha"/>
<feOffset dy="6.7485"/>
<feGaussianBlur stdDeviation="3.0675"/>
<feComposite in2="hardAlpha" operator="arithmetic" k2="-1" k3="1"/>
<feColorMatrix type="matrix" values="0 0 0 0 1 0 0 0 0 1 0 0 0 0 1 0 0 0 1 0"/>
<feBlend mode="normal" in2="shape" result="effect1_innerShadow_553_725"/>
</filter>
<filter id="filter5_d_553_725" x="6.7317" y="4.51219" width="105.538" height="90.5366" filterUnits="userSpaceOnUse" color-interpolation-filters="sRGB">
<feFlood flood-opacity="0" result="BackgroundImageFix"/>
<feColorMatrix in="SourceAlpha" type="matrix" values="0 0 0 0 0 0 0 0 0 0 0 0 0 0 0 0 0 0 127 0" result="hardAlpha"/>
<feOffset dy="4.78049"/>
<feGaussianBlur stdDeviation="16.1341"/>
<feComposite in2="hardAlpha" operator="out"/>
<feColorMatrix type="matrix" values="0 0 0 0 0 0 0 0 0 0 0 0 0 0 0 0 0 0 0.25 0"/>
<feBlend mode="normal" in2="BackgroundImageFix" result="effect1_dropShadow_553_725"/>
<feBlend mode="normal" in="SourceGraphic" in2="effect1_dropShadow_553_725" result="shape"/>
</filter>
<filter id="filter6_i_553_725" x="39.001" y="32" width="41" height="35.6323" filterUnits="userSpaceOnUse" color-interpolation-filters="sRGB">
<feFlood flood-opacity="0" result="BackgroundImageFix"/>
<feBlend mode="normal" in="SourceGraphic" in2="BackgroundImageFix" result="shape"/>
<feColorMatrix in="SourceAlpha" type="matrix" values="0 0 0 0 0 0 0 0 0 0 0 0 0 0 0 0 0 0 127 0" result="hardAlpha"/>
<feOffset dy="10.5956"/>
<feGaussianBlur stdDeviation="4.81616"/>
<feComposite in2="hardAlpha" operator="arithmetic" k2="-1" k3="1"/>
<feColorMatrix type="matrix" values="0 0 0 0 1 0 0 0 0 1 0 0 0 0 1 0 0 0 1 0"/>
<feBlend mode="normal" in2="shape" result="effect1_innerShadow_553_725"/>
</filter>
<filter id="filter7_d_553_725" x="0.238806" y="121.463" width="97.5224" height="75.7612" filterUnits="userSpaceOnUse" color-interpolation-filters="sRGB">
<feFlood flood-opacity="0" result="BackgroundImageFix"/>
<feColorMatrix in="SourceAlpha" type="matrix" values="0 0 0 0 0 0 0 0 0 0 0 0 0 0 0 0 0 0 127 0" result="hardAlpha"/>
<feOffset dy="3.22388"/>
<feGaussianBlur stdDeviation="10.8806"/>
<feComposite in2="hardAlpha" operator="out"/>
<feColorMatrix type="matrix" values="0 0 0 0 0 0 0 0 0 0 0 0 0 0 0 0 0 0 0.25 0"/>
<feBlend mode="normal" in2="BackgroundImageFix" result="effect1_dropShadow_553_725"/>
<feBlend mode="normal" in="SourceGraphic" in2="effect1_dropShadow_553_725" result="shape"/>
</filter>
<filter id="filter8_i_553_725" x="22" y="140" width="54" height="40.2985" filterUnits="userSpaceOnUse" color-interpolation-filters="sRGB">
<feFlood flood-opacity="0" result="BackgroundImageFix"/>
<feBlend mode="normal" in="SourceGraphic" in2="BackgroundImageFix" result="shape"/>
<feColorMatrix in="SourceAlpha" type="matrix" values="0 0 0 0 0 0 0 0 0 0 0 0 0 0 0 0 0 0 127 0" result="hardAlpha"/>
<feOffset dy="8.86567"/>
<feGaussianBlur stdDeviation="4.02985"/>
<feComposite in2="hardAlpha" operator="arithmetic" k2="-1" k3="1"/>
<feColorMatrix type="matrix" values="0 0 0 0 1 0 0 0 0 1 0 0 0 0 1 0 0 0 1 0"/>
<feBlend mode="normal" in2="shape" result="effect1_innerShadow_553_725"/>
</filter>
<filter id="filter9_d_553_725" x="35.2388" y="131.463" width="97.5224" height="75.7612" filterUnits="userSpaceOnUse" color-interpolation-filters="sRGB">
<feFlood flood-opacity="0" result="BackgroundImageFix"/>
<feColorMatrix in="SourceAlpha" type="matrix" values="0 0 0 0 0 0 0 0 0 0 0 0 0 0 0 0 0 0 127 0" result="hardAlpha"/>
<feOffset dy="3.22388"/>
<feGaussianBlur stdDeviation="10.8806"/>
<feComposite in2="hardAlpha" operator="out"/>
<feColorMatrix type="matrix" values="0 0 0 0 0 0 0 0 0 0 0 0 0 0 0 0 0 0 0.25 0"/>
<feBlend mode="normal" in2="BackgroundImageFix" result="effect1_dropShadow_553_725"/>
<feBlend mode="normal" in="SourceGraphic" in2="effect1_dropShadow_553_725" result="shape"/>
</filter>
<filter id="filter10_i_553_725" x="57" y="150" width="54" height="40.2985" filterUnits="userSpaceOnUse" color-interpolation-filters="sRGB">
<feFlood flood-opacity="0" result="BackgroundImageFix"/>
<feBlend mode="normal" in="SourceGraphic" in2="BackgroundImageFix" result="shape"/>
<feColorMatrix in="SourceAlpha" type="matrix" values="0 0 0 0 0 0 0 0 0 0 0 0 0 0 0 0 0 0 127 0" result="hardAlpha"/>
<feOffset dy="8.86567"/>
<feGaussianBlur stdDeviation="4.02985"/>
<feComposite in2="hardAlpha" operator="arithmetic" k2="-1" k3="1"/>
<feColorMatrix type="matrix" values="0 0 0 0 1 0 0 0 0 1 0 0 0 0 1 0 0 0 1 0"/>
<feBlend mode="normal" in2="shape" result="effect1_innerShadow_553_725"/>
</filter>
<linearGradient id="paint0_linear_553_725" x1="128.752" y1="182.241" x2="73.2142" y2="84.8354" gradientUnits="userSpaceOnUse">
<stop stop-color="#FF9900"/>
<stop offset="1" stop-color="#FFEE94"/>
</linearGradient>
<linearGradient id="paint1_linear_553_725" x1="188.321" y1="84.2345" x2="190.138" y2="60.0522" gradientUnits="userSpaceOnUse">
<stop stop-color="#6F7B00"/>
<stop offset="0.58" stop-color="#597314"/>
<stop offset="1" stop-color="#4F701E"/>
</linearGradient>
<linearGradient id="paint2_linear_553_725" x1="180.032" y1="83.2002" x2="181.436" y2="64.519" gradientUnits="userSpaceOnUse">
<stop stop-color="#6F7B00"/>
<stop offset="0.58" stop-color="#597314"/>
<stop offset="1" stop-color="#4F701E"/>
</linearGradient>
<linearGradient id="paint3_linear_553_725" x1="185.655" y1="56.6409" x2="219.127" y2="59.1554" gradientUnits="userSpaceOnUse">
<stop stop-color="#AEAD13"/>
<stop offset="0.4" stop-color="#899E20"/>
<stop offset="0.78" stop-color="#6D942B"/>
<stop offset="1" stop-color="#63902F"/>
</linearGradient>
<linearGradient id="paint4_linear_553_725" x1="164.45" y1="62.9469" x2="165.195" y2="53.0221" gradientUnits="userSpaceOnUse">
<stop stop-color="#6F7B00"/>
<stop offset="0.58" stop-color="#597314"/>
<stop offset="1" stop-color="#4F701E"/>
</linearGradient>
<linearGradient id="paint5_linear_553_725" x1="185.079" y1="158.464" x2="184.591" y2="61.8897" gradientUnits="userSpaceOnUse">
<stop stop-color="#B87251"/>
<stop offset="0.25" stop-color="#A76656"/>
<stop offset="0.72" stop-color="#8B535F"/>
<stop offset="1" stop-color="#814C63"/>
</linearGradient>
<linearGradient id="paint6_linear_553_725" x1="174.036" y1="53.687" x2="188.787" y2="54.7952" gradientUnits="userSpaceOnUse">
<stop stop-color="#AEAD13"/>
<stop offset="0.4" stop-color="#899E20"/>
<stop offset="0.78" stop-color="#6D942B"/>
<stop offset="1" stop-color="#63902F"/>
</linearGradient>
<linearGradient id="paint7_linear_553_725" x1="191.049" y1="84.4397" x2="192.639" y2="63.2745" gradientUnits="userSpaceOnUse">
<stop stop-color="#C0B3D4"/>
<stop offset="0.45" stop-color="#D1BECD"/>
<stop offset="0.99" stop-color="#E3CAC7"/>
</linearGradient>
<linearGradient id="paint8_linear_553_725" x1="145.076" y1="53.5924" x2="185.655" y2="56.6408" gradientUnits="userSpaceOnUse">
<stop stop-color="#AEAD13"/>
<stop offset="0.4" stop-color="#899E20"/>
<stop offset="0.78" stop-color="#6D942B"/>
<stop offset="1" stop-color="#63902F"/>
</linearGradient>
<linearGradient id="paint9_linear_553_725" x1="199.994" y1="82.4189" x2="201.69" y2="59.8528" gradientUnits="userSpaceOnUse">
<stop stop-color="#AEAD13"/>
<stop offset="0.4" stop-color="#899E20"/>
<stop offset="0.78" stop-color="#6D942B"/>
<stop offset="1" stop-color="#63902F"/>
</linearGradient>
<linearGradient id="paint10_linear_553_725" x1="201.747" y1="82.5511" x2="203.466" y2="59.6732" gradientUnits="userSpaceOnUse">
<stop stop-color="#C2BA13"/>
<stop offset="0.63" stop-color="#A6A627"/>
<stop offset="1" stop-color="#9C9F2F"/>
</linearGradient>
<linearGradient id="paint11_linear_553_725" x1="179.945" y1="84.9398" x2="182.404" y2="52.2052" gradientUnits="userSpaceOnUse">
<stop stop-color="#AEAD13"/>
<stop offset="0.4" stop-color="#899E20"/>
<stop offset="0.78" stop-color="#6D942B"/>
<stop offset="1" stop-color="#63902F"/>
</linearGradient>
<linearGradient id="paint12_linear_553_725" x1="175.824" y1="84.6301" x2="178.283" y2="51.9011" gradientUnits="userSpaceOnUse">
<stop stop-color="#C2BA13"/>
<stop offset="0.63" stop-color="#A6A627"/>
<stop offset="1" stop-color="#9C9F2F"/>
</linearGradient>
<linearGradient id="paint13_linear_553_725" x1="191.831" y1="71.5166" x2="217.006" y2="73.4079" gradientUnits="userSpaceOnUse">
<stop stop-color="#A4A22F"/>
<stop offset="0.25" stop-color="#AEA92A"/>
<stop offset="0.69" stop-color="#CABD1D"/>
<stop offset="1" stop-color="#E2CF13"/>
</linearGradient>
<linearGradient id="paint14_linear_553_725" x1="168.789" y1="69.4785" x2="186.648" y2="70.8201" gradientUnits="userSpaceOnUse">
<stop stop-color="#E2CF13"/>
<stop offset="0.31" stop-color="#CABD1D"/>
<stop offset="0.75" stop-color="#AEA92A"/>
<stop offset="1" stop-color="#A4A22F"/>
</linearGradient>
<linearGradient id="paint15_linear_553_725" x1="147.717" y1="52.6046" x2="177.106" y2="54.8124" gradientUnits="userSpaceOnUse">
<stop stop-color="#E2CF13"/>
<stop offset="0.31" stop-color="#CABD1D"/>
<stop offset="0.75" stop-color="#AEA92A"/>
<stop offset="1" stop-color="#A4A22F"/>
</linearGradient>
<linearGradient id="paint16_linear_553_725" x1="183.143" y1="53.4236" x2="188.542" y2="53.8292" gradientUnits="userSpaceOnUse">
<stop stop-color="#E2CF13"/>
<stop offset="0.31" stop-color="#CABD1D"/>
<stop offset="0.75" stop-color="#AEA92A"/>
<stop offset="1" stop-color="#A4A22F"/>
</linearGradient>
<linearGradient id="paint17_linear_553_725" x1="189.139" y1="56.5039" x2="219.157" y2="58.7589" gradientUnits="userSpaceOnUse">
<stop stop-color="#E2CF13"/>
<stop offset="0.31" stop-color="#CABD1D"/>
<stop offset="0.75" stop-color="#AEA92A"/>
<stop offset="1" stop-color="#A4A22F"/>
</linearGradient>
<linearGradient id="paint18_linear_553_725" x1="180.726" y1="70.9345" x2="181.355" y2="62.5524" gradientUnits="userSpaceOnUse">
<stop stop-color="#C0B3D4"/>
<stop offset="0.45" stop-color="#D1BECD"/>
<stop offset="0.99" stop-color="#E3CAC7"/>
</linearGradient>
<linearGradient id="paint19_linear_553_725" x1="204.059" y1="77.4769" x2="204.728" y2="68.5673" gradientUnits="userSpaceOnUse">
<stop stop-color="#C0B3D4"/>
<stop offset="0.45" stop-color="#D1BECD"/>
<stop offset="0.99" stop-color="#E3CAC7"/>
</linearGradient>
<linearGradient id="paint20_linear_553_725" x1="192.037" y1="66.9702" x2="192.646" y2="58.8603" gradientUnits="userSpaceOnUse">
<stop stop-color="#C0B3D4"/>
<stop offset="0.45" stop-color="#D1BECD"/>
<stop offset="0.99" stop-color="#E3CAC7"/>
</linearGradient>
<linearGradient id="paint21_linear_553_725" x1="207.067" y1="67.3295" x2="207.2" y2="65.5487" gradientUnits="userSpaceOnUse">
<stop stop-color="#C0B3D4"/>
<stop offset="0.45" stop-color="#D1BECD"/>
<stop offset="0.99" stop-color="#E3CAC7"/>
</linearGradient>
<linearGradient id="paint22_linear_553_725" x1="178.12" y1="60.9917" x2="178.536" y2="55.4452" gradientUnits="userSpaceOnUse">
<stop stop-color="#C0B3D4"/>
<stop offset="0.45" stop-color="#D1BECD"/>
<stop offset="0.99" stop-color="#E3CAC7"/>
</linearGradient>
<linearGradient id="paint23_linear_553_725" x1="165.016" y1="60.9309" x2="165.865" y2="49.6281" gradientUnits="userSpaceOnUse">
<stop stop-color="#C0B3D4"/>
<stop offset="0.45" stop-color="#D1BECD"/>
<stop offset="0.99" stop-color="#E3CAC7"/>
</linearGradient>
<linearGradient id="paint24_linear_553_725" x1="210.838" y1="61.607" x2="211.288" y2="55.6124" gradientUnits="userSpaceOnUse">
<stop stop-color="#C0B3D4"/>
<stop offset="0.45" stop-color="#D1BECD"/>
<stop offset="0.99" stop-color="#E3CAC7"/>
</linearGradient>
<linearGradient id="paint25_linear_553_725" x1="171.601" y1="72.0571" x2="172.278" y2="63.0341" gradientUnits="userSpaceOnUse">
<stop stop-color="#E2CF13"/>
<stop offset="0.62" stop-color="#C7BE27"/>
<stop offset="1" stop-color="#BDB82F"/>
</linearGradient>
<linearGradient id="paint26_linear_553_725" x1="209.938" y1="75.7068" x2="210.439" y2="69.043" gradientUnits="userSpaceOnUse">
<stop stop-color="#E2CF13"/>
<stop offset="0.62" stop-color="#C7BE27"/>
<stop offset="1" stop-color="#BDB82F"/>
</linearGradient>
<linearGradient id="paint27_linear_553_725" x1="159.974" y1="60.5121" x2="160.762" y2="50.0259" gradientUnits="userSpaceOnUse">
<stop stop-color="#AEB413"/>
<stop offset="0.53" stop-color="#A7A824"/>
<stop offset="1" stop-color="#A4A22F"/>
</linearGradient>
<linearGradient id="paint28_linear_553_725" x1="188.128" y1="113.962" x2="187.941" y2="76.9324" gradientUnits="userSpaceOnUse">
<stop stop-color="#EF9F3B"/>
<stop offset="0.28" stop-color="#E4963F"/>
<stop offset="0.75" stop-color="#C87F4A"/>
<stop offset="1" stop-color="#B87251"/>
</linearGradient>
<linearGradient id="paint29_linear_553_725" x1="188.571" y1="101.209" x2="188.5" y2="87.167" gradientUnits="userSpaceOnUse">
<stop stop-color="#DD9063"/>
<stop offset="0.65" stop-color="#DB8D58"/>
<stop offset="1" stop-color="#DB8B51"/>
</linearGradient>
<linearGradient id="paint30_linear_553_725" x1="148.244" y1="172.729" x2="199.903" y2="134.316" gradientUnits="userSpaceOnUse">
<stop stop-color="white"/>
<stop offset="1" stop-color="white" stop-opacity="0.58"/>
</linearGradient>
<linearGradient id="paint31_linear_553_725" x1="77.3932" y1="55.6786" x2="34.1112" y2="25.3793" gradientUnits="userSpaceOnUse">
<stop stop-color="white"/>
<stop offset="1" stop-color="white" stop-opacity="0.58"/>
</linearGradient>
<linearGradient id="paint32_linear_553_725" x1="25.4346" y1="169.36" x2="80.1329" y2="128.688" gradientUnits="userSpaceOnUse">
<stop stop-color="white"/>
<stop offset="1" stop-color="white" stop-opacity="0.58"/>
</linearGradient>
<linearGradient id="paint33_linear_553_725" x1="107.565" y1="179.36" x2="52.8671" y2="138.688" gradientUnits="userSpaceOnUse">
<stop stop-color="white"/>
<stop offset="1" stop-color="white" stop-opacity="0.58"/>
</linearGradient>
</defs>
</svg>
