<svg width="168" height="188" viewBox="0 0 168 188" fill="none" xmlns="http://www.w3.org/2000/svg">
<path d="M17.5 7C21.0899 7 24 4.08985 24 0.5C24 0.331764 23.9936 0.165021 23.9811 0H33.0189C33.0064 0.165021 33 0.331764 33 0.5C33 4.08985 35.9101 7 39.5 7C43.0899 7 46 4.08985 46 0.5C46 0.331764 45.9936 0.165021 45.9811 0H55.0189C55.0064 0.165021 55 0.331764 55 0.5C55 4.08985 57.9101 7 61.5 7C65.0899 7 68 4.08985 68 0.5C68 0.331764 67.9936 0.165021 67.9811 0H77.0189C77.0064 0.165021 77 0.331764 77 0.5C77 4.08985 79.9101 7 83.5 7C87.0899 7 90 4.08985 90 0.5C90 0.331764 89.9936 0.165021 89.9811 0H99.0189C99.0064 0.165021 99 0.331764 99 0.5C99 4.08985 101.91 7 105.5 7C109.09 7 112 4.08985 112 0.5C112 0.331764 111.994 0.165021 111.981 0H121.019C121.006 0.165021 121 0.331764 121 0.5C121 4.08985 123.91 7 127.5 7C131.09 7 134 4.08985 134 0.5C134 0.331764 133.994 0.165021 133.981 0H143.019C143.006 0.165021 143 0.331764 143 0.5C143 4.08985 145.91 7 149.5 7C153.09 7 156 4.08985 156 0.5C156 0.331764 155.994 0.165021 155.981 0H168V12.0189C167.835 12.0064 167.668 12 167.5 12C163.91 12 161 14.9101 161 18.5C161 22.0899 163.91 25 167.5 25C167.668 25 167.835 24.9936 168 24.9811V34.0189C167.835 34.0064 167.668 34 167.5 34C163.91 34 161 36.9101 161 40.5C161 44.0899 163.91 47 167.5 47C167.668 47 167.835 46.9936 168 46.9811V56.0189C167.835 56.0064 167.668 56 167.5 56C163.91 56 161 58.9101 161 62.5C161 66.0899 163.91 69 167.5 69C167.668 69 167.835 68.9936 168 68.9811V78.0189C167.835 78.0064 167.668 78 167.5 78C163.91 78 161 80.9101 161 84.5C161 88.0899 163.91 91 167.5 91C167.668 91 167.835 90.9936 168 90.9811V100.019C167.835 100.006 167.668 100 167.5 100C163.91 100 161 102.91 161 106.5C161 110.09 163.91 113 167.5 113C167.668 113 167.835 112.994 168 112.981V122.019C167.835 122.006 167.668 122 167.5 122C163.91 122 161 124.91 161 128.5C161 132.09 163.91 135 167.5 135C167.668 135 167.835 134.994 168 134.981V144.019C167.835 144.006 167.668 144 167.5 144C163.91 144 161 146.91 161 150.5C161 154.09 163.91 157 167.5 157C167.668 157 167.835 156.994 168 156.981V166.019C167.835 166.006 167.668 166 167.5 166C163.91 166 161 168.91 161 172.5C161 176.09 163.91 179 167.5 179C167.668 179 167.835 178.994 168 178.981V188H155.981C155.726 184.644 152.922 182 149.5 182C146.078 182 143.274 184.644 143.019 188H133.981C133.726 184.644 130.922 182 127.5 182C124.078 182 121.274 184.644 121.019 188H111.981C111.726 184.644 108.922 182 105.5 182C102.078 182 99.2743 184.644 99.0189 188H89.9811C89.7257 184.644 86.9216 182 83.5 182C80.0784 182 77.2743 184.644 77.0189 188H67.9811C67.7257 184.644 64.9216 182 61.5 182C58.0784 182 55.2743 184.644 55.0189 188H45.9811C45.7257 184.644 42.9216 182 39.5 182C36.0784 182 33.2743 184.644 33.0189 188H23.9811C23.7257 184.644 20.9216 182 17.5 182C14.0784 182 11.2743 184.644 11.0189 188H0V178.981C0.165021 178.994 0.331764 179 0.5 179C4.08985 179 7 176.09 7 172.5C7 168.91 4.08985 166 0.5 166C0.331764 166 0.165021 166.006 0 166.019V156.981C0.165021 156.994 0.331764 157 0.5 157C4.08985 157 7 154.09 7 150.5C7 146.91 4.08985 144 0.5 144C0.331764 144 0.165021 144.006 0 144.019V134.981C0.165021 134.994 0.331764 135 0.5 135C4.08985 135 7 132.09 7 128.5C7 124.91 4.08985 122 0.5 122C0.331764 122 0.165021 122.006 0 122.019V112.981C0.165021 112.994 0.331764 113 0.5 113C4.08985 113 7 110.09 7 106.5C7 102.91 4.08985 100 0.5 100C0.331764 100 0.165021 100.006 0 100.019V90.9811C0.165021 90.9936 0.331764 91 0.5 91C4.08985 91 7 88.0899 7 84.5C7 80.9101 4.08985 78 0.5 78C0.331764 78 0.165021 78.0064 0 78.0189V68.9811C0.165021 68.9936 0.331764 69 0.5 69C4.08985 69 7 66.0899 7 62.5C7 58.9101 4.08985 56 0.5 56C0.331764 56 0.165021 56.0064 0 56.0189V46.9811C0.165021 46.9936 0.331764 47 0.5 47C4.08985 47 7 44.0899 7 40.5C7 36.9101 4.08985 34 0.5 34C0.331764 34 0.165021 34.0064 0 34.0189V24.9811C0.165021 24.9936 0.331764 25 0.5 25C4.08985 25 7 22.0899 7 18.5C7 14.9101 4.08985 12 0.5 12C0.331764 12 0.165021 12.0064 0 12.0189V0H11.0189C11.0064 0.165021 11 0.331764 11 0.5C11 4.08985 13.9101 7 17.5 7Z" fill="white"/>
<rect x="14" y="16" width="140" height="156" rx="4" fill="#FFD4CE"/>
<path fill-rule="evenodd" clip-rule="evenodd" d="M68.931 66.0394C61.7368 58.7264 53.9799 51.6243 51.4023 52.0967C48.2901 52.6671 44.8932 67.3291 42.6567 79.0814C34.7219 86.3087 29.9319 95.6832 29.9319 105.927C29.9319 128.787 53.7862 147.318 83.212 147.318C112.638 147.318 136.492 128.787 136.492 105.927C136.492 95.5631 131.589 86.089 123.487 78.828C121.25 67.1195 117.88 52.663 114.79 52.0967C112.217 51.6252 104.484 58.6998 97.3014 65.9983C92.8135 65.0448 88.0893 64.5357 83.212 64.5357C78.2653 64.5357 73.4759 65.0594 68.931 66.0394Z" fill="white"/>
<g style="mix-blend-mode:multiply">
<path fill-rule="evenodd" clip-rule="evenodd" d="M52.5 123C72.6584 123 89 106.658 89 86.5C89 78.2619 86.2708 70.6612 81.6671 64.5528C77.2674 64.6501 73.0012 65.1618 68.931 66.0394C61.7368 58.7264 53.9799 51.6243 51.4023 52.0967C48.2901 52.6671 44.8932 67.3291 42.6567 79.0814C34.7219 86.3088 29.9319 95.6833 29.9319 105.927C29.9319 109.575 30.5395 113.114 31.6805 116.484C37.5855 120.592 44.7615 123 52.5 123Z" fill="#D4D4D4"/>
</g>
<path d="M129.684 110.246C136.01 107.984 137.107 107.605 143.881 106.398" stroke="#333333" stroke-width="1.76133" stroke-linecap="round" stroke-linejoin="round"/>
<path d="M128.68 123.015C135.263 124.752 138.006 125.913 144.875 126.546" stroke="#333333" stroke-width="1.76133" stroke-linecap="round" stroke-linejoin="round"/>
<path d="M129.48 116.826C135.531 117.183 137.541 116.469 143.583 115.712" stroke="#333333" stroke-width="1.76133" stroke-linecap="round" stroke-linejoin="round"/>
<path d="M36.3165 110.246C29.99 107.984 28.8935 107.605 22.119 106.398" stroke="#333333" stroke-width="1.76133" stroke-linecap="round" stroke-linejoin="round"/>
<path d="M37.32 123.015C30.7369 124.752 27.9939 125.913 21.1248 126.546" stroke="#333333" stroke-width="1.76133" stroke-linecap="round" stroke-linejoin="round"/>
<path d="M36.5197 116.826C30.469 117.183 28.4593 116.469 22.417 115.712" stroke="#333333" stroke-width="1.76133" stroke-linecap="round" stroke-linejoin="round"/>
<circle cx="60.6903" cy="100.69" r="10.6903" fill="white"/>
<circle cx="60.5" cy="100.5" r="8.5" fill="#333333"/>
<circle cx="56.5" cy="96.5" r="1.5" fill="white"/>
<circle cx="59.5" cy="100.5" r="2.5" fill="white"/>
<circle cx="107.69" cy="100.69" r="10.6903" fill="white"/>
<circle cx="107.5" cy="100.5" r="8.5" fill="#333333"/>
<circle cx="103.5" cy="96.5" r="1.5" fill="white"/>
<circle cx="106.5" cy="100.5" r="2.5" fill="white"/>
<path d="M83.6035 111.015V117.18C83.6035 119.125 82.0263 120.702 80.0808 120.702H78.98C77.6425 120.702 76.5582 119.618 76.5582 118.281V118.281" stroke="#323232" stroke-width="1.32099" stroke-linecap="round" stroke-linejoin="round"/>
<path d="M83.6035 111.015V117.18C83.6035 119.125 85.1806 120.702 87.1261 120.702H88.227C89.5645 120.702 90.6488 119.618 90.6488 118.281V118.281" stroke="#323232" stroke-width="1.32099" stroke-linecap="round" stroke-linejoin="round"/>
<path d="M88.0068 112.336C88.0068 114.038 86.0353 115.418 83.6035 115.418C81.1716 115.418 79.2001 114.038 79.2001 112.336C79.2001 110.634 81.1716 108.813 83.6035 108.813C86.0353 108.813 88.0068 110.634 88.0068 112.336Z" fill="#323232"/>
<path d="M46.9868 75.5758C48.287 69.1415 49.5457 64.8142 52.1521 58.159C52.3509 57.6513 52.9626 57.4463 53.4254 57.7344C58.4748 60.8776 61.2523 63.2855 65.082 67.4084C65.5256 67.8859 65.3064 68.6621 64.6805 68.8438C58.0554 70.767 53.9388 72.0465 48.46 76.4423C47.8055 76.9674 46.8206 76.3983 46.9868 75.5758Z" fill="#AAAAAA"/>
<path d="M118.319 74.9496C117.655 68.3536 117.024 64.432 114.284 57.682C114.08 57.1791 113.469 56.9834 113.011 57.2747C108.433 60.1866 105.82 62.3483 101.533 66.3567C101.035 66.8219 101.234 67.6521 101.887 67.8468C108.391 69.7877 111.469 71.1688 116.845 75.7092C117.456 76.2249 118.399 75.7448 118.319 74.9496Z" fill="#AAAAAA"/>
<ellipse cx="56" cy="116" rx="6" ry="2" fill="#FFC7C3"/>
<ellipse cx="112" cy="116" rx="6" ry="2" fill="#FFC7C3"/>
<path d="M102.797 65.4472C102.893 65.3328 102.985 65.2129 103.071 65.0876C104.55 62.9455 104.047 60.0335 101.947 58.5833C99.8468 57.1332 96.9453 57.6942 95.4662 59.8363C95.3226 60.0442 95.1976 60.2594 95.0911 60.4799C94.3604 58.8285 92.7304 57.682 90.846 57.6912C88.2969 57.7037 86.2477 59.8264 86.269 62.4325C86.2804 63.8218 86.8779 65.068 87.8196 65.927C87.633 65.9715 87.4469 66.0277 87.2623 66.0959C84.8177 66.9993 83.5586 69.6676 84.4501 72.0558C85.3415 74.444 88.0459 75.6477 90.4904 74.7444C90.6224 74.6956 90.7509 74.6417 90.8758 74.583C90.8651 74.7206 90.8602 74.8599 90.8614 75.0005C90.8827 77.6066 92.9664 79.7091 95.5156 79.6966C98.0647 79.6842 100.114 77.5614 100.093 74.9553C100.091 74.7239 100.072 74.4964 100.039 74.2741C101.095 74.6967 102.315 74.7429 103.476 74.3139C105.92 73.4106 107.179 70.7423 106.288 68.3541C105.706 66.7938 104.349 65.7391 102.797 65.4472Z" fill="#FFA787"/>
<g style="mix-blend-mode:multiply">
<circle cx="95.2914" cy="67.6056" r="2.83182" transform="rotate(34.6255 95.2914 67.6056)" fill="#FFA787" fill-opacity="0.5"/>
</g>
</svg>
