<svg width="168" height="188" viewBox="0 0 168 188" fill="none" xmlns="http://www.w3.org/2000/svg">
<path d="M17.5 7C21.0899 7 24 4.08985 24 0.5C24 0.331764 23.9936 0.165021 23.9811 0H33.0189C33.0064 0.165021 33 0.331764 33 0.5C33 4.08985 35.9101 7 39.5 7C43.0899 7 46 4.08985 46 0.5C46 0.331764 45.9936 0.165021 45.9811 0H55.0189C55.0064 0.165021 55 0.331764 55 0.5C55 4.08985 57.9101 7 61.5 7C65.0899 7 68 4.08985 68 0.5C68 0.331764 67.9936 0.165021 67.9811 0H77.0189C77.0064 0.165021 77 0.331764 77 0.5C77 4.08985 79.9101 7 83.5 7C87.0899 7 90 4.08985 90 0.5C90 0.331764 89.9936 0.165021 89.9811 0H99.0189C99.0064 0.165021 99 0.331764 99 0.5C99 4.08985 101.91 7 105.5 7C109.09 7 112 4.08985 112 0.5C112 0.331764 111.994 0.165021 111.981 0H121.019C121.006 0.165021 121 0.331764 121 0.5C121 4.08985 123.91 7 127.5 7C131.09 7 134 4.08985 134 0.5C134 0.331764 133.994 0.165021 133.981 0H143.019C143.006 0.165021 143 0.331764 143 0.5C143 4.08985 145.91 7 149.5 7C153.09 7 156 4.08985 156 0.5C156 0.331764 155.994 0.165021 155.981 0H168V12.0189C167.835 12.0064 167.668 12 167.5 12C163.91 12 161 14.9101 161 18.5C161 22.0899 163.91 25 167.5 25C167.668 25 167.835 24.9936 168 24.9811V34.0189C167.835 34.0064 167.668 34 167.5 34C163.91 34 161 36.9101 161 40.5C161 44.0899 163.91 47 167.5 47C167.668 47 167.835 46.9936 168 46.9811V56.0189C167.835 56.0064 167.668 56 167.5 56C163.91 56 161 58.9101 161 62.5C161 66.0899 163.91 69 167.5 69C167.668 69 167.835 68.9936 168 68.9811V78.0189C167.835 78.0064 167.668 78 167.5 78C163.91 78 161 80.9101 161 84.5C161 88.0899 163.91 91 167.5 91C167.668 91 167.835 90.9936 168 90.9811V100.019C167.835 100.006 167.668 100 167.5 100C163.91 100 161 102.91 161 106.5C161 110.09 163.91 113 167.5 113C167.668 113 167.835 112.994 168 112.981V122.019C167.835 122.006 167.668 122 167.5 122C163.91 122 161 124.91 161 128.5C161 132.09 163.91 135 167.5 135C167.668 135 167.835 134.994 168 134.981V144.019C167.835 144.006 167.668 144 167.5 144C163.91 144 161 146.91 161 150.5C161 154.09 163.91 157 167.5 157C167.668 157 167.835 156.994 168 156.981V166.019C167.835 166.006 167.668 166 167.5 166C163.91 166 161 168.91 161 172.5C161 176.09 163.91 179 167.5 179C167.668 179 167.835 178.994 168 178.981V188H155.981C155.726 184.644 152.922 182 149.5 182C146.078 182 143.274 184.644 143.019 188H133.981C133.726 184.644 130.922 182 127.5 182C124.078 182 121.274 184.644 121.019 188H111.981C111.726 184.644 108.922 182 105.5 182C102.078 182 99.2743 184.644 99.0189 188H89.9811C89.7257 184.644 86.9216 182 83.5 182C80.0784 182 77.2743 184.644 77.0189 188H67.9811C67.7257 184.644 64.9216 182 61.5 182C58.0784 182 55.2743 184.644 55.0189 188H45.9811C45.7257 184.644 42.9216 182 39.5 182C36.0784 182 33.2743 184.644 33.0189 188H23.9811C23.7257 184.644 20.9216 182 17.5 182C14.0784 182 11.2743 184.644 11.0189 188H0V178.981C0.165021 178.994 0.331764 179 0.5 179C4.08985 179 7 176.09 7 172.5C7 168.91 4.08985 166 0.5 166C0.331764 166 0.165021 166.006 0 166.019V156.981C0.165021 156.994 0.331764 157 0.5 157C4.08985 157 7 154.09 7 150.5C7 146.91 4.08985 144 0.5 144C0.331764 144 0.165021 144.006 0 144.019V134.981C0.165021 134.994 0.331764 135 0.5 135C4.08985 135 7 132.09 7 128.5C7 124.91 4.08985 122 0.5 122C0.331764 122 0.165021 122.006 0 122.019V112.981C0.165021 112.994 0.331764 113 0.5 113C4.08985 113 7 110.09 7 106.5C7 102.91 4.08985 100 0.5 100C0.331764 100 0.165021 100.006 0 100.019V90.9811C0.165021 90.9936 0.331764 91 0.5 91C4.08985 91 7 88.0899 7 84.5C7 80.9101 4.08985 78 0.5 78C0.331764 78 0.165021 78.0064 0 78.0189V68.9811C0.165021 68.9936 0.331764 69 0.5 69C4.08985 69 7 66.0899 7 62.5C7 58.9101 4.08985 56 0.5 56C0.331764 56 0.165021 56.0064 0 56.0189V46.9811C0.165021 46.9936 0.331764 47 0.5 47C4.08985 47 7 44.0899 7 40.5C7 36.9101 4.08985 34 0.5 34C0.331764 34 0.165021 34.0064 0 34.0189V24.9811C0.165021 24.9936 0.331764 25 0.5 25C4.08985 25 7 22.0899 7 18.5C7 14.9101 4.08985 12 0.5 12C0.331764 12 0.165021 12.0064 0 12.0189V0H11.0189C11.0064 0.165021 11 0.331764 11 0.5C11 4.08985 13.9101 7 17.5 7Z" fill="white"/>
<rect x="14" y="16" width="140" height="156" rx="4" fill="#FFEDB3"/>
<path d="M138 108C138 135.614 113.823 158 84 158C54.1766 158 30 135.614 30 108C30 80.3858 57.7431 58 84 58C110.257 58 138 80.3858 138 108Z" fill="#F0F0F0"/>
<path d="M84 46C53.6243 46 29 70.0665 29 99.7541V122.04C29 128.093 34.0205 133 40.2136 133C46.4067 133 51.4272 128.093 51.4272 122.04V112.982L51.4272 122.562C51.4272 128.327 56.2086 133 62.1068 133C68.005 133 72.7864 128.327 72.7864 122.562L72.7864 112.982V122.04C72.7864 128.093 77.8069 133 84 133C90.1832 133 95.1976 128.109 95.2136 122.069V122.562C95.2136 128.327 99.995 133 105.893 133C111.791 133 116.573 128.327 116.573 122.562L116.573 122.04C116.573 128.093 121.593 133 127.786 133C133.98 133 139 128.093 139 122.04V104.143C139 104.139 139 104.134 139 104.13V99.7541C139 70.0665 114.376 46 84 46Z" fill="#FCFCFC"/>
<circle cx="50" cy="93.8862" r="8" fill="#FFCEB9"/>
<circle cx="118" cy="93.8862" r="8" fill="#FFCEB9"/>
<circle cx="59.5" cy="84.5" r="7.5" fill="#525151"/>
<circle r="2.34375" transform="matrix(-1 0 0 1 62.7812 81.1145)" fill="white"/>
<circle r="1.40625" transform="matrix(-1 0 0 1 59.0313 84.8645)" fill="white"/>
<circle cx="109.5" cy="84.5" r="7.5" fill="#525151"/>
<circle r="2.34375" transform="matrix(-1 0 0 1 112.781 81.1145)" fill="white"/>
<circle r="1.40625" transform="matrix(-1 0 0 1 109.031 84.8645)" fill="white"/>
<path fill-rule="evenodd" clip-rule="evenodd" d="M84.746 106.549C83.0991 110.035 80.1096 112.302 77.3138 111.888C73.874 111.379 72.03 107.006 73.195 102.121C74.36 97.2363 78.0929 93.6889 81.5327 94.1979C82.8954 94.3995 84.0077 95.2076 84.7816 96.4136C85.5536 95.2428 86.6506 94.4595 87.9892 94.2615C91.4289 93.7525 95.1619 97.2999 96.3269 102.185C97.4919 107.07 95.6478 111.442 92.2081 111.951C89.3953 112.368 86.3864 110.071 84.746 106.549Z" fill="#ED653B"/>
<path d="M73.7559 94.4498C71.8082 92.8604 71.7922 89.8897 73.7225 88.2793L82.2965 81.1266C83.7746 79.8935 85.9213 79.8881 87.4056 81.1136L96.0685 88.2662C98.0198 89.8772 98.0037 92.8725 96.0352 94.4625L87.372 101.459C85.8999 102.649 83.7958 102.643 82.3297 101.447L73.7559 94.4498Z" fill="#FFD500"/>
<g style="mix-blend-mode:multiply">
<path fill-rule="evenodd" clip-rule="evenodd" d="M97.4553 92.0802C94.3116 93.8887 90.0449 95 85.3457 95C80.155 95 75.4921 93.6441 72.2873 91.4904C72.3255 92.5931 72.8156 93.6825 73.7559 94.4498L82.3297 101.447C83.7958 102.643 85.8999 102.649 87.3721 101.459L96.0352 94.4625C96.8163 93.8315 97.29 92.9793 97.4553 92.0802Z" fill="#FFD500" fill-opacity="0.5"/>
</g>
<path d="M87.0823 148.075C86.5369 148.307 85.9182 148.429 85.2884 148.429H83.6532C83.0234 148.429 82.4047 148.307 81.8593 148.075L68.4542 142.381C65.9422 141.314 62.8326 142.77 63.016 144.899C63.5164 150.709 63.5064 155.29 63.0077 161.1C62.8251 163.227 65.9313 164.679 68.4406 163.613L82.3831 157.691C82.9285 157.459 83.5472 157.337 84.177 157.337H84.7646C85.3944 157.337 86.0131 157.459 86.5585 157.691L100.569 163.642C103.065 164.702 106.158 163.271 105.994 161.154C105.541 155.303 105.52 150.705 105.977 144.857C106.142 142.735 103.043 141.296 100.541 142.358L87.0823 148.075Z" fill="#ED653B"/>
<g style="mix-blend-mode:multiply">
<path fill-rule="evenodd" clip-rule="evenodd" d="M63.3865 153C63.3842 155.597 63.257 158.195 63.0077 161.1C62.8251 163.227 65.9313 164.679 68.4406 163.613L82.3831 157.691C82.9285 157.459 83.5472 157.337 84.177 157.337H84.7646C85.3944 157.337 86.0131 157.459 86.5585 157.691L100.569 163.642C103.065 164.702 106.158 163.271 105.994 161.154C105.767 158.227 105.649 155.614 105.644 153H63.3865Z" fill="#ED653B" fill-opacity="0.45"/>
</g>
<path fill-rule="evenodd" clip-rule="evenodd" d="M84.3033 61.4854C80.5776 63.8728 75.5666 63.4379 72.3093 60.1805L63.4307 51.3019C59.6714 47.5426 59.6714 41.4475 63.4307 37.6881C66.6227 34.4962 71.4986 34.0144 75.1989 36.2429C76.0232 31.7637 79.9483 28.37 84.666 28.37C89.2568 28.37 93.097 31.5836 94.0599 35.884C97.6654 34.0791 102.168 34.6805 105.176 37.6881C108.935 41.4475 108.935 47.5426 105.176 51.3019L96.2973 60.1805C93.04 63.4379 88.029 63.8728 84.3033 61.4854Z" fill="#ED653B"/>
<g style="mix-blend-mode:multiply">
<path fill-rule="evenodd" clip-rule="evenodd" d="M107.541 47.4248C107.089 46.0067 106.301 44.6726 105.176 43.5477C102.168 40.54 97.6654 39.9386 94.0599 41.7436C93.097 37.4432 89.2568 34.2296 84.666 34.2296C79.9483 34.2296 76.0232 37.6232 75.1989 42.1025C71.4986 39.874 66.6227 40.3557 63.4307 43.5477C62.3058 44.6726 61.5175 46.0067 61.0658 47.4248C60.008 44.1039 60.7963 40.3225 63.4307 37.6881C66.6227 34.4961 71.4986 34.0144 75.1989 36.2429C76.0232 31.7636 79.9483 28.37 84.666 28.37C89.2568 28.37 93.097 31.5836 94.0599 35.884C97.6654 34.0791 102.168 34.6804 105.176 37.6881C107.81 40.3225 108.599 44.1039 107.541 47.4248Z" fill="#ED653B" fill-opacity="0.5"/>
</g>
</svg>
