<svg width="168" height="188" viewBox="0 0 168 188" fill="none" xmlns="http://www.w3.org/2000/svg">
<path d="M17.5 7C21.0899 7 24 4.08985 24 0.5C24 0.331764 23.9936 0.165021 23.9811 0H33.0189C33.0064 0.165021 33 0.331764 33 0.5C33 4.08985 35.9101 7 39.5 7C43.0899 7 46 4.08985 46 0.5C46 0.331764 45.9936 0.165021 45.9811 0H55.0189C55.0064 0.165021 55 0.331764 55 0.5C55 4.08985 57.9101 7 61.5 7C65.0899 7 68 4.08985 68 0.5C68 0.331764 67.9936 0.165021 67.9811 0H77.0189C77.0064 0.165021 77 0.331764 77 0.5C77 4.08985 79.9101 7 83.5 7C87.0899 7 90 4.08985 90 0.5C90 0.331764 89.9936 0.165021 89.9811 0H99.0189C99.0064 0.165021 99 0.331764 99 0.5C99 4.08985 101.91 7 105.5 7C109.09 7 112 4.08985 112 0.5C112 0.331764 111.994 0.165021 111.981 0H121.019C121.006 0.165021 121 0.331764 121 0.5C121 4.08985 123.91 7 127.5 7C131.09 7 134 4.08985 134 0.5C134 0.331764 133.994 0.165021 133.981 0H143.019C143.006 0.165021 143 0.331764 143 0.5C143 4.08985 145.91 7 149.5 7C153.09 7 156 4.08985 156 0.5C156 0.331764 155.994 0.165021 155.981 0H168V12.0189C167.835 12.0064 167.668 12 167.5 12C163.91 12 161 14.9101 161 18.5C161 22.0899 163.91 25 167.5 25C167.668 25 167.835 24.9936 168 24.9811V34.0189C167.835 34.0064 167.668 34 167.5 34C163.91 34 161 36.9101 161 40.5C161 44.0899 163.91 47 167.5 47C167.668 47 167.835 46.9936 168 46.9811V56.0189C167.835 56.0064 167.668 56 167.5 56C163.91 56 161 58.9101 161 62.5C161 66.0899 163.91 69 167.5 69C167.668 69 167.835 68.9936 168 68.9811V78.0189C167.835 78.0064 167.668 78 167.5 78C163.91 78 161 80.9101 161 84.5C161 88.0899 163.91 91 167.5 91C167.668 91 167.835 90.9936 168 90.9811V100.019C167.835 100.006 167.668 100 167.5 100C163.91 100 161 102.91 161 106.5C161 110.09 163.91 113 167.5 113C167.668 113 167.835 112.994 168 112.981V122.019C167.835 122.006 167.668 122 167.5 122C163.91 122 161 124.91 161 128.5C161 132.09 163.91 135 167.5 135C167.668 135 167.835 134.994 168 134.981V144.019C167.835 144.006 167.668 144 167.5 144C163.91 144 161 146.91 161 150.5C161 154.09 163.91 157 167.5 157C167.668 157 167.835 156.994 168 156.981V166.019C167.835 166.006 167.668 166 167.5 166C163.91 166 161 168.91 161 172.5C161 176.09 163.91 179 167.5 179C167.668 179 167.835 178.994 168 178.981V188H155.981C155.726 184.644 152.922 182 149.5 182C146.078 182 143.274 184.644 143.019 188H133.981C133.726 184.644 130.922 182 127.5 182C124.078 182 121.274 184.644 121.019 188H111.981C111.726 184.644 108.922 182 105.5 182C102.078 182 99.2743 184.644 99.0189 188H89.9811C89.7257 184.644 86.9216 182 83.5 182C80.0784 182 77.2743 184.644 77.0189 188H67.9811C67.7257 184.644 64.9216 182 61.5 182C58.0784 182 55.2743 184.644 55.0189 188H45.9811C45.7257 184.644 42.9216 182 39.5 182C36.0784 182 33.2743 184.644 33.0189 188H23.9811C23.7257 184.644 20.9216 182 17.5 182C14.0784 182 11.2743 184.644 11.0189 188H0V178.981C0.165021 178.994 0.331764 179 0.5 179C4.08985 179 7 176.09 7 172.5C7 168.91 4.08985 166 0.5 166C0.331764 166 0.165021 166.006 0 166.019V156.981C0.165021 156.994 0.331764 157 0.5 157C4.08985 157 7 154.09 7 150.5C7 146.91 4.08985 144 0.5 144C0.331764 144 0.165021 144.006 0 144.019V134.981C0.165021 134.994 0.331764 135 0.5 135C4.08985 135 7 132.09 7 128.5C7 124.91 4.08985 122 0.5 122C0.331764 122 0.165021 122.006 0 122.019V112.981C0.165021 112.994 0.331764 113 0.5 113C4.08985 113 7 110.09 7 106.5C7 102.91 4.08985 100 0.5 100C0.331764 100 0.165021 100.006 0 100.019V90.9811C0.165021 90.9936 0.331764 91 0.5 91C4.08985 91 7 88.0899 7 84.5C7 80.9101 4.08985 78 0.5 78C0.331764 78 0.165021 78.0064 0 78.0189V68.9811C0.165021 68.9936 0.331764 69 0.5 69C4.08985 69 7 66.0899 7 62.5C7 58.9101 4.08985 56 0.5 56C0.331764 56 0.165021 56.0064 0 56.0189V46.9811C0.165021 46.9936 0.331764 47 0.5 47C4.08985 47 7 44.0899 7 40.5C7 36.9101 4.08985 34 0.5 34C0.331764 34 0.165021 34.0064 0 34.0189V24.9811C0.165021 24.9936 0.331764 25 0.5 25C4.08985 25 7 22.0899 7 18.5C7 14.9101 4.08985 12 0.5 12C0.331764 12 0.165021 12.0064 0 12.0189V0H11.0189C11.0064 0.165021 11 0.331764 11 0.5C11 4.08985 13.9101 7 17.5 7Z" fill="white"/>
<rect x="14" y="16" width="140" height="156" rx="4" fill="#FFEBA8"/>
<path d="M111.943 40.3264C111.1 38.8859 109.013 39.1474 108.556 40.7527C105.782 50.495 105.726 55.7607 88.6776 59.4725L115.103 74.86C120.173 60.8627 118.672 51.8261 111.943 40.3264Z" fill="#56392B"/>
<path d="M55.5933 40.3264C56.4363 38.8859 58.5229 39.1474 58.9801 40.7527C61.7543 50.495 61.8104 55.7607 78.8588 59.4725L52.4335 74.86C47.363 60.8627 48.8642 51.8261 55.5933 40.3264Z" fill="#56392B"/>
<ellipse rx="17.4787" ry="10.329" transform="matrix(0.96549 -0.260439 0.269145 0.9631 44.6555 75.5)" fill="#525151"/>
<ellipse rx="17.4787" ry="10.329" transform="matrix(-0.96549 -0.260439 -0.269145 0.9631 122.655 75.5)" fill="#525151"/>
<rect x="42" y="48" width="85" height="105" rx="42.5" fill="white"/>
<path fill-rule="evenodd" clip-rule="evenodd" d="M63.7283 53.4132C60.4666 60.2289 57.87 68.4987 63.5 70C68.4668 71.3245 72.5564 66.9477 74.7525 63.84C75.3253 63.0294 76.8668 63.3141 77.0759 64.2843C78.0919 68.9994 80.6251 77.0648 86 76.5C90.1638 76.0624 92.436 70.9491 93.559 67.1442C93.858 66.1312 95.7276 65.9502 96.237 66.8755C98.0012 70.0796 101.036 73.8297 105 72C111 69.2308 107.814 59.9573 104.203 52.8334C98.3135 49.7463 91.6107 48 84.5 48C76.9555 48 69.8702 49.9658 63.7283 53.4132Z" fill="#525151"/>
<ellipse cx="55" cy="101.4" rx="4" ry="2.4" fill="#ED653B" fill-opacity="0.6"/>
<ellipse cx="114" cy="101.4" rx="4" ry="2.4" fill="#ED653B" fill-opacity="0.6"/>
<ellipse rx="8" ry="10" transform="matrix(-1 0 0 1 62 90)" fill="#525151"/>
<ellipse rx="3" ry="3.5" transform="matrix(-1 0 0 1 64 86.5)" fill="white"/>
<circle r="1.5" transform="matrix(-1 0 0 1 59.5 91.5)" fill="white"/>
<ellipse cx="107" cy="90" rx="8" ry="10" fill="#525151"/>
<ellipse cx="105" cy="86.5" rx="3" ry="3.5" fill="white"/>
<circle cx="109.5" cy="91.5" r="1.5" fill="white"/>
<ellipse cx="84" cy="128.5" rx="46" ry="27.5" fill="#FFCEB9"/>
<ellipse cx="64" cy="118.5" rx="3" ry="4.5" fill="#525151"/>
<ellipse cx="107" cy="118.5" rx="3" ry="4.5" fill="#525151"/>
<path d="M117.7 141.228C115.284 137.501 109.113 135.712 107.341 135.265C107.073 135.197 106.814 135.365 106.766 135.637C106.452 137.438 105.567 143.801 107.983 147.528C110.399 151.255 116.57 153.044 118.342 153.491C118.609 153.559 118.869 153.391 118.916 153.119C119.231 151.319 120.116 144.955 117.7 141.228Z" fill="#00B5AD"/>
<path d="M105.587 148.274C106.823 144.688 104.827 139.617 104.157 138.088C104.047 137.835 103.752 137.733 103.509 137.864C102.039 138.656 97.3412 141.419 96.1049 145.005C94.8685 148.591 96.865 153.663 97.5345 155.192C97.6452 155.444 97.94 155.546 98.183 155.415C99.6524 154.624 104.35 151.86 105.587 148.274Z" fill="#00B5AD"/>
<path d="M61 132C70 146.5 102 146.5 110.5 132" stroke="#525151" stroke-width="2.5" stroke-linecap="round" stroke-linejoin="round"/>
<path d="M84.4952 80.338C87.2855 67.4929 91.1195 62.4449 101.62 52" stroke="#00B5AD" stroke-width="1.24764" stroke-linecap="round"/>
<path d="M81.6436 84.5302C81.9908 82.0542 84.5897 79.5582 84.5897 79.5582C84.5897 79.5582 86.12 82.4601 85.7729 84.9361C85.4258 87.412 83.1248 90.0072 83.1248 90.0072C83.1248 90.0072 81.2965 87.0062 81.6436 84.5302Z" fill="#00B5AD"/>
<path d="M86.8058 77.785C85.8859 76.3414 85.836 74.1393 85.836 74.1393C85.836 74.1393 87.8286 75.1423 88.7485 76.5859C89.6684 78.0295 89.7182 80.2316 89.7182 80.2316C89.7182 80.2316 87.7257 79.2287 86.8058 77.785Z" fill="#00B5AD"/>
<path d="M82.1338 75.2663C83.7061 74.3372 86.0064 74.2206 86.0064 74.2206C86.0064 74.2206 84.8161 76.1666 83.2439 77.0957C81.6716 78.0248 79.3713 78.1414 79.3713 78.1414C79.3713 78.1414 80.5616 76.1953 82.1338 75.2663Z" fill="#00B5AD"/>
<path d="M89.17 71.8573C88.2501 70.4137 88.2003 68.2116 88.2003 68.2116C88.2003 68.2116 90.1928 69.2146 91.1127 70.6582C92.0327 72.1018 92.0825 74.3039 92.0825 74.3039C92.0825 74.3039 90.09 73.301 89.17 71.8573Z" fill="#00B5AD"/>
<path d="M84.3823 68.4568C86.1218 67.9067 88.3553 68.3235 88.3553 68.3235C88.3553 68.3235 86.7267 69.9617 84.9872 70.5118C83.2476 71.0619 81.0141 70.6451 81.0141 70.6451C81.0141 70.6451 82.6427 69.0069 84.3823 68.4568Z" fill="#00B5AD"/>
<path d="M92.2889 66.6665C91.4782 65.1602 91.587 62.9522 91.587 62.9522C91.587 62.9522 93.4956 64.0883 94.3062 65.5946C95.1169 67.1009 95.0081 69.3089 95.0081 69.3089C95.0081 69.3089 93.0995 68.1728 92.2889 66.6665Z" fill="#00B5AD"/>
<path d="M87.4618 62.9119C89.2146 62.4097 91.4313 62.8892 91.4313 62.8892C91.4313 62.8892 89.7563 64.4838 88.0034 64.9861C86.2506 65.4883 84.034 65.0088 84.034 65.0088C84.034 65.0088 85.709 63.4142 87.4618 62.9119Z" fill="#00B5AD"/>
<path d="M96.3288 61.1839C95.6566 59.6109 95.9581 57.4098 95.9581 57.4098C95.9581 57.4098 97.752 58.7011 98.4242 60.274C99.0964 61.847 98.7949 64.0481 98.7949 64.0481C98.7949 64.0481 97.001 62.7568 96.3288 61.1839Z" fill="#00B5AD"/>
<path d="M92.2371 57.3649C93.9899 56.8626 96.2065 57.3421 96.2065 57.3421C96.2065 57.3421 94.5315 58.9368 92.7787 59.439C91.0259 59.9413 88.8093 59.4618 88.8093 59.4618C88.8093 59.4618 90.4842 57.8672 92.2371 57.3649Z" fill="#00B5AD"/>
</svg>
