<svg width="168" height="188" viewBox="0 0 168 188" fill="none" xmlns="http://www.w3.org/2000/svg">
<path d="M17.5 7C21.0899 7 24 4.08985 24 0.5C24 0.331764 23.9936 0.165021 23.9811 0H33.0189C33.0064 0.165021 33 0.331764 33 0.5C33 4.08985 35.9101 7 39.5 7C43.0899 7 46 4.08985 46 0.5C46 0.331764 45.9936 0.165021 45.9811 0H55.0189C55.0064 0.165021 55 0.331764 55 0.5C55 4.08985 57.9101 7 61.5 7C65.0899 7 68 4.08985 68 0.5C68 0.331764 67.9936 0.165021 67.9811 0H77.0189C77.0064 0.165021 77 0.331764 77 0.5C77 4.08985 79.9101 7 83.5 7C87.0899 7 90 4.08985 90 0.5C90 0.331764 89.9936 0.165021 89.9811 0H99.0189C99.0064 0.165021 99 0.331764 99 0.5C99 4.08985 101.91 7 105.5 7C109.09 7 112 4.08985 112 0.5C112 0.331764 111.994 0.165021 111.981 0H121.019C121.006 0.165021 121 0.331764 121 0.5C121 4.08985 123.91 7 127.5 7C131.09 7 134 4.08985 134 0.5C134 0.331764 133.994 0.165021 133.981 0H143.019C143.006 0.165021 143 0.331764 143 0.5C143 4.08985 145.91 7 149.5 7C153.09 7 156 4.08985 156 0.5C156 0.331764 155.994 0.165021 155.981 0H168V12.0189C167.835 12.0064 167.668 12 167.5 12C163.91 12 161 14.9101 161 18.5C161 22.0899 163.91 25 167.5 25C167.668 25 167.835 24.9936 168 24.9811V34.0189C167.835 34.0064 167.668 34 167.5 34C163.91 34 161 36.9101 161 40.5C161 44.0899 163.91 47 167.5 47C167.668 47 167.835 46.9936 168 46.9811V56.0189C167.835 56.0064 167.668 56 167.5 56C163.91 56 161 58.9101 161 62.5C161 66.0899 163.91 69 167.5 69C167.668 69 167.835 68.9936 168 68.9811V78.0189C167.835 78.0064 167.668 78 167.5 78C163.91 78 161 80.9101 161 84.5C161 88.0899 163.91 91 167.5 91C167.668 91 167.835 90.9936 168 90.9811V100.019C167.835 100.006 167.668 100 167.5 100C163.91 100 161 102.91 161 106.5C161 110.09 163.91 113 167.5 113C167.668 113 167.835 112.994 168 112.981V122.019C167.835 122.006 167.668 122 167.5 122C163.91 122 161 124.91 161 128.5C161 132.09 163.91 135 167.5 135C167.668 135 167.835 134.994 168 134.981V144.019C167.835 144.006 167.668 144 167.5 144C163.91 144 161 146.91 161 150.5C161 154.09 163.91 157 167.5 157C167.668 157 167.835 156.994 168 156.981V166.019C167.835 166.006 167.668 166 167.5 166C163.91 166 161 168.91 161 172.5C161 176.09 163.91 179 167.5 179C167.668 179 167.835 178.994 168 178.981V188H155.981C155.726 184.644 152.922 182 149.5 182C146.078 182 143.274 184.644 143.019 188H133.981C133.726 184.644 130.922 182 127.5 182C124.078 182 121.274 184.644 121.019 188H111.981C111.726 184.644 108.922 182 105.5 182C102.078 182 99.2743 184.644 99.0189 188H89.9811C89.7257 184.644 86.9216 182 83.5 182C80.0784 182 77.2743 184.644 77.0189 188H67.9811C67.7257 184.644 64.9216 182 61.5 182C58.0784 182 55.2743 184.644 55.0189 188H45.9811C45.7257 184.644 42.9216 182 39.5 182C36.0784 182 33.2743 184.644 33.0189 188H23.9811C23.7257 184.644 20.9216 182 17.5 182C14.0784 182 11.2743 184.644 11.0189 188H0V178.981C0.165021 178.994 0.331764 179 0.5 179C4.08985 179 7 176.09 7 172.5C7 168.91 4.08985 166 0.5 166C0.331764 166 0.165021 166.006 0 166.019V156.981C0.165021 156.994 0.331764 157 0.5 157C4.08985 157 7 154.09 7 150.5C7 146.91 4.08985 144 0.5 144C0.331764 144 0.165021 144.006 0 144.019V134.981C0.165021 134.994 0.331764 135 0.5 135C4.08985 135 7 132.09 7 128.5C7 124.91 4.08985 122 0.5 122C0.331764 122 0.165021 122.006 0 122.019V112.981C0.165021 112.994 0.331764 113 0.5 113C4.08985 113 7 110.09 7 106.5C7 102.91 4.08985 100 0.5 100C0.331764 100 0.165021 100.006 0 100.019V90.9811C0.165021 90.9936 0.331764 91 0.5 91C4.08985 91 7 88.0899 7 84.5C7 80.9101 4.08985 78 0.5 78C0.331764 78 0.165021 78.0064 0 78.0189V68.9811C0.165021 68.9936 0.331764 69 0.5 69C4.08985 69 7 66.0899 7 62.5C7 58.9101 4.08985 56 0.5 56C0.331764 56 0.165021 56.0064 0 56.0189V46.9811C0.165021 46.9936 0.331764 47 0.5 47C4.08985 47 7 44.0899 7 40.5C7 36.9101 4.08985 34 0.5 34C0.331764 34 0.165021 34.0064 0 34.0189V24.9811C0.165021 24.9936 0.331764 25 0.5 25C4.08985 25 7 22.0899 7 18.5C7 14.9101 4.08985 12 0.5 12C0.331764 12 0.165021 12.0064 0 12.0189V0H11.0189C11.0064 0.165021 11 0.331764 11 0.5C11 4.08985 13.9101 7 17.5 7Z" fill="white"/>
<g clip-path="url(#clip0_43_87)">
<rect x="14" y="16" width="140" height="156" rx="4" fill="#FFECD5"/>
<path d="M40.9285 127.001C39.4847 124.995 39.8113 122.263 41.6288 120.588L84.6017 81L125.412 120.539C127.173 122.246 127.444 124.958 125.982 126.928C118.668 136.784 96.8676 164.5 83 164.5C69.1666 164.5 48.0691 136.92 40.9285 127.001Z" fill="#FF9E77"/>
<path fill-rule="evenodd" clip-rule="evenodd" d="M60.1589 136.431C60.4911 136.293 60.8868 136.349 61.2446 136.584C61.5733 136.8 61.8495 137.148 62.0222 137.565C62.195 137.981 62.2466 138.422 62.1675 138.808C62.0814 139.227 61.8415 139.546 61.5093 139.684C61.1771 139.822 60.7814 139.767 60.4236 139.531C60.0949 139.315 59.8187 138.967 59.646 138.551C59.4732 138.135 59.4216 137.693 59.5007 137.308C59.5868 136.889 59.8267 136.569 60.1589 136.431ZM63.9429 135.464C63.5851 135.229 63.1893 135.173 62.8571 135.311C62.5249 135.449 62.285 135.769 62.1989 136.188C62.1198 136.573 62.1714 137.015 62.3442 137.431C62.517 137.847 62.7931 138.195 63.1218 138.411C63.4796 138.646 63.8753 138.702 64.2075 138.564C64.5397 138.426 64.7796 138.107 64.8657 137.687C64.9448 137.302 64.8932 136.861 64.7205 136.445C64.5477 136.028 64.2715 135.68 63.9429 135.464ZM65.5318 139.467C64.6211 138.986 63.6869 138.901 62.9012 139.228C62.1155 139.554 61.5162 140.275 61.2137 141.26C60.9417 142.144 60.9606 143.109 61.2642 143.84C61.4117 144.196 61.6327 144.421 61.9209 144.511C62.2055 144.599 62.5094 144.543 62.8208 144.414C63.1521 144.276 63.492 144.056 63.826 143.84C64.1179 143.65 64.3935 143.472 64.6235 143.376C64.822 143.294 65.1234 143.23 65.4425 143.162C66.1882 143.003 67.0334 142.823 67.3303 142.258C67.4714 141.989 67.4692 141.675 67.3238 141.325C67.0202 140.594 66.3503 139.899 65.5318 139.467ZM67.2372 137.09C67.0214 136.823 66.7378 136.681 66.4387 136.691C66.198 136.7 65.9685 136.81 65.7924 137.003C65.5497 137.269 65.4243 137.663 65.4484 138.082C65.4681 138.425 65.5865 138.747 65.7817 138.989C65.9976 139.256 66.2811 139.398 66.5802 139.387C66.6838 139.384 66.7852 139.361 66.8812 139.322C67.0084 139.269 67.1262 139.185 67.2266 139.075C67.4693 138.809 67.5947 138.416 67.5705 137.997L67.5705 137.997C67.5508 137.654 67.4324 137.332 67.2372 137.09ZM59.2849 139.705C59.6446 139.721 60.0117 139.909 60.2918 140.223C60.5208 140.479 60.6652 140.79 60.6986 141.099C60.7355 141.44 60.6355 141.741 60.4171 141.946C60.3415 142.017 60.254 142.073 60.158 142.112C60.0307 142.165 59.8885 142.19 59.7397 142.183C59.38 142.167 59.013 141.979 58.7328 141.665L58.7328 141.665C58.5039 141.409 58.3594 141.098 58.3261 140.789C58.2892 140.447 58.3892 140.147 58.6076 139.942C58.7833 139.777 59.0239 139.693 59.2849 139.705Z" fill="white" fill-opacity="0.5"/>
<path fill-rule="evenodd" clip-rule="evenodd" d="M104.492 135.892C104.792 136.091 104.966 136.451 104.97 136.879C104.974 137.272 104.839 137.696 104.59 138.071C104.34 138.446 104.003 138.735 103.639 138.884C103.243 139.046 102.843 139.025 102.544 138.826C102.244 138.627 102.07 138.268 102.066 137.84C102.062 137.446 102.197 137.023 102.446 136.648C102.696 136.272 103.034 135.983 103.398 135.834C103.794 135.672 104.193 135.693 104.492 135.892ZM107.404 138.495C107.4 138.067 107.226 137.707 106.926 137.508C106.626 137.309 106.227 137.288 105.831 137.451C105.467 137.6 105.129 137.888 104.88 138.264C104.631 138.639 104.496 139.063 104.499 139.456C104.504 139.884 104.678 140.244 104.977 140.443C105.277 140.642 105.676 140.663 106.072 140.5C106.436 140.351 106.774 140.063 107.023 139.687C107.273 139.312 107.408 138.888 107.404 138.495ZM104.966 142.045C104.857 141.021 104.407 140.198 103.699 139.727C102.99 139.257 102.057 139.161 101.071 139.459C100.185 139.726 99.3944 140.279 98.9563 140.939C98.7435 141.259 98.6794 141.568 98.7657 141.858C98.8508 142.143 99.0669 142.364 99.3478 142.551C99.6466 142.749 100.019 142.909 100.385 143.065C100.704 143.202 101.006 143.332 101.214 143.47C101.393 143.588 101.614 143.803 101.848 144.03C102.396 144.561 103.016 145.162 103.651 145.094C103.953 145.061 104.212 144.884 104.422 144.569C104.86 143.909 105.063 142.966 104.966 142.045ZM107.89 142.136C107.992 141.808 107.951 141.494 107.776 141.251C107.635 141.056 107.415 140.927 107.157 140.889C106.801 140.835 106.404 140.95 106.069 141.204C105.795 141.412 105.594 141.689 105.502 141.986C105.401 142.314 105.441 142.629 105.616 142.871C105.677 142.955 105.752 143.027 105.839 143.085C105.953 143.161 106.088 143.212 106.236 143.234C106.592 143.287 106.988 143.172 107.323 142.919L107.323 142.919C107.597 142.711 107.798 142.433 107.89 142.136ZM101.287 136.991C101.475 137.298 101.522 137.708 101.418 138.115C101.333 138.448 101.155 138.742 100.917 138.941C100.654 139.162 100.349 139.247 100.057 139.18C99.9565 139.156 99.8612 139.115 99.7747 139.057C99.6599 138.981 99.5603 138.877 99.4828 138.749C99.2956 138.442 99.2479 138.032 99.3519 137.625L99.3519 137.625C99.4369 137.292 99.6148 136.999 99.8528 136.799C100.116 136.578 100.421 136.493 100.713 136.561C100.947 136.615 101.152 136.767 101.287 136.991Z" fill="white" fill-opacity="0.5"/>
<path fill-rule="evenodd" clip-rule="evenodd" d="M87.4489 143.8C87.1042 143.291 86.6107 143 86.0949 143C85.579 143 85.0856 143.291 84.7409 143.8C84.4243 144.266 84.25 144.879 84.25 145.526C84.25 146.172 84.4243 146.785 84.7409 147.252C85.0856 147.76 85.5791 148.051 86.0949 148.051C86.6108 148.051 87.1042 147.76 87.4489 147.252C87.7655 146.785 87.9398 146.172 87.9398 145.526C87.9398 144.879 87.7655 144.266 87.4489 143.8ZM87.3526 149.975C86.4106 148.838 85.22 148.212 84 148.212C82.78 148.212 81.5893 148.838 80.6475 149.975C79.8008 150.997 79.2954 152.286 79.2954 153.421C79.2954 153.973 79.464 154.393 79.7966 154.67C80.1249 154.944 80.5583 155.037 81.0419 155.036C81.5564 155.036 82.1277 154.932 82.6891 154.829C83.1796 154.739 83.6429 154.654 84 154.654C84.3082 154.654 84.7428 154.734 85.2028 154.82C86.2779 155.019 87.4964 155.246 88.2004 154.66C88.535 154.382 88.7047 153.965 88.7047 153.421C88.7047 152.286 88.1992 150.997 87.3526 149.975ZM81.9051 143C82.421 143 82.9145 143.291 83.2591 143.8C83.5757 144.266 83.75 144.879 83.7501 145.526C83.7501 146.172 83.5757 146.785 83.2591 147.252C82.9145 147.76 82.421 148.051 81.9051 148.051C81.3892 148.051 80.8958 147.76 80.5511 147.252C80.2345 146.785 80.0602 146.172 80.0602 145.526C80.0602 144.879 80.2345 144.266 80.5511 143.8C80.8957 143.291 81.3892 143 81.9051 143ZM90.9185 147.764C90.7796 147.291 90.4818 146.948 90.08 146.797C89.7567 146.676 89.3917 146.696 89.0523 146.855C88.5846 147.074 88.2023 147.526 88.0035 148.095C87.8411 148.56 87.8208 149.052 87.9465 149.479C88.0855 149.952 88.3833 150.295 88.7851 150.446C88.9241 150.498 89.0708 150.524 89.2199 150.524C89.4175 150.524 89.6193 150.479 89.8127 150.388C90.2805 150.169 90.6628 149.717 90.8615 149.148V149.148C91.024 148.683 91.0442 148.192 90.9185 147.764ZM78.9477 146.855C79.4154 147.074 79.7977 147.526 79.9965 148.095C80.1589 148.56 80.1792 149.052 80.0535 149.479C79.9146 149.952 79.6168 150.295 79.215 150.446C79.076 150.498 78.9292 150.524 78.7802 150.524C78.5826 150.524 78.3808 150.479 78.1873 150.388C77.7196 150.169 77.3373 149.717 77.1385 149.148V149.148C76.9761 148.683 76.9558 148.192 77.0815 147.764C77.2204 147.291 77.5182 146.948 77.92 146.797C78.2433 146.676 78.6083 146.696 78.9477 146.855Z" fill="white" fill-opacity="0.5"/>
<path fill-rule="evenodd" clip-rule="evenodd" d="M27.6104 35.5C37.2371 30.2741 52.3107 39.422 63.9254 48.7111C69.7329 46.041 76.0261 44.5 82.5 44.5C88.947 44.5 95.1845 46.0282 100.926 48.6778C112.535 39.4002 127.585 30.2803 137.2 35.5C150.245 42.5816 138.285 74.1126 131.35 89.7073C131.449 90.8076 131.5 91.9062 131.5 93C131.5 116.196 108.734 135 82.5 135C56.2665 135 33 116.196 33 93C33 91.7189 33.071 90.4313 33.2095 89.1419C26.2433 73.3631 14.7211 42.497 27.6104 35.5Z" fill="white"/>
<path fill-rule="evenodd" clip-rule="evenodd" d="M38.5381 111.987C63.1876 111.387 83 89.4607 83 62.5C83 56.1804 81.9114 50.1374 79.9272 44.5808C74.3607 44.9299 68.9605 46.3962 63.9254 48.7111C52.3107 39.422 37.2371 30.2741 27.6104 35.5C14.7211 42.497 26.2433 73.3631 33.2095 89.1419C33.071 90.4313 33 91.7189 33 93C33 99.833 35.019 106.285 38.5381 111.987Z" fill="#FED402"/>
<path fill-rule="evenodd" clip-rule="evenodd" d="M87.9722 44.8653C92.4735 45.4656 96.8263 46.7858 100.926 48.6778C112.535 39.4002 127.585 30.2803 137.2 35.5C150.245 42.5816 138.285 74.1126 131.35 89.7073C131.449 90.8076 131.5 91.9062 131.5 93C131.5 99.7507 129.572 106.129 126.191 111.781C103.083 109.419 85 88.257 85 62.5C85 56.2881 86.0518 50.3435 87.9722 44.8653Z" fill="#FED402"/>
<g style="mix-blend-mode:multiply">
<path d="M30.8924 43.2701C24.1905 47.611 30.7981 66.2549 34.0493 74.2908C34.6698 75.8244 36.7621 75.9053 37.6118 74.4858C42.6082 66.1388 47.8207 61.103 56.1626 53.8623C57.1126 53.0377 57.0814 51.5657 56.0558 50.8373C51.0814 47.3042 37.7993 38.7964 30.8924 43.2701Z" fill="#FED402" fill-opacity="0.5"/>
<path d="M134.108 43.2701C140.81 47.611 134.202 66.2549 130.951 74.2908C130.33 75.8244 128.238 75.9053 127.388 74.4858C122.392 66.1388 117.179 61.103 108.837 53.8623C107.887 53.0377 107.919 51.5657 108.944 50.8373C113.919 47.3042 127.201 38.7964 134.108 43.2701Z" fill="#FED402" fill-opacity="0.5"/>
</g>
<ellipse cx="62.5" cy="84" rx="5.5" ry="7" fill="#56392B"/>
<ellipse cx="64.5" cy="83" rx="1.5" ry="2" fill="white"/>
<ellipse rx="5.5" ry="7" transform="matrix(-1 0 0 1 104.5 84)" fill="#56392B"/>
<ellipse rx="1.5" ry="2" transform="matrix(-1 0 0 1 102.5 83)" fill="white"/>
<path d="M91 97.5C91 99.433 87.866 101 84 101C80.134 101 77 99.433 77 97.5C77 95.567 80.134 93 84 93C87.866 93 91 95.567 91 97.5Z" fill="#56392B"/>
<circle cx="87" cy="96" r="1" fill="white"/>
<path d="M84 96V102C84 104.209 82.2091 106 80 106H78.5C77.1193 106 76 104.881 76 103.5V103.5" stroke="#56392B" stroke-width="2" stroke-linecap="round" stroke-linejoin="round"/>
<path d="M84 96V102C84 104.209 85.7909 106 88 106H89.5C90.8807 106 92 104.881 92 103.5V103.5" stroke="#56392B" stroke-width="2" stroke-linecap="round" stroke-linejoin="round"/>
<ellipse cx="58" cy="98" rx="8" ry="5" fill="#FEB1AA"/>
<ellipse cx="110" cy="98" rx="8" ry="5" fill="#FEB1AA"/>
</g>
<defs>
<clipPath id="clip0_43_87">
<rect x="14" y="16" width="140" height="156" rx="4" fill="white"/>
</clipPath>
</defs>
</svg>
