<svg width="168" height="188" viewBox="0 0 168 188" fill="none" xmlns="http://www.w3.org/2000/svg">
<path d="M17.5 7C21.0899 7 24 4.08985 24 0.5C24 0.331764 23.9936 0.165021 23.9811 0H33.0189C33.0064 0.165021 33 0.331764 33 0.5C33 4.08985 35.9101 7 39.5 7C43.0899 7 46 4.08985 46 0.5C46 0.331764 45.9936 0.165021 45.9811 0H55.0189C55.0064 0.165021 55 0.331764 55 0.5C55 4.08985 57.9101 7 61.5 7C65.0899 7 68 4.08985 68 0.5C68 0.331764 67.9936 0.165021 67.9811 0H77.0189C77.0064 0.165021 77 0.331764 77 0.5C77 4.08985 79.9101 7 83.5 7C87.0899 7 90 4.08985 90 0.5C90 0.331764 89.9936 0.165021 89.9811 0H99.0189C99.0064 0.165021 99 0.331764 99 0.5C99 4.08985 101.91 7 105.5 7C109.09 7 112 4.08985 112 0.5C112 0.331764 111.994 0.165021 111.981 0H121.019C121.006 0.165021 121 0.331764 121 0.5C121 4.08985 123.91 7 127.5 7C131.09 7 134 4.08985 134 0.5C134 0.331764 133.994 0.165021 133.981 0H143.019C143.006 0.165021 143 0.331764 143 0.5C143 4.08985 145.91 7 149.5 7C153.09 7 156 4.08985 156 0.5C156 0.331764 155.994 0.165021 155.981 0H168V12.0189C167.835 12.0064 167.668 12 167.5 12C163.91 12 161 14.9101 161 18.5C161 22.0899 163.91 25 167.5 25C167.668 25 167.835 24.9936 168 24.9811V34.0189C167.835 34.0064 167.668 34 167.5 34C163.91 34 161 36.9101 161 40.5C161 44.0899 163.91 47 167.5 47C167.668 47 167.835 46.9936 168 46.9811V56.0189C167.835 56.0064 167.668 56 167.5 56C163.91 56 161 58.9101 161 62.5C161 66.0899 163.91 69 167.5 69C167.668 69 167.835 68.9936 168 68.9811V78.0189C167.835 78.0064 167.668 78 167.5 78C163.91 78 161 80.9101 161 84.5C161 88.0899 163.91 91 167.5 91C167.668 91 167.835 90.9936 168 90.9811V100.019C167.835 100.006 167.668 100 167.5 100C163.91 100 161 102.91 161 106.5C161 110.09 163.91 113 167.5 113C167.668 113 167.835 112.994 168 112.981V122.019C167.835 122.006 167.668 122 167.5 122C163.91 122 161 124.91 161 128.5C161 132.09 163.91 135 167.5 135C167.668 135 167.835 134.994 168 134.981V144.019C167.835 144.006 167.668 144 167.5 144C163.91 144 161 146.91 161 150.5C161 154.09 163.91 157 167.5 157C167.668 157 167.835 156.994 168 156.981V166.019C167.835 166.006 167.668 166 167.5 166C163.91 166 161 168.91 161 172.5C161 176.09 163.91 179 167.5 179C167.668 179 167.835 178.994 168 178.981V188H155.981C155.726 184.644 152.922 182 149.5 182C146.078 182 143.274 184.644 143.019 188H133.981C133.726 184.644 130.922 182 127.5 182C124.078 182 121.274 184.644 121.019 188H111.981C111.726 184.644 108.922 182 105.5 182C102.078 182 99.2743 184.644 99.0189 188H89.9811C89.7257 184.644 86.9216 182 83.5 182C80.0784 182 77.2743 184.644 77.0189 188H67.9811C67.7257 184.644 64.9216 182 61.5 182C58.0784 182 55.2743 184.644 55.0189 188H45.9811C45.7257 184.644 42.9216 182 39.5 182C36.0784 182 33.2743 184.644 33.0189 188H23.9811C23.7257 184.644 20.9216 182 17.5 182C14.0784 182 11.2743 184.644 11.0189 188H0V178.981C0.165021 178.994 0.331764 179 0.5 179C4.08985 179 7 176.09 7 172.5C7 168.91 4.08985 166 0.5 166C0.331764 166 0.165021 166.006 0 166.019V156.981C0.165021 156.994 0.331764 157 0.5 157C4.08985 157 7 154.09 7 150.5C7 146.91 4.08985 144 0.5 144C0.331764 144 0.165021 144.006 0 144.019V134.981C0.165021 134.994 0.331764 135 0.5 135C4.08985 135 7 132.09 7 128.5C7 124.91 4.08985 122 0.5 122C0.331764 122 0.165021 122.006 0 122.019V112.981C0.165021 112.994 0.331764 113 0.5 113C4.08985 113 7 110.09 7 106.5C7 102.91 4.08985 100 0.5 100C0.331764 100 0.165021 100.006 0 100.019V90.9811C0.165021 90.9936 0.331764 91 0.5 91C4.08985 91 7 88.0899 7 84.5C7 80.9101 4.08985 78 0.5 78C0.331764 78 0.165021 78.0064 0 78.0189V68.9811C0.165021 68.9936 0.331764 69 0.5 69C4.08985 69 7 66.0899 7 62.5C7 58.9101 4.08985 56 0.5 56C0.331764 56 0.165021 56.0064 0 56.0189V46.9811C0.165021 46.9936 0.331764 47 0.5 47C4.08985 47 7 44.0899 7 40.5C7 36.9101 4.08985 34 0.5 34C0.331764 34 0.165021 34.0064 0 34.0189V24.9811C0.165021 24.9936 0.331764 25 0.5 25C4.08985 25 7 22.0899 7 18.5C7 14.9101 4.08985 12 0.5 12C0.331764 12 0.165021 12.0064 0 12.0189V0H11.0189C11.0064 0.165021 11 0.331764 11 0.5C11 4.08985 13.9101 7 17.5 7Z" fill="white"/>
<rect x="14" y="16" width="140" height="156" rx="4" fill="#EBEBEB"/>
<path d="M81.7968 32.0612C81.7653 29.866 82.9275 28.0482 84.3926 28.0009C85.8578 27.9537 87.0712 29.6949 87.1027 31.8901L87.1475 35.0053L87.8522 32.1045C88.3534 30.0412 89.8761 28.9774 91.2533 29.7284C92.6304 30.4793 93.3405 32.7607 92.8392 34.824L90.4191 44.7862C89.9178 46.8495 88.3951 47.9133 87.0179 47.1623C86.577 46.9219 86.2045 46.5246 85.9182 46.0278C85.5464 46.3466 85.1176 46.5347 84.6591 46.5495C84.2835 46.5616 83.9244 46.4561 83.5975 46.2556C83.3529 47.3769 82.7793 48.3244 81.9821 48.7592C80.6049 49.5101 79.0822 48.4463 78.5809 46.383L76.1608 36.4208C75.6595 34.3575 76.3696 32.0761 77.7467 31.3252C79.1239 30.5742 80.6466 31.638 81.1478 33.7013L81.8626 36.6437L81.7968 32.0612Z" fill="#FAFAFA"/>
<path d="M31 111C31 140.271 54.7289 164 84 164V164C113.271 164 137 140.271 137 111V97H31V111Z" fill="#A97337"/>
<g style="mix-blend-mode:multiply">
<path fill-rule="evenodd" clip-rule="evenodd" d="M77.5605 144.126C77.5605 144.657 77.4203 145.182 77.1479 145.672C76.8755 146.163 76.4763 146.608 75.973 146.983C75.4697 147.359 74.8722 147.656 74.2146 147.859C73.557 148.062 72.8522 148.167 72.1405 148.167C71.4287 148.167 70.7239 148.062 70.0663 147.859C69.4087 147.656 68.8112 147.359 68.3079 146.983C67.8046 146.608 67.4054 146.163 67.133 145.672C66.8607 145.182 66.7205 144.657 66.7205 144.126L72.1405 144.126H77.5605ZM88.4005 144.134C88.3992 144.662 88.259 145.185 87.988 145.672C87.7156 146.163 87.3164 146.608 86.8131 146.983C86.3098 147.359 85.7123 147.656 85.0547 147.859C84.3971 148.062 83.6923 148.167 82.9805 148.167C82.2688 148.167 81.564 148.062 80.9064 147.859C80.2488 147.656 79.6513 147.359 79.148 146.983C78.6447 146.608 78.2455 146.163 77.9731 145.672C77.7007 145.182 77.5605 144.657 77.5605 144.126L82.9805 144.126L88.4005 144.126L88.4005 144.126H93.8205H99.2405C99.2405 144.657 99.1003 145.182 98.828 145.672C98.5556 146.163 98.1564 146.608 97.6531 146.983C97.1498 147.359 96.5523 147.656 95.8947 147.859C95.2371 148.062 94.5323 148.167 93.8205 148.167C93.1088 148.167 92.404 148.062 91.7464 147.859C91.0888 147.656 90.4913 147.359 89.988 146.983C89.4847 146.608 89.0855 146.163 88.8131 145.672C88.5421 145.185 88.4019 144.662 88.4005 144.134Z" fill="#4B2807" fill-opacity="0.5"/>
</g>
<g style="mix-blend-mode:multiply">
<path fill-rule="evenodd" clip-rule="evenodd" d="M77.5605 135.236C77.5605 135.749 77.4203 136.257 77.1479 136.731C76.8755 137.205 76.4763 137.635 75.973 137.998C75.4697 138.361 74.8722 138.648 74.2146 138.845C73.557 139.041 72.8522 139.142 72.1405 139.142C71.4287 139.142 70.7239 139.041 70.0663 138.845C69.4087 138.648 68.8112 138.361 68.3079 137.998C67.8046 137.635 67.4054 137.205 67.133 136.731C66.8607 136.257 66.7205 135.749 66.7205 135.236L72.1405 135.236H77.5605ZM88.4005 135.244C88.3992 135.754 88.259 136.259 87.988 136.731C87.7156 137.205 87.3164 137.635 86.8131 137.998C86.3098 138.361 85.7123 138.648 85.0547 138.845C84.3971 139.041 83.6923 139.142 82.9805 139.142C82.2688 139.142 81.564 139.041 80.9064 138.845C80.2488 138.648 79.6513 138.361 79.148 137.998C78.6447 137.635 78.2455 137.205 77.9731 136.731C77.7007 136.257 77.5605 135.749 77.5605 135.236L82.9805 135.236L88.4005 135.236L88.4005 135.236H93.8205H99.2405C99.2405 135.749 99.1003 136.257 98.828 136.731C98.5556 137.205 98.1564 137.635 97.6531 137.998C97.1498 138.361 96.5523 138.648 95.8947 138.845C95.2371 139.041 94.5323 139.142 93.8205 139.142C93.1088 139.142 92.404 139.041 91.7464 138.845C91.0888 138.648 90.4913 138.361 89.988 137.998C89.4847 137.635 89.0855 137.205 88.8131 136.731C88.5421 136.259 88.4019 135.754 88.4005 135.244Z" fill="#4B2807" fill-opacity="0.5"/>
</g>
<g style="mix-blend-mode:multiply">
<path fill-rule="evenodd" clip-rule="evenodd" d="M76.8378 153.016V153.016L83.5225 153.016H90.2072C90.2072 154.338 89.5029 155.606 88.2493 156.54C86.9956 157.475 85.2954 158 83.5225 158C81.7496 158 80.0493 157.475 78.7957 156.54C77.544 155.607 76.8399 154.342 76.8378 153.022C76.8368 153.675 76.6639 154.32 76.329 154.923C75.993 155.528 75.5006 156.077 74.8799 156.54C74.2592 157.003 73.5223 157.37 72.7112 157.621C71.9002 157.871 71.031 158 70.1531 158C69.2753 158 68.406 157.871 67.595 157.621C66.784 157.37 66.0471 157.003 65.4263 156.54C64.8056 156.077 64.3132 155.528 63.9773 154.923C63.6413 154.319 63.4684 153.671 63.4684 153.016L70.1531 153.016H76.8378ZM103.068 154.923C103.404 154.319 103.577 153.671 103.577 153.016H96.8919L90.2072 153.016C90.2072 153.671 90.3801 154.319 90.716 154.923C91.052 155.528 91.5443 156.077 92.1651 156.54C92.7858 157.003 93.5227 157.37 94.3337 157.621C95.1448 157.871 96.014 158 96.8919 158C97.7697 158 98.639 157.871 99.45 157.621C100.261 157.37 100.998 157.003 101.619 156.54C102.239 156.077 102.732 155.528 103.068 154.923Z" fill="#4B2807" fill-opacity="0.5"/>
</g>
<path fill-rule="evenodd" clip-rule="evenodd" d="M47.1519 97H31V111C31 131.914 43.1141 149.999 60.7084 158.621C65.9817 151.865 69.1982 142.872 69.1982 133C69.1982 116.28 59.9714 102.082 47.1519 97ZM119.893 97H137V111C137 132.188 124.567 150.471 106.6 158.954C101.17 152.162 97.8469 143.035 97.8469 133C97.8469 116.28 107.074 102.082 119.893 97Z" fill="#62401A"/>
<path d="M83.5 41.9417C52.8371 41.9417 27.8791 64.8783 27.0227 93.477C27.0076 93.7035 27 93.9319 27 94.1619V119.332C27 125.306 32.1574 130.149 38.5194 130.149C44.8814 130.149 50.0388 125.306 50.0388 119.332V109.853L50.0388 119.847C50.0388 125.536 54.9507 130.149 61.0097 130.149C67.0688 130.149 71.9806 125.536 71.9806 119.847L71.9806 109.853V119.332C71.9806 125.306 77.138 130.149 83.5 130.149C89.862 130.149 95.0194 125.306 95.0194 119.332L95.0194 119.847C95.0194 125.536 99.9313 130.149 105.99 130.149C112.049 130.149 116.961 125.536 116.961 119.847V119.354C116.974 125.318 122.126 130.149 128.481 130.149C134.843 130.149 140 125.306 140 119.332V94.1619C140 93.9319 139.992 93.7035 139.977 93.477C139.121 64.8783 114.163 41.9417 83.5 41.9417Z" fill="#DBDBDB"/>
<path fill-rule="evenodd" clip-rule="evenodd" d="M83.5 37.1619C52.2959 37.1619 27 62.4578 27 93.6619V96.5194V105.074V113.85C27 120.212 32.1574 125.369 38.5194 125.369C44.8814 125.369 50.0388 120.212 50.0388 113.85V105.074L50.0389 114.398C50.0389 120.457 54.9507 125.369 61.0097 125.369C67.0688 125.369 71.9806 120.457 71.9806 114.398L71.9806 105.074V113.85C71.9806 120.212 77.138 125.369 83.5 125.369C89.852 125.369 95.0033 120.228 95.0194 113.88V114.398C95.0194 120.457 99.9312 125.369 105.99 125.369C112.049 125.369 116.961 120.457 116.961 114.398L116.961 113.85C116.961 120.212 122.119 125.369 128.481 125.369C134.843 125.369 140 120.212 140 113.85V105.074V96.5194V93.6619C140 62.4578 114.704 37.1619 83.5 37.1619Z" fill="#FAFAFA"/>
<path d="M86.0418 123.97C85.6106 124.16 85.1214 124.26 84.6234 124.26H83.3304C82.8325 124.26 82.3432 124.16 81.912 123.97L71.3126 119.312C69.3264 118.439 66.8676 119.63 67.0127 121.372C67.4083 126.125 67.4004 129.873 67.0061 134.627C66.8617 136.368 69.3178 137.555 71.3019 136.683L82.3262 131.838C82.7574 131.648 83.2466 131.549 83.7446 131.549H84.2092C84.7072 131.549 85.1964 131.648 85.6276 131.838L96.7058 136.707C98.6793 137.574 101.125 136.404 100.995 134.672C100.637 129.884 100.62 126.122 100.981 121.337C101.112 119.601 98.6615 118.424 96.6836 119.293L86.0418 123.97Z" fill="#FFCEB9"/>
<path d="M70.025 97.3895C68.0017 95.6857 68.1598 92.5223 70.3428 91.0286L82.6109 82.6346C84.0366 81.6592 85.9273 81.7091 87.2995 82.7584L98.2579 91.1384C100.218 92.6376 100.367 95.5371 98.5696 97.2286L87.5936 107.559C86.1151 108.95 83.8287 109.014 82.2756 107.706L70.025 97.3895Z" fill="#FFD500"/>
<ellipse cx="78.5" cy="95.3636" rx="1.5" ry="1.36364" fill="#512E0C"/>
<ellipse cx="90.2412" cy="95.3636" rx="1.5" ry="1.36364" fill="#512E0C"/>
<circle cx="58" cy="80" r="12" fill="#FFD500"/>
<circle cx="58" cy="80" r="8" fill="#323232"/>
<circle cx="61" cy="77.6666" r="3" fill="white"/>
<circle cx="56" cy="83.3334" r="2" fill="white"/>
<circle cx="110" cy="80" r="12" fill="#FFD500"/>
<circle cx="110" cy="80" r="8" fill="#323232"/>
<circle cx="113" cy="77.6666" r="3" fill="white"/>
<circle cx="108" cy="83.3334" r="2" fill="white"/>
<ellipse cx="50" cy="97.9091" rx="6" ry="4" fill="#FFCEB9"/>
<ellipse cx="118" cy="97.9091" rx="6" ry="4" fill="#FFCEB9"/>
<path d="M121.577 55.9395L122.646 51.5529C122.964 50.2468 121.916 49 120.5 49C119.084 49 118.036 50.2468 118.354 51.5529L119.423 55.9395L119.945 58.1802L121.219 58.1019L121.577 55.9395Z" fill="#FFE591"/>
<path d="M122.669 59.0119L127.303 60.0237C128.683 60.325 130 59.333 130 57.9926C130 56.6522 128.683 55.6602 127.303 55.9614L122.669 56.9732L120.412 57.4123V58.4218L122.669 59.0119Z" fill="#FFE591"/>
<path d="M118.331 59.0119L113.697 60.0238C112.317 60.3251 111 59.333 111 57.9926C111 56.6522 112.317 55.6603 113.697 55.9615L118.331 56.9733L119.849 57.3204L120.138 58.6205L118.331 59.0119Z" fill="#FFE591"/>
<path d="M119.199 55.0197L117.207 52.0028C116.456 50.8662 114.784 50.686 113.782 51.6338C112.781 52.5816 112.972 54.1647 114.172 54.8752L117.359 56.7612L119.614 58.1802L120.5 57.3043L119.199 55.0197Z" fill="#FFE591"/>
<path d="M123.641 56.7612L126.828 54.8752C128.028 54.1647 128.219 52.5817 127.218 51.6339C126.216 50.6861 124.544 50.8663 123.793 52.0029L121.801 55.0197L120.139 57.5462L120.979 58.6571L123.641 56.7612Z" fill="#FFE591"/>
<path d="M123.641 59.2241L126.828 61.11C128.028 61.8205 128.219 63.4036 127.218 64.3514C126.216 65.2992 124.544 65.119 123.793 63.9824L121.801 60.9655L120.237 58.9596L121.51 57.8474L123.641 59.2241Z" fill="#FFE591"/>
<path d="M119.199 60.9656L117.207 63.9824C116.456 65.119 114.784 65.2992 113.782 64.3514C112.781 63.4037 112.972 61.8206 114.172 61.1101L117.359 59.2241L120.138 57.6175L120.851 58.1837L119.199 60.9656Z" fill="#FFE591"/>
<path d="M121.72 60.1711L122.772 64.4878C123.085 65.773 122.054 67 120.66 67C119.267 67 118.236 65.773 118.549 64.4878L119.601 60.1711L120.005 57.8321L121.031 57.726L121.72 60.1711Z" fill="#FFE591"/>
<path d="M120.5 60.1103C121.736 60.1103 122.737 59.1623 122.737 57.9929C122.737 56.8236 121.736 55.8756 120.5 55.8756C119.265 55.8756 118.263 56.8236 118.263 57.9929C118.263 59.1623 119.265 60.1103 120.5 60.1103Z" fill="#FFD500"/>
<g style="mix-blend-mode:multiply">
<path fill-rule="evenodd" clip-rule="evenodd" d="M119.934 60.0418C120.115 60.0865 120.305 60.1103 120.5 60.1103C121.736 60.1103 122.737 59.1623 122.737 57.9929C122.737 56.8236 121.736 55.8756 120.5 55.8756C120.372 55.8756 120.246 55.8859 120.123 55.9056C121.084 56.1429 121.794 56.9703 121.794 57.9545C121.794 59.0021 120.99 59.8721 119.934 60.0418Z" fill="#FED402" fill-opacity="0.5"/>
</g>
<path d="M106.349 40.2527L107.698 34.4039C108.1 32.6624 106.777 31 104.99 31C103.203 31 101.88 32.6624 102.282 34.4039L103.631 40.2527L104.29 43.2403L105.898 43.1358L106.349 40.2527Z" fill="#FFE591"/>
<path d="M107.728 44.3492L113.577 45.6982C115.318 46.1 116.98 44.7773 116.98 42.9901C116.98 41.2029 115.318 39.8803 113.577 40.2819L107.728 41.631L104.879 42.2164V43.5623L107.728 44.3492Z" fill="#FFE591"/>
<path d="M102.253 44.3492L96.4039 45.6983C94.6624 46.1001 93 44.7774 93 42.9902C93 41.203 94.6624 39.8804 96.4039 40.282L102.253 41.6311L104.168 42.0939L104.534 43.8274L102.253 44.3492Z" fill="#FFE591"/>
<path d="M103.348 39.0262L100.834 35.0038C99.8863 33.4883 97.7756 33.248 96.5118 34.5117C95.2481 35.7755 95.4884 37.8862 97.0038 38.8336L101.026 41.3483L103.872 43.2403L104.99 42.0724L103.348 39.0262Z" fill="#FFE591"/>
<path d="M108.954 41.3483L112.977 38.8337C114.492 37.8863 114.732 35.7756 113.469 34.5118C112.205 33.2481 110.094 33.4884 109.147 35.0038L106.632 39.0263L104.534 42.3949L105.595 43.8762L108.954 41.3483Z" fill="#FFE591"/>
<path d="M108.954 44.6321L112.977 47.1467C114.492 48.094 114.732 50.2048 113.469 51.4685C112.205 52.7322 110.094 52.4919 109.147 50.9765L106.632 46.954L104.658 44.2794L106.265 42.7966L108.954 44.6321Z" fill="#FFE591"/>
<path d="M103.348 46.9541L100.834 50.9766C99.8863 52.492 97.7756 52.7323 96.5118 51.4686C95.2481 50.2049 95.4884 48.0941 97.0038 47.1468L101.026 44.6322L104.534 42.4899L105.434 43.2449L103.348 46.9541Z" fill="#FFE591"/>
<path d="M106.53 45.8949L107.858 51.6504C108.253 53.364 106.951 55 105.193 55C103.434 55 102.132 53.364 102.528 51.6504L103.855 45.8949L104.366 42.7761L105.66 42.6347L106.53 45.8949Z" fill="#FFE591"/>
<path d="M104.991 45.8137C106.55 45.8137 107.814 44.5498 107.814 42.9906C107.814 41.4314 106.55 40.1675 104.991 40.1675C103.431 40.1675 102.167 41.4314 102.167 42.9906C102.167 44.5498 103.431 45.8137 104.991 45.8137Z" fill="#FFD500"/>
<g style="mix-blend-mode:multiply">
<path fill-rule="evenodd" clip-rule="evenodd" d="M104.276 45.7224C104.504 45.782 104.744 45.8137 104.991 45.8137C106.55 45.8137 107.814 44.5498 107.814 42.9906C107.814 41.4314 106.55 40.1675 104.991 40.1675C104.828 40.1675 104.669 40.1812 104.515 40.2074C105.728 40.5239 106.623 41.6271 106.623 42.9393C106.623 44.3362 105.608 45.4962 104.276 45.7224Z" fill="#FED402" fill-opacity="0.5"/>
</g>
<path d="M74.4643 81.7857C74.4643 94.1805 63.9475 104.321 50.8571 104.321C37.7668 104.321 27.25 94.1805 27.25 81.7857C27.25 69.3909 37.7668 59.25 50.8571 59.25C63.9475 59.25 74.4643 69.3909 74.4643 81.7857Z" stroke="#323232" stroke-width="2.5"/>
<path d="M140.75 81.7857C140.75 94.1805 130.233 104.321 117.143 104.321C104.053 104.321 93.5357 94.1805 93.5357 81.7857C93.5357 69.3909 104.053 59.25 117.143 59.25C130.233 59.25 140.75 69.3909 140.75 81.7857Z" stroke="#323232" stroke-width="2.5"/>
<path d="M74.6095 80.0382C81.6834 78.8335 85.8348 78.8552 93.3905 80.0382V84.4285C86.1753 83.3306 82.0612 83.3151 74.6095 84.4285V80.0382Z" fill="#242424"/>
</svg>
