<svg width="168" height="188" viewBox="0 0 168 188" fill="none" xmlns="http://www.w3.org/2000/svg">
<path d="M17.5 7C21.0899 7 24 4.08985 24 0.5C24 0.331764 23.9936 0.165021 23.9811 0H33.0189C33.0064 0.165021 33 0.331764 33 0.5C33 4.08985 35.9101 7 39.5 7C43.0899 7 46 4.08985 46 0.5C46 0.331764 45.9936 0.165021 45.9811 0H55.0189C55.0064 0.165021 55 0.331764 55 0.5C55 4.08985 57.9101 7 61.5 7C65.0899 7 68 4.08985 68 0.5C68 0.331764 67.9936 0.165021 67.9811 0H77.0189C77.0064 0.165021 77 0.331764 77 0.5C77 4.08985 79.9101 7 83.5 7C87.0899 7 90 4.08985 90 0.5C90 0.331764 89.9936 0.165021 89.9811 0H99.0189C99.0064 0.165021 99 0.331764 99 0.5C99 4.08985 101.91 7 105.5 7C109.09 7 112 4.08985 112 0.5C112 0.331764 111.994 0.165021 111.981 0H121.019C121.006 0.165021 121 0.331764 121 0.5C121 4.08985 123.91 7 127.5 7C131.09 7 134 4.08985 134 0.5C134 0.331764 133.994 0.165021 133.981 0H143.019C143.006 0.165021 143 0.331764 143 0.5C143 4.08985 145.91 7 149.5 7C153.09 7 156 4.08985 156 0.5C156 0.331764 155.994 0.165021 155.981 0H168V12.0189C167.835 12.0064 167.668 12 167.5 12C163.91 12 161 14.9101 161 18.5C161 22.0899 163.91 25 167.5 25C167.668 25 167.835 24.9936 168 24.9811V34.0189C167.835 34.0064 167.668 34 167.5 34C163.91 34 161 36.9101 161 40.5C161 44.0899 163.91 47 167.5 47C167.668 47 167.835 46.9936 168 46.9811V56.0189C167.835 56.0064 167.668 56 167.5 56C163.91 56 161 58.9101 161 62.5C161 66.0899 163.91 69 167.5 69C167.668 69 167.835 68.9936 168 68.9811V78.0189C167.835 78.0064 167.668 78 167.5 78C163.91 78 161 80.9101 161 84.5C161 88.0899 163.91 91 167.5 91C167.668 91 167.835 90.9936 168 90.9811V100.019C167.835 100.006 167.668 100 167.5 100C163.91 100 161 102.91 161 106.5C161 110.09 163.91 113 167.5 113C167.668 113 167.835 112.994 168 112.981V122.019C167.835 122.006 167.668 122 167.5 122C163.91 122 161 124.91 161 128.5C161 132.09 163.91 135 167.5 135C167.668 135 167.835 134.994 168 134.981V144.019C167.835 144.006 167.668 144 167.5 144C163.91 144 161 146.91 161 150.5C161 154.09 163.91 157 167.5 157C167.668 157 167.835 156.994 168 156.981V166.019C167.835 166.006 167.668 166 167.5 166C163.91 166 161 168.91 161 172.5C161 176.09 163.91 179 167.5 179C167.668 179 167.835 178.994 168 178.981V188H155.981C155.726 184.644 152.922 182 149.5 182C146.078 182 143.274 184.644 143.019 188H133.981C133.726 184.644 130.922 182 127.5 182C124.078 182 121.274 184.644 121.019 188H111.981C111.726 184.644 108.922 182 105.5 182C102.078 182 99.2743 184.644 99.0189 188H89.9811C89.7257 184.644 86.9216 182 83.5 182C80.0784 182 77.2743 184.644 77.0189 188H67.9811C67.7257 184.644 64.9216 182 61.5 182C58.0784 182 55.2743 184.644 55.0189 188H45.9811C45.7257 184.644 42.9216 182 39.5 182C36.0784 182 33.2743 184.644 33.0189 188H23.9811C23.7257 184.644 20.9216 182 17.5 182C14.0784 182 11.2743 184.644 11.0189 188H0V178.981C0.165021 178.994 0.331764 179 0.5 179C4.08985 179 7 176.09 7 172.5C7 168.91 4.08985 166 0.5 166C0.331764 166 0.165021 166.006 0 166.019V156.981C0.165021 156.994 0.331764 157 0.5 157C4.08985 157 7 154.09 7 150.5C7 146.91 4.08985 144 0.5 144C0.331764 144 0.165021 144.006 0 144.019V134.981C0.165021 134.994 0.331764 135 0.5 135C4.08985 135 7 132.09 7 128.5C7 124.91 4.08985 122 0.5 122C0.331764 122 0.165021 122.006 0 122.019V112.981C0.165021 112.994 0.331764 113 0.5 113C4.08985 113 7 110.09 7 106.5C7 102.91 4.08985 100 0.5 100C0.331764 100 0.165021 100.006 0 100.019V90.9811C0.165021 90.9936 0.331764 91 0.5 91C4.08985 91 7 88.0899 7 84.5C7 80.9101 4.08985 78 0.5 78C0.331764 78 0.165021 78.0064 0 78.0189V68.9811C0.165021 68.9936 0.331764 69 0.5 69C4.08985 69 7 66.0899 7 62.5C7 58.9101 4.08985 56 0.5 56C0.331764 56 0.165021 56.0064 0 56.0189V46.9811C0.165021 46.9936 0.331764 47 0.5 47C4.08985 47 7 44.0899 7 40.5C7 36.9101 4.08985 34 0.5 34C0.331764 34 0.165021 34.0064 0 34.0189V24.9811C0.165021 24.9936 0.331764 25 0.5 25C4.08985 25 7 22.0899 7 18.5C7 14.9101 4.08985 12 0.5 12C0.331764 12 0.165021 12.0064 0 12.0189V0H11.0189C11.0064 0.165021 11 0.331764 11 0.5C11 4.08985 13.9101 7 17.5 7Z" fill="white"/>
<rect x="14" y="16" width="140" height="156" rx="4" fill="#FFEBA8"/>
<path fill-rule="evenodd" clip-rule="evenodd" d="M72.7254 103.193C79.6416 97.3052 84 88.7124 84 79.1429C84 61.3908 69.0015 47 50.5 47C31.9985 47 17 61.3908 17 79.1429C17 83.7729 18.0203 88.1744 19.8569 92.1514C18.6578 94.6114 18 97.2867 18 100.084C18 112.188 30.3122 122 45.5 122C59.3635 122 70.8309 113.825 72.7254 103.193Z" fill="#D9DEE5"/>
<path d="M75.7351 101.701C82.0319 96.5978 86 89.1507 86 80.8571C86 65.4721 72.3447 53 55.5 53C38.6553 53 25 65.4721 25 80.8571C25 84.8699 25.9289 88.6845 27.6011 92.1313C26.5094 94.2632 25.9104 96.5818 25.9104 99.0065C25.9104 109.496 37.12 118 50.9478 118C63.5697 118 74.0102 110.915 75.7351 101.701Z" fill="#FFDED0"/>
<path fill-rule="evenodd" clip-rule="evenodd" d="M95.2746 103.193C88.3584 97.3052 84 88.7124 84 79.1429C84 61.3908 98.9985 47 117.5 47C136.002 47 151 61.3908 151 79.1429C151 83.7729 149.98 88.1744 148.143 92.1514C149.342 94.6114 150 97.2867 150 100.084C150 112.188 137.688 122 122.5 122C108.637 122 97.1691 113.825 95.2746 103.193Z" fill="#D9DEE5"/>
<path d="M93.2649 101.701C86.9681 96.5978 83 89.1507 83 80.8571C83 65.4721 96.6553 53 113.5 53C130.345 53 144 65.4721 144 80.8571C144 84.8699 143.071 88.6845 141.399 92.1313C142.491 94.2632 143.09 96.5818 143.09 99.0065C143.09 109.496 131.88 118 118.052 118C105.43 118 94.9898 110.915 93.2649 101.701Z" fill="#FFDED0"/>
<path d="M124.488 128.883C99.543 130.32 91.2227 132.068 66.7713 141.53" stroke="#56392B" stroke-width="3.94968" stroke-linecap="round"/>
<path d="M59.943 136.029C64.8925 137.523 68.2614 139.962 67.4971 141.7C66.7328 143.437 61.989 143.931 57.0395 142.437C52.09 140.944 47.7736 136.964 47.8966 136.685C48.0196 136.405 54.9935 134.535 59.943 136.029Z" fill="#34876F"/>
<g style="mix-blend-mode:multiply">
<path fill-rule="evenodd" clip-rule="evenodd" d="M67.6052 141.186C60.8953 139.164 55.3206 138 48.5244 136.812C55.1151 138.205 60.3581 139.868 66.9126 141.946C67.0309 141.983 67.1495 142.021 67.2687 142.059C67.3649 141.946 67.4415 141.826 67.4971 141.7C67.5698 141.534 67.6051 141.362 67.6052 141.186Z" fill="#34876F" fill-opacity="0.5"/>
</g>
<path d="M64.6128 150.574C67.9581 146.735 69.4463 142.923 67.8384 141.856C66.2305 140.789 61.9561 142.844 58.6108 146.683C55.2655 150.522 53.8321 156.126 54.0909 156.298C54.3497 156.47 61.2675 154.413 64.6128 150.574Z" fill="#34876F"/>
<g style="mix-blend-mode:multiply">
<path fill-rule="evenodd" clip-rule="evenodd" d="M68.2147 142.233C63.6775 147.434 59.6222 151.321 54.5503 155.864C59.3351 151.255 62.8345 147.121 67.2092 141.953C67.2882 141.86 67.3673 141.766 67.4468 141.673C67.5906 141.718 67.7216 141.779 67.8385 141.856C67.9916 141.958 68.1167 142.084 68.2147 142.233Z" fill="#34876F" fill-opacity="0.5"/>
</g>
<path d="M75.0358 130.942C79.4719 132.662 82.3828 135.143 81.5475 136.689C80.7122 138.236 76.3133 138.361 71.8771 136.641C67.4409 134.921 63.7766 130.957 63.911 130.708C64.0454 130.459 70.5996 129.222 75.0358 130.942Z" fill="#34876F"/>
<g style="mix-blend-mode:multiply">
<path fill-rule="evenodd" clip-rule="evenodd" d="M81.6862 136.223C75.6719 133.895 70.6358 132.435 64.4786 130.868C70.4312 132.61 75.1243 134.505 80.9914 136.875C81.0973 136.918 81.2036 136.961 81.3103 137.004C81.4073 136.906 81.4868 136.802 81.5476 136.689C81.6271 136.542 81.6727 136.386 81.6862 136.223Z" fill="#34876F" fill-opacity="0.5"/>
</g>
<path d="M79.5434 144.743C82.41 141.036 83.5661 137.448 82.0234 136.549C80.4808 135.65 76.6568 137.763 73.7902 141.47C70.9236 145.177 69.9195 150.412 70.1678 150.557C70.4161 150.702 76.6768 148.451 79.5434 144.743Z" fill="#34876F"/>
<g style="mix-blend-mode:multiply">
<path fill-rule="evenodd" clip-rule="evenodd" d="M82.3917 136.877C78.5034 141.9 74.985 145.688 70.5666 150.134C74.7166 145.642 77.7085 141.655 81.4489 136.671C81.5164 136.581 81.5841 136.491 81.6521 136.4C81.7871 136.434 81.9114 136.484 82.0235 136.549C82.1704 136.635 82.2929 136.745 82.3917 136.877Z" fill="#34876F" fill-opacity="0.5"/>
</g>
<path d="M90.5113 125.389C94.8379 127.915 97.4348 130.99 96.2852 132.475C95.1357 133.959 90.5177 133.372 86.1912 130.845C81.8646 128.319 78.7461 123.566 78.9312 123.327C79.1162 123.088 86.1847 122.862 90.5113 125.389Z" fill="#34876F"/>
<g style="mix-blend-mode:multiply">
<path fill-rule="evenodd" clip-rule="evenodd" d="M96.5134 132.009C90.6471 128.587 85.6473 126.235 79.4953 123.588C85.4023 126.385 89.9658 129.138 95.671 132.579C95.7739 132.641 95.8772 132.703 95.9809 132.765C96.0997 132.679 96.2016 132.582 96.2852 132.474C96.3947 132.333 96.4702 132.177 96.5134 132.009Z" fill="#34876F" fill-opacity="0.5"/>
</g>
<path d="M106.8 122.803C111.126 125.329 113.723 128.404 112.574 129.889C111.424 131.373 106.806 130.786 102.48 128.259C98.1531 125.733 95.0346 120.98 95.2196 120.741C95.4046 120.502 102.473 120.276 106.8 122.803Z" fill="#34876F"/>
<g style="mix-blend-mode:multiply">
<path fill-rule="evenodd" clip-rule="evenodd" d="M112.802 129.423C106.936 126.001 101.936 123.649 95.7838 121.002C101.691 123.799 106.254 126.552 111.959 129.993C112.062 130.055 112.166 130.117 112.269 130.18C112.388 130.093 112.49 129.996 112.574 129.889C112.683 129.747 112.759 129.591 112.802 129.423Z" fill="#34876F" fill-opacity="0.5"/>
</g>
<path d="M93.1389 140.658C96.1781 136.727 97.4039 132.924 95.7683 131.97C94.1327 131.017 90.0784 133.257 87.0391 137.188C83.9999 141.118 82.9353 146.668 83.1986 146.822C83.4618 146.975 90.0996 144.589 93.1389 140.658Z" fill="#34876F"/>
<g style="mix-blend-mode:multiply">
<path fill-rule="evenodd" clip-rule="evenodd" d="M96.1585 132.318C92.0361 137.644 88.3058 141.66 83.6213 146.373C88.0212 141.611 91.1934 137.384 95.159 132.099C95.2305 132.004 95.3023 131.908 95.3743 131.812C95.5175 131.849 95.6493 131.901 95.7682 131.97C95.924 132.061 96.0538 132.178 96.1585 132.318Z" fill="#34876F" fill-opacity="0.5"/>
</g>
<path d="M109.427 138.072C112.467 134.141 113.692 130.338 112.057 129.384C110.421 128.431 106.367 130.671 103.328 134.602C100.288 138.532 99.2237 144.082 99.487 144.236C99.7502 144.389 106.388 142.002 109.427 138.072Z" fill="#34876F"/>
<g style="mix-blend-mode:multiply">
<path fill-rule="evenodd" clip-rule="evenodd" d="M112.447 129.732C108.325 135.058 104.594 139.074 99.9097 143.787C104.31 139.025 107.482 134.798 111.447 129.513C111.519 129.418 111.591 129.322 111.663 129.226C111.806 129.263 111.938 129.315 112.057 129.384C112.212 129.475 112.342 129.592 112.447 129.732Z" fill="#34876F" fill-opacity="0.5"/>
</g>
<path fill-rule="evenodd" clip-rule="evenodd" d="M103.716 129.682C101.745 128.643 102.572 126.127 104.703 125.479C123.85 119.659 125 104.403 125 86.5C125 63.5802 106.644 45 84 45C61.3563 45 43 63.5802 43 86.5C43 106.661 44.4586 123.464 71.4326 127.217C72.6821 127.391 73.7184 128.299 74.084 129.506C79.9393 148.839 97.299 148.349 115.452 147.837C116.033 147.821 116.615 147.804 117.198 147.788C118.135 147.763 118.833 146.892 118.56 145.995C118.283 145.082 118.013 144.496 117.779 143.989C117.344 143.045 117.036 142.376 117.042 140.379C117.048 138.464 117.35 137.813 117.772 136.905C117.861 136.714 117.955 136.512 118.052 136.285C118.755 134.645 117.445 132.95 115.673 132.733C110.284 132.073 106.447 131.123 103.716 129.682Z" fill="#D9DEE5"/>
<path fill-rule="evenodd" clip-rule="evenodd" d="M112.12 132.344C113.077 132.508 114.094 132.657 115.176 132.795C112.175 135.962 110.12 138.704 109.047 142.188C108.842 142.851 108.158 143.189 107.518 142.941C106.878 142.693 106.524 141.954 106.729 141.291C107.789 137.848 109.67 135.102 112.12 132.344ZM103.845 129.9C104.605 130.288 105.45 130.64 106.387 130.959C103.588 133.631 102.466 135.851 101.081 139.315C100.824 139.959 100.114 140.24 99.4958 139.941C98.8778 139.643 98.5857 138.878 98.8434 138.233C100.171 134.911 101.348 132.518 103.845 129.9ZM98.5013 124.186C98.8363 125.024 99.2443 125.787 99.7411 126.485C96.2345 129.567 94.7985 131.42 93.3316 135.09C93.0739 135.735 92.364 136.016 91.746 135.717C91.1281 135.418 90.836 134.654 91.0937 134.009C92.7785 129.793 94.5228 127.642 98.3785 124.28C98.418 124.246 98.459 124.214 98.5013 124.186Z" fill="#B7BFCD"/>
<path d="M72.0343 108C69.6782 150.816 93.0941 148.47 117.195 147.791C118.133 147.765 118.835 146.889 118.545 145.996C117.756 143.563 117.032 143.952 117.041 140.928C117.05 137.903 117.813 137.696 118.611 134.839C118.851 133.978 118.213 133.136 117.324 133.044C96.9651 130.937 97.023 126.021 97.5 108" stroke="#B4BCCB" stroke-width="1.5" stroke-linecap="round"/>
<path d="M97.0248 150.389C99.0384 148.204 98.9085 143.63 98.9085 143.63C98.9085 143.63 94.3078 143.905 92.2941 146.09C90.2804 148.274 90.4104 152.849 90.4104 152.849C90.4104 152.849 95.0111 152.574 97.0248 150.389Z" fill="#34876F"/>
<path d="M109.342 152.327C107.465 149.705 102.485 148.833 102.485 148.833C102.485 148.833 101.673 153.784 103.55 156.406C105.427 159.029 110.407 159.9 110.407 159.9C110.407 159.9 111.219 154.949 109.342 152.327Z" fill="#34876F"/>
<ellipse cx="63.5528" cy="99.2341" rx="4.55279" ry="5.23413" fill="#323232"/>
<ellipse cx="64.9148" cy="97.3162" rx="1.20503" ry="1.06567" fill="white"/>
<ellipse rx="4.55279" ry="5.23413" transform="matrix(-1 0 0 1 106.658 99.2341)" fill="#323232"/>
<ellipse rx="1.20503" ry="1.06567" transform="matrix(-1 0 0 1 108.593 97.3162)" fill="white"/>
<ellipse cx="59.0975" cy="108.289" rx="4.09751" ry="2.64342" fill="#FFC4AA"/>
<ellipse cx="110.136" cy="108.289" rx="4.09751" ry="2.64342" fill="#FFC4AA"/>
<ellipse rx="1.93269" ry="1.78352" transform="matrix(-0.993902 0.110268 0.117654 0.993055 97.2614 35.9986)" fill="#FFC547"/>
<ellipse rx="1.93269" ry="1.78352" transform="matrix(-0.993902 0.110268 0.117654 0.993055 85.7371 30.1706)" fill="#FFC547"/>
<ellipse rx="1.93269" ry="1.78352" transform="matrix(-0.993902 0.110268 0.117654 0.993055 72.9823 33.0618)" fill="#FFC547"/>
<path d="M97.1174 40.4586L94.8098 52.1651C94.7123 52.66 94.1958 52.9493 93.717 52.7826C86.4874 50.2662 81.1903 49.4345 73.3882 50.3663C72.8786 50.4272 72.4258 50.0226 72.4397 49.5101L72.7834 36.82C72.8031 36.0926 73.6856 35.7486 74.2004 36.2676L78.8852 40.9906C79.2709 41.3795 79.9186 41.2993 80.1915 40.829L84.3696 33.6278C84.7295 33.0075 85.659 33.1135 85.8787 33.8L88.607 42.3245C88.7654 42.8193 89.334 43.0523 89.7911 42.8096L95.9094 39.561C96.5266 39.2333 97.2526 39.7728 97.1174 40.4586Z" fill="#FFC547"/>
</svg>
