<svg width="168" height="188" viewBox="0 0 168 188" fill="none" xmlns="http://www.w3.org/2000/svg">
<path d="M17.5 7C21.0899 7 24 4.08985 24 0.5C24 0.331764 23.9936 0.165021 23.9811 0H33.0189C33.0064 0.165021 33 0.331764 33 0.5C33 4.08985 35.9101 7 39.5 7C43.0899 7 46 4.08985 46 0.5C46 0.331764 45.9936 0.165021 45.9811 0H55.0189C55.0064 0.165021 55 0.331764 55 0.5C55 4.08985 57.9101 7 61.5 7C65.0899 7 68 4.08985 68 0.5C68 0.331764 67.9936 0.165021 67.9811 0H77.0189C77.0064 0.165021 77 0.331764 77 0.5C77 4.08985 79.9101 7 83.5 7C87.0899 7 90 4.08985 90 0.5C90 0.331764 89.9936 0.165021 89.9811 0H99.0189C99.0064 0.165021 99 0.331764 99 0.5C99 4.08985 101.91 7 105.5 7C109.09 7 112 4.08985 112 0.5C112 0.331764 111.994 0.165021 111.981 0H121.019C121.006 0.165021 121 0.331764 121 0.5C121 4.08985 123.91 7 127.5 7C131.09 7 134 4.08985 134 0.5C134 0.331764 133.994 0.165021 133.981 0H143.019C143.006 0.165021 143 0.331764 143 0.5C143 4.08985 145.91 7 149.5 7C153.09 7 156 4.08985 156 0.5C156 0.331764 155.994 0.165021 155.981 0H168V12.0189C167.835 12.0064 167.668 12 167.5 12C163.91 12 161 14.9101 161 18.5C161 22.0899 163.91 25 167.5 25C167.668 25 167.835 24.9936 168 24.9811V34.0189C167.835 34.0064 167.668 34 167.5 34C163.91 34 161 36.9101 161 40.5C161 44.0899 163.91 47 167.5 47C167.668 47 167.835 46.9936 168 46.9811V56.0189C167.835 56.0064 167.668 56 167.5 56C163.91 56 161 58.9101 161 62.5C161 66.0899 163.91 69 167.5 69C167.668 69 167.835 68.9936 168 68.9811V78.0189C167.835 78.0064 167.668 78 167.5 78C163.91 78 161 80.9101 161 84.5C161 88.0899 163.91 91 167.5 91C167.668 91 167.835 90.9936 168 90.9811V100.019C167.835 100.006 167.668 100 167.5 100C163.91 100 161 102.91 161 106.5C161 110.09 163.91 113 167.5 113C167.668 113 167.835 112.994 168 112.981V122.019C167.835 122.006 167.668 122 167.5 122C163.91 122 161 124.91 161 128.5C161 132.09 163.91 135 167.5 135C167.668 135 167.835 134.994 168 134.981V144.019C167.835 144.006 167.668 144 167.5 144C163.91 144 161 146.91 161 150.5C161 154.09 163.91 157 167.5 157C167.668 157 167.835 156.994 168 156.981V166.019C167.835 166.006 167.668 166 167.5 166C163.91 166 161 168.91 161 172.5C161 176.09 163.91 179 167.5 179C167.668 179 167.835 178.994 168 178.981V188H155.981C155.726 184.644 152.922 182 149.5 182C146.078 182 143.274 184.644 143.019 188H133.981C133.726 184.644 130.922 182 127.5 182C124.078 182 121.274 184.644 121.019 188H111.981C111.726 184.644 108.922 182 105.5 182C102.078 182 99.2743 184.644 99.0189 188H89.9811C89.7257 184.644 86.9216 182 83.5 182C80.0784 182 77.2743 184.644 77.0189 188H67.9811C67.7257 184.644 64.9216 182 61.5 182C58.0784 182 55.2743 184.644 55.0189 188H45.9811C45.7257 184.644 42.9216 182 39.5 182C36.0784 182 33.2743 184.644 33.0189 188H23.9811C23.7257 184.644 20.9216 182 17.5 182C14.0784 182 11.2743 184.644 11.0189 188H0V178.981C0.165021 178.994 0.331764 179 0.5 179C4.08985 179 7 176.09 7 172.5C7 168.91 4.08985 166 0.5 166C0.331764 166 0.165021 166.006 0 166.019V156.981C0.165021 156.994 0.331764 157 0.5 157C4.08985 157 7 154.09 7 150.5C7 146.91 4.08985 144 0.5 144C0.331764 144 0.165021 144.006 0 144.019V134.981C0.165021 134.994 0.331764 135 0.5 135C4.08985 135 7 132.09 7 128.5C7 124.91 4.08985 122 0.5 122C0.331764 122 0.165021 122.006 0 122.019V112.981C0.165021 112.994 0.331764 113 0.5 113C4.08985 113 7 110.09 7 106.5C7 102.91 4.08985 100 0.5 100C0.331764 100 0.165021 100.006 0 100.019V90.9811C0.165021 90.9936 0.331764 91 0.5 91C4.08985 91 7 88.0899 7 84.5C7 80.9101 4.08985 78 0.5 78C0.331764 78 0.165021 78.0064 0 78.0189V68.9811C0.165021 68.9936 0.331764 69 0.5 69C4.08985 69 7 66.0899 7 62.5C7 58.9101 4.08985 56 0.5 56C0.331764 56 0.165021 56.0064 0 56.0189V46.9811C0.165021 46.9936 0.331764 47 0.5 47C4.08985 47 7 44.0899 7 40.5C7 36.9101 4.08985 34 0.5 34C0.331764 34 0.165021 34.0064 0 34.0189V24.9811C0.165021 24.9936 0.331764 25 0.5 25C4.08985 25 7 22.0899 7 18.5C7 14.9101 4.08985 12 0.5 12C0.331764 12 0.165021 12.0064 0 12.0189V0H11.0189C11.0064 0.165021 11 0.331764 11 0.5C11 4.08985 13.9101 7 17.5 7Z" fill="white"/>
<rect x="14" y="16" width="140" height="156" rx="4" fill="#EAEAEA"/>
<ellipse rx="15.6705" ry="9.26049" transform="matrix(0.864804 0.502109 0.509896 -0.860236 44.3925 63.1284)" fill="#FFDE73"/>
<ellipse rx="10.8288" ry="6.39925" transform="matrix(0.864804 0.502109 0.509896 -0.860236 44.3925 63.1284)" fill="#FFC2A9"/>
<ellipse rx="15.6705" ry="9.26049" transform="matrix(-0.864804 0.502109 -0.509896 -0.860236 123.163 63.1284)" fill="#FFDE73"/>
<ellipse rx="10.8288" ry="6.39925" transform="matrix(-0.864804 0.502109 -0.509896 -0.860236 123.163 63.1284)" fill="#FFC2A9"/>
<path d="M53 39H58L60 72H51L53 39Z" fill="#FFDE73"/>
<circle cx="55.5" cy="37.5" r="8.5" fill="#FFDE73"/>
<path d="M110 39H115L117 72H108L110 39Z" fill="#FFDE73"/>
<circle cx="112.5" cy="37.5" r="8.5" fill="#FFDE73"/>
<rect x="42" y="48" width="85" height="105" rx="42.5" fill="#FFDE73"/>
<path fill-rule="evenodd" clip-rule="evenodd" d="M85.9192 48.0233C96.9551 48.3854 106.926 52.9549 114.281 60.1795C112.297 66.4528 106.43 71 99.5 71C90.9396 71 84 64.0604 84 55.5C84 52.7889 84.6961 50.2403 85.9192 48.0233Z" fill="#C37D2C"/>
<path fill-rule="evenodd" clip-rule="evenodd" d="M47.2828 69.9623C50.7003 63.7826 55.6122 58.5444 61.5309 54.7354C63.0716 56.5625 64 58.9228 64 61.5C64 67.299 59.299 72 53.5 72C51.1733 72 49.0233 71.2432 47.2828 69.9623Z" fill="#C37D2C"/>
<path fill-rule="evenodd" clip-rule="evenodd" d="M126.928 88.0004C126.976 88.8274 127 89.6609 127 90.5V102C127 102 127 102 127 102C123.134 102 120 98.866 120 95C120 91.1581 123.095 88.0391 126.928 88.0004Z" fill="#C37D2C"/>
<path fill-rule="evenodd" clip-rule="evenodd" d="M42.0723 113C42.0243 112.173 42 111.339 42 110.5V99C45.866 99 49 102.134 49 106C49 109.842 45.905 112.961 42.0723 113Z" fill="#C37D2C"/>
<ellipse cx="55" cy="101.4" rx="4" ry="2.4" fill="#ED653B" fill-opacity="0.6"/>
<ellipse cx="114" cy="101.4" rx="4" ry="2.4" fill="#ED653B" fill-opacity="0.6"/>
<circle r="9" transform="matrix(-1 0 0 1 61 89)" fill="#333333"/>
<circle r="3" transform="matrix(-1 0 0 1 64 86)" fill="white"/>
<circle r="1.5" transform="matrix(-1 0 0 1 59.5 91.5)" fill="white"/>
<circle cx="108" cy="89" r="9" fill="#333333"/>
<circle cx="105" cy="86" r="3" fill="white"/>
<circle cx="109.5" cy="91.5" r="1.5" fill="white"/>
<ellipse cx="84" cy="128.5" rx="46" ry="27.5" fill="#FFCEB9"/>
<ellipse cx="64" cy="118.5" rx="3" ry="4.5" fill="#333333"/>
<ellipse cx="107" cy="118.5" rx="3" ry="4.5" fill="#333333"/>
<path d="M117.7 141.228C115.284 137.501 109.113 135.712 107.341 135.265C107.073 135.197 106.814 135.365 106.766 135.637C106.452 137.438 105.567 143.801 107.983 147.528C110.399 151.255 116.57 153.044 118.342 153.491C118.609 153.559 118.869 153.391 118.916 153.119C119.231 151.319 120.116 144.955 117.7 141.228Z" fill="#CCE772"/>
<path d="M105.587 148.274C106.823 144.688 104.827 139.617 104.157 138.088C104.047 137.835 103.752 137.733 103.509 137.864C102.039 138.656 97.3413 141.419 96.1049 145.005C94.8685 148.591 96.8651 153.663 97.5345 155.192C97.6452 155.444 97.94 155.546 98.183 155.415C99.6524 154.624 104.351 151.86 105.587 148.274Z" fill="#CCE772"/>
<path d="M61 132C70 146.5 102 146.5 110.5 132" stroke="#333333" stroke-width="2.5" stroke-linecap="round" stroke-linejoin="round"/>
<path d="M84.2047 79.8444C86.5955 66.919 90.2711 61.7546 100.443 50.9892" stroke="#CCE772" stroke-width="1.24764" stroke-linecap="round"/>
<path d="M81.4845 84.123C81.7547 81.6375 84.275 79.0621 84.275 79.0621C84.275 79.0621 85.8946 81.9151 85.6244 84.4007C85.3542 86.8862 83.1348 89.5515 83.1348 89.5515C83.1348 89.5515 81.2144 86.6085 81.4845 84.123Z" fill="#CCE772"/>
<path d="M86.4351 77.2211C85.4709 75.8067 85.3528 73.6072 85.3528 73.6072C85.3528 73.6072 87.3755 74.5479 88.3397 75.9623C89.3039 77.3767 89.422 79.5762 89.422 79.5762C89.422 79.5762 87.3993 78.6355 86.4351 77.2211Z" fill="#CCE772"/>
<path d="M81.6873 74.8483C83.23 73.871 85.5256 73.6831 85.5256 73.6831C85.5256 73.6831 84.3962 75.6651 82.8535 76.6425C81.3108 77.6198 79.0152 77.8077 79.0152 77.8077C79.0152 77.8077 80.1446 75.8257 81.6873 74.8483Z" fill="#CCE772"/>
<path d="M88.6144 71.2229C87.6502 69.8085 87.5321 67.609 87.5321 67.609C87.5321 67.609 89.5548 68.5497 90.519 69.9641C91.4832 71.3785 91.6013 73.578 91.6013 73.578C91.6013 73.578 89.5787 72.6373 88.6144 71.2229Z" fill="#CCE772"/>
<path d="M83.7236 67.9724C85.4452 67.3687 87.6906 67.7161 87.6906 67.7161C87.6906 67.7161 86.1135 69.404 84.3919 70.0077C82.6702 70.6115 80.4249 70.2641 80.4249 70.2641C80.4249 70.2641 82.0019 68.5762 83.7236 67.9724Z" fill="#CCE772"/>
<path d="M91.5708 65.9379C90.7139 64.4575 90.7542 62.2471 90.7542 62.2471C90.7542 62.2471 92.697 63.3236 93.554 64.804C94.4109 66.2844 94.3706 68.4948 94.3706 68.4948C94.3706 68.4948 92.4277 67.4183 91.5708 65.9379Z" fill="#CCE772"/>
<path d="M86.6297 62.3348C88.3661 61.7784 90.5965 62.189 90.5965 62.189C90.5965 62.189 88.9718 63.8348 87.2354 64.3912C85.4989 64.9475 83.2685 64.537 83.2685 64.537C83.2685 64.537 84.8933 62.8912 86.6297 62.3348Z" fill="#CCE772"/>
<path d="M95.4388 60.3327C94.7182 58.7813 94.9513 56.5719 94.9513 56.5719C94.9513 56.5719 96.7844 57.8069 97.505 59.3583C98.2257 60.9097 97.9926 63.1191 97.9926 63.1191C97.9926 63.1191 96.1595 61.884 95.4388 60.3327Z" fill="#CCE772"/>
<path d="M91.2307 56.6424C92.9671 56.086 95.1975 56.4966 95.1975 56.4966C95.1975 56.4966 93.5727 58.1423 91.8363 58.6987C90.0999 59.2551 87.8695 58.8445 87.8695 58.8445C87.8695 58.8445 89.4942 57.1987 91.2307 56.6424Z" fill="#CCE772"/>
<path d="M114 74.5238C114 71.5783 116.443 69.1905 119.458 69.1905C119.893 69.1905 120.317 69.2403 120.723 69.3345C121.201 66.8664 123.42 65 126.085 65C128.698 65 130.882 66.7948 131.417 69.1919C131.459 69.1909 131.5 69.1905 131.542 69.1905C134.557 69.1905 137 71.5783 137 74.5238C137 78.1005 134.033 81 130.373 81H120.627C116.967 81 114 78.1005 114 74.5238Z" fill="white"/>
<path d="M30 85.3333C30 82.756 32.1248 80.6667 34.7458 80.6667C35.1244 80.6667 35.4928 80.7103 35.8458 80.7927C36.2619 78.6331 38.1912 77 40.5085 77C42.7809 77 44.6802 78.5705 45.1453 80.6679C45.1815 80.6671 45.2178 80.6667 45.2542 80.6667C47.8753 80.6667 50 82.756 50 85.3333C50 88.4629 47.4199 91 44.2373 91H35.7627C32.5801 91 30 88.4629 30 85.3333Z" fill="white"/>
</svg>
