<svg width="168" height="188" viewBox="0 0 168 188" fill="none" xmlns="http://www.w3.org/2000/svg">
<path d="M17.5 7C21.0899 7 24 4.08985 24 0.5C24 0.331764 23.9936 0.165021 23.9811 0H33.0189C33.0064 0.165021 33 0.331764 33 0.5C33 4.08985 35.9101 7 39.5 7C43.0899 7 46 4.08985 46 0.5C46 0.331764 45.9936 0.165021 45.9811 0H55.0189C55.0064 0.165021 55 0.331764 55 0.5C55 4.08985 57.9101 7 61.5 7C65.0899 7 68 4.08985 68 0.5C68 0.331764 67.9936 0.165021 67.9811 0H77.0189C77.0064 0.165021 77 0.331764 77 0.5C77 4.08985 79.9101 7 83.5 7C87.0899 7 90 4.08985 90 0.5C90 0.331764 89.9936 0.165021 89.9811 0H99.0189C99.0064 0.165021 99 0.331764 99 0.5C99 4.08985 101.91 7 105.5 7C109.09 7 112 4.08985 112 0.5C112 0.331764 111.994 0.165021 111.981 0H121.019C121.006 0.165021 121 0.331764 121 0.5C121 4.08985 123.91 7 127.5 7C131.09 7 134 4.08985 134 0.5C134 0.331764 133.994 0.165021 133.981 0H143.019C143.006 0.165021 143 0.331764 143 0.5C143 4.08985 145.91 7 149.5 7C153.09 7 156 4.08985 156 0.5C156 0.331764 155.994 0.165021 155.981 0H168V12.0189C167.835 12.0064 167.668 12 167.5 12C163.91 12 161 14.9101 161 18.5C161 22.0899 163.91 25 167.5 25C167.668 25 167.835 24.9936 168 24.9811V34.0189C167.835 34.0064 167.668 34 167.5 34C163.91 34 161 36.9101 161 40.5C161 44.0899 163.91 47 167.5 47C167.668 47 167.835 46.9936 168 46.9811V56.0189C167.835 56.0064 167.668 56 167.5 56C163.91 56 161 58.9101 161 62.5C161 66.0899 163.91 69 167.5 69C167.668 69 167.835 68.9936 168 68.9811V78.0189C167.835 78.0064 167.668 78 167.5 78C163.91 78 161 80.9101 161 84.5C161 88.0899 163.91 91 167.5 91C167.668 91 167.835 90.9936 168 90.9811V100.019C167.835 100.006 167.668 100 167.5 100C163.91 100 161 102.91 161 106.5C161 110.09 163.91 113 167.5 113C167.668 113 167.835 112.994 168 112.981V122.019C167.835 122.006 167.668 122 167.5 122C163.91 122 161 124.91 161 128.5C161 132.09 163.91 135 167.5 135C167.668 135 167.835 134.994 168 134.981V144.019C167.835 144.006 167.668 144 167.5 144C163.91 144 161 146.91 161 150.5C161 154.09 163.91 157 167.5 157C167.668 157 167.835 156.994 168 156.981V166.019C167.835 166.006 167.668 166 167.5 166C163.91 166 161 168.91 161 172.5C161 176.09 163.91 179 167.5 179C167.668 179 167.835 178.994 168 178.981V188H155.981C155.726 184.644 152.922 182 149.5 182C146.078 182 143.274 184.644 143.019 188H133.981C133.726 184.644 130.922 182 127.5 182C124.078 182 121.274 184.644 121.019 188H111.981C111.726 184.644 108.922 182 105.5 182C102.078 182 99.2743 184.644 99.0189 188H89.9811C89.7257 184.644 86.9216 182 83.5 182C80.0784 182 77.2743 184.644 77.0189 188H67.9811C67.7257 184.644 64.9216 182 61.5 182C58.0784 182 55.2743 184.644 55.0189 188H45.9811C45.7257 184.644 42.9216 182 39.5 182C36.0784 182 33.2743 184.644 33.0189 188H23.9811C23.7257 184.644 20.9216 182 17.5 182C14.0784 182 11.2743 184.644 11.0189 188H0V178.981C0.165021 178.994 0.331764 179 0.5 179C4.08985 179 7 176.09 7 172.5C7 168.91 4.08985 166 0.5 166C0.331764 166 0.165021 166.006 0 166.019V156.981C0.165021 156.994 0.331764 157 0.5 157C4.08985 157 7 154.09 7 150.5C7 146.91 4.08985 144 0.5 144C0.331764 144 0.165021 144.006 0 144.019V134.981C0.165021 134.994 0.331764 135 0.5 135C4.08985 135 7 132.09 7 128.5C7 124.91 4.08985 122 0.5 122C0.331764 122 0.165021 122.006 0 122.019V112.981C0.165021 112.994 0.331764 113 0.5 113C4.08985 113 7 110.09 7 106.5C7 102.91 4.08985 100 0.5 100C0.331764 100 0.165021 100.006 0 100.019V90.9811C0.165021 90.9936 0.331764 91 0.5 91C4.08985 91 7 88.0899 7 84.5C7 80.9101 4.08985 78 0.5 78C0.331764 78 0.165021 78.0064 0 78.0189V68.9811C0.165021 68.9936 0.331764 69 0.5 69C4.08985 69 7 66.0899 7 62.5C7 58.9101 4.08985 56 0.5 56C0.331764 56 0.165021 56.0064 0 56.0189V46.9811C0.165021 46.9936 0.331764 47 0.5 47C4.08985 47 7 44.0899 7 40.5C7 36.9101 4.08985 34 0.5 34C0.331764 34 0.165021 34.0064 0 34.0189V24.9811C0.165021 24.9936 0.331764 25 0.5 25C4.08985 25 7 22.0899 7 18.5C7 14.9101 4.08985 12 0.5 12C0.331764 12 0.165021 12.0064 0 12.0189V0H11.0189C11.0064 0.165021 11 0.331764 11 0.5C11 4.08985 13.9101 7 17.5 7Z" fill="white"/>
<rect x="14" y="16" width="140" height="156" rx="4" fill="#FFEDB3"/>
<circle cx="35" cy="96" r="16" fill="#C4C4C4"/>
<g style="mix-blend-mode:multiply">
<circle cx="35" cy="96" r="12" fill="#C4C4C4"/>
</g>
<circle cx="133" cy="96" r="16" fill="#C4C4C4"/>
<g style="mix-blend-mode:multiply">
<circle cx="133" cy="96" r="12" fill="#C4C4C4"/>
</g>
<path d="M81.8427 35.0612C81.8001 32.866 83.3724 31.0482 85.3548 31.0009C87.3371 30.9537 88.9786 32.6949 89.0213 34.8901L89.0819 38.0053L90.0353 35.1045C90.7134 33.0412 92.7736 31.9774 94.6368 32.7284C96.5 33.4793 97.4607 35.7607 96.7825 37.824L93.5081 47.7862C92.83 49.8495 90.7698 50.9133 88.9066 50.1623C88.3101 49.9219 87.8061 49.5246 87.4187 49.0278C86.9157 49.3466 86.3356 49.5347 85.7153 49.5495C85.2071 49.5616 84.7212 49.4561 84.2789 49.2556C83.9481 50.3769 83.172 51.3244 82.0934 51.7592C80.2302 52.5101 78.17 51.4463 77.4919 49.383L74.2175 39.4208C73.5393 37.3575 74.5 35.0761 76.3632 34.3252C78.2264 33.5742 80.2866 34.638 80.9647 36.7013L81.9318 39.6437L81.8427 35.0612Z" fill="#393939"/>
<path d="M37.3099 88.1972C36.0533 63.0652 56.0915 42 81.255 42H88.2809C113.618 42 133.719 63.3439 132.202 88.6352L132 92L132.909 112.002C134.048 137.061 114.039 158 88.9546 158H80.6982C55.7445 158 35.7852 137.27 36.7298 112.335L37.5 92L37.3099 88.1972Z" fill="#393939"/>
<path fill-rule="evenodd" clip-rule="evenodd" d="M56.0941 99.5821C56.6282 99.1146 56.6379 98.2742 56.1238 97.7847C52.3513 94.1923 50 89.1207 50 83.5C50 72.6078 58.83 63.7778 69.7222 63.7778C75.6409 63.7778 80.9506 66.385 84.5656 70.5134C85.0544 71.0717 85.9456 71.0717 86.4345 70.5134C90.0495 66.385 95.3592 63.7778 101.278 63.7778C112.17 63.7778 121 72.6078 121 83.5C121 89.1279 118.643 94.2052 114.862 97.7984C114.347 98.2877 114.356 99.1288 114.89 99.5966C120.474 104.485 124 111.666 124 119.67C124 132.347 115.102 143.557 102.507 145C90.7215 146.35 80.3314 146.326 68.5503 144.971C55.9386 143.519 47 132.314 47 119.619C47 111.629 50.5201 104.461 56.0941 99.5821Z" fill="#B5B5B5"/>
<path fill-rule="evenodd" clip-rule="evenodd" d="M123.81 116.472C123.936 117.52 124 118.588 124 119.67C124 132.348 115.102 143.557 102.507 145C90.7215 146.35 80.3314 146.326 68.5503 144.971C55.9386 143.519 47 132.314 47 119.619C47 119.061 47.0172 118.507 47.051 117.957C54.8393 107.221 69.3656 100 86 100C101.855 100 115.795 106.56 123.81 116.472Z" fill="#DEDDDD"/>
<circle cx="67" cy="80" r="11" fill="white"/>
<circle cx="67" cy="80" r="7.33333" fill="#393939"/>
<circle cx="69.75" cy="77.8612" r="2.75" fill="white"/>
<circle cx="103" cy="80" r="11" fill="white"/>
<circle cx="103" cy="80" r="7.33333" fill="#393939"/>
<circle cx="105.75" cy="77.8612" r="2.75" fill="white"/>
<ellipse cx="71" cy="114" rx="3" ry="4" fill="#393939"/>
<ellipse cx="100" cy="114" rx="3" ry="4" fill="#393939"/>
<circle cx="57.5" cy="124.5" r="5.5" fill="#FFCEB9"/>
<circle cx="112.5" cy="124.5" r="5.5" fill="#FFCEB9"/>
<circle cx="57.5" cy="124.5" r="5.5" fill="#FFCEB9"/>
<circle cx="112.5" cy="124.5" r="5.5" fill="#FFCEB9"/>
<path d="M108.337 142.026C94.0694 133.694 86.3492 133.011 68.3927 134.026" stroke="#5EA985" stroke-width="2" stroke-linecap="round"/>
<path d="M96.7302 139.206C96.0791 137.102 94.041 135.174 94.041 135.174C94.041 135.174 93.4485 137.916 94.0996 140.02C94.7508 142.124 96.7889 144.052 96.7889 144.052C96.7889 144.052 97.3814 141.31 96.7302 139.206Z" fill="#5EA985"/>
<path d="M97.2197 131.77C95.358 132.946 94.0268 135.416 94.0268 135.416C94.0268 135.416 96.829 135.274 98.6907 134.098C100.552 132.922 101.884 130.452 101.884 130.452C101.884 130.452 99.0814 130.594 97.2197 131.77Z" fill="#5EA985"/>
<path d="M89.4274 137.723C88.6328 135.67 86.4666 133.886 86.4666 133.886C86.4666 133.886 86.0646 136.663 86.8592 138.717C87.6538 140.771 89.82 142.554 89.82 142.554C89.82 142.554 90.222 139.777 89.4274 137.723Z" fill="#5EA985"/>
<path d="M82.3715 136.967C81.2208 135.089 78.7695 133.724 78.7695 133.724C78.7695 133.724 78.8729 136.528 80.0236 138.406C81.1743 140.283 83.6256 141.648 83.6256 141.648C83.6256 141.648 83.5222 138.845 82.3715 136.967Z" fill="#5EA985"/>
<path fill-rule="evenodd" clip-rule="evenodd" d="M102.951 139.374C103.296 139.398 103.632 139.434 103.954 139.48C103.723 139.251 103.493 139.004 103.266 138.743C101.559 136.776 100.706 134.72 101.362 134.151C102.018 133.582 103.933 134.715 105.641 136.682C105.867 136.943 106.079 137.206 106.274 137.467C106.273 137.141 106.285 136.804 106.309 136.459C106.493 133.861 107.343 131.805 108.209 131.866C109.075 131.927 109.629 134.083 109.445 136.681C109.421 137.026 109.385 137.361 109.338 137.683C109.568 137.453 109.815 137.222 110.076 136.996C112.043 135.288 114.098 134.436 114.668 135.091C115.237 135.747 114.104 137.662 112.137 139.37C111.875 139.596 111.613 139.808 111.352 140.003C111.678 140.003 112.015 140.014 112.36 140.038C114.958 140.222 117.014 141.073 116.953 141.939C116.892 142.805 114.736 143.358 112.138 143.174C111.793 143.15 111.458 143.114 111.136 143.068C111.366 143.297 111.597 143.544 111.823 143.805C113.531 145.772 114.383 147.827 113.728 148.397C113.072 148.966 111.156 147.833 109.449 145.866C109.222 145.604 109.011 145.342 108.816 145.081C108.816 145.407 108.805 145.744 108.781 146.089C108.597 148.687 107.746 150.744 106.88 150.682C106.014 150.621 105.461 148.465 105.644 145.867C105.669 145.522 105.705 145.187 105.751 144.865C105.522 145.095 105.275 145.326 105.014 145.552C103.047 147.26 100.991 148.112 100.422 147.457C99.853 146.801 100.986 144.886 102.953 143.178C103.214 142.952 103.477 142.74 103.738 142.545C103.412 142.545 103.075 142.534 102.73 142.51C100.132 142.326 98.0753 141.475 98.1364 140.609C98.1976 139.743 100.353 139.19 102.951 139.374Z" fill="#ED653B"/>
<circle cx="107.545" cy="141.274" r="2.16145" transform="rotate(-85.9591 107.545 141.274)" fill="white" fill-opacity="0.5"/>
<path d="M72 127C76.7273 135 93.5354 135 98 127" stroke="#393939" stroke-width="2" stroke-linecap="round" stroke-linejoin="round"/>
</svg>
