<svg width="168" height="188" viewBox="0 0 168 188" fill="none" xmlns="http://www.w3.org/2000/svg">
<path d="M17.5 7C21.0899 7 24 4.08985 24 0.5C24 0.331764 23.9936 0.165021 23.9811 0H33.0189C33.0064 0.165021 33 0.331764 33 0.5C33 4.08985 35.9101 7 39.5 7C43.0899 7 46 4.08985 46 0.5C46 0.331764 45.9936 0.165021 45.9811 0H55.0189C55.0064 0.165021 55 0.331764 55 0.5C55 4.08985 57.9101 7 61.5 7C65.0899 7 68 4.08985 68 0.5C68 0.331764 67.9936 0.165021 67.9811 0H77.0189C77.0064 0.165021 77 0.331764 77 0.5C77 4.08985 79.9101 7 83.5 7C87.0899 7 90 4.08985 90 0.5C90 0.331764 89.9936 0.165021 89.9811 0H99.0189C99.0064 0.165021 99 0.331764 99 0.5C99 4.08985 101.91 7 105.5 7C109.09 7 112 4.08985 112 0.5C112 0.331764 111.994 0.165021 111.981 0H121.019C121.006 0.165021 121 0.331764 121 0.5C121 4.08985 123.91 7 127.5 7C131.09 7 134 4.08985 134 0.5C134 0.331764 133.994 0.165021 133.981 0H143.019C143.006 0.165021 143 0.331764 143 0.5C143 4.08985 145.91 7 149.5 7C153.09 7 156 4.08985 156 0.5C156 0.331764 155.994 0.165021 155.981 0H168V12.0189C167.835 12.0064 167.668 12 167.5 12C163.91 12 161 14.9101 161 18.5C161 22.0899 163.91 25 167.5 25C167.668 25 167.835 24.9936 168 24.9811V34.0189C167.835 34.0064 167.668 34 167.5 34C163.91 34 161 36.9101 161 40.5C161 44.0899 163.91 47 167.5 47C167.668 47 167.835 46.9936 168 46.9811V56.0189C167.835 56.0064 167.668 56 167.5 56C163.91 56 161 58.9101 161 62.5C161 66.0899 163.91 69 167.5 69C167.668 69 167.835 68.9936 168 68.9811V78.0189C167.835 78.0064 167.668 78 167.5 78C163.91 78 161 80.9101 161 84.5C161 88.0899 163.91 91 167.5 91C167.668 91 167.835 90.9936 168 90.9811V100.019C167.835 100.006 167.668 100 167.5 100C163.91 100 161 102.91 161 106.5C161 110.09 163.91 113 167.5 113C167.668 113 167.835 112.994 168 112.981V122.019C167.835 122.006 167.668 122 167.5 122C163.91 122 161 124.91 161 128.5C161 132.09 163.91 135 167.5 135C167.668 135 167.835 134.994 168 134.981V144.019C167.835 144.006 167.668 144 167.5 144C163.91 144 161 146.91 161 150.5C161 154.09 163.91 157 167.5 157C167.668 157 167.835 156.994 168 156.981V166.019C167.835 166.006 167.668 166 167.5 166C163.91 166 161 168.91 161 172.5C161 176.09 163.91 179 167.5 179C167.668 179 167.835 178.994 168 178.981V188H155.981C155.726 184.644 152.922 182 149.5 182C146.078 182 143.274 184.644 143.019 188H133.981C133.726 184.644 130.922 182 127.5 182C124.078 182 121.274 184.644 121.019 188H111.981C111.726 184.644 108.922 182 105.5 182C102.078 182 99.2743 184.644 99.0189 188H89.9811C89.7257 184.644 86.9216 182 83.5 182C80.0784 182 77.2743 184.644 77.0189 188H67.9811C67.7257 184.644 64.9216 182 61.5 182C58.0784 182 55.2743 184.644 55.0189 188H45.9811C45.7257 184.644 42.9216 182 39.5 182C36.0784 182 33.2743 184.644 33.0189 188H23.9811C23.7257 184.644 20.9216 182 17.5 182C14.0784 182 11.2743 184.644 11.0189 188H0V178.981C0.165021 178.994 0.331764 179 0.5 179C4.08985 179 7 176.09 7 172.5C7 168.91 4.08985 166 0.5 166C0.331764 166 0.165021 166.006 0 166.019V156.981C0.165021 156.994 0.331764 157 0.5 157C4.08985 157 7 154.09 7 150.5C7 146.91 4.08985 144 0.5 144C0.331764 144 0.165021 144.006 0 144.019V134.981C0.165021 134.994 0.331764 135 0.5 135C4.08985 135 7 132.09 7 128.5C7 124.91 4.08985 122 0.5 122C0.331764 122 0.165021 122.006 0 122.019V112.981C0.165021 112.994 0.331764 113 0.5 113C4.08985 113 7 110.09 7 106.5C7 102.91 4.08985 100 0.5 100C0.331764 100 0.165021 100.006 0 100.019V90.9811C0.165021 90.9936 0.331764 91 0.5 91C4.08985 91 7 88.0899 7 84.5C7 80.9101 4.08985 78 0.5 78C0.331764 78 0.165021 78.0064 0 78.0189V68.9811C0.165021 68.9936 0.331764 69 0.5 69C4.08985 69 7 66.0899 7 62.5C7 58.9101 4.08985 56 0.5 56C0.331764 56 0.165021 56.0064 0 56.0189V46.9811C0.165021 46.9936 0.331764 47 0.5 47C4.08985 47 7 44.0899 7 40.5C7 36.9101 4.08985 34 0.5 34C0.331764 34 0.165021 34.0064 0 34.0189V24.9811C0.165021 24.9936 0.331764 25 0.5 25C4.08985 25 7 22.0899 7 18.5C7 14.9101 4.08985 12 0.5 12C0.331764 12 0.165021 12.0064 0 12.0189V0H11.0189C11.0064 0.165021 11 0.331764 11 0.5C11 4.08985 13.9101 7 17.5 7Z" fill="white"/>
<rect x="14" y="16" width="140" height="156" rx="4" fill="#EAEAEA"/>
<ellipse rx="14.4403" ry="10.329" transform="matrix(0.54801 0.836472 -0.831491 0.555539 49.5019 57.1224)" fill="#B1C1C9"/>
<ellipse rx="7.63481" ry="5.60285" transform="matrix(0.54801 0.836472 -0.831491 0.555539 47.8427 55.8043)" fill="#FFDED0"/>
<ellipse rx="14.4403" ry="10.329" transform="matrix(-0.54801 0.836472 0.831491 0.555539 117.643 57.1224)" fill="#B1C1C9"/>
<ellipse rx="7.63481" ry="5.60285" transform="matrix(-0.54801 0.836472 0.831491 0.555539 118.843 55.8043)" fill="#FFDED0"/>
<path d="M87.4989 38.5595C88.7768 33.829 94.7317 29.8358 94.7317 29.8358C94.7317 29.8358 97.3796 35.927 96.1018 40.6575C94.8239 45.3879 89.3389 49.7991 89.3389 49.7991C89.3389 49.7991 86.2211 43.2899 87.4989 38.5595Z" fill="#ACCC5F"/>
<path d="M76.7782 40.578C73.6771 37.5623 66.9629 37.5993 66.9629 37.5993C66.9629 37.5993 67.3492 43.7566 70.4504 46.7723C73.5515 49.788 80.0501 50.3261 80.0501 50.3261C80.0501 50.3261 79.8794 43.5937 76.7782 40.578Z" fill="#ACCC5F"/>
<path d="M87.1987 37.122C84.6361 31.1961 75.8439 27.1483 75.8439 27.1483C75.8439 27.1483 73.2093 35.6576 75.7719 41.5835C78.3345 47.5094 86.6585 52.1567 86.6585 52.1567C86.6585 52.1567 89.7613 43.0479 87.1987 37.122Z" fill="#BBD468"/>
<path d="M87.4989 38.5595C88.7768 33.829 94.7317 29.8358 94.7317 29.8358C94.7317 29.8358 97.3796 35.927 96.1018 40.6575C94.8239 45.3879 89.3389 49.7991 89.3389 49.7991C89.3389 49.7991 86.2211 43.2899 87.4989 38.5595Z" fill="#ACCC5F"/>
<path d="M76.7782 40.578C73.6771 37.5623 66.9629 37.5993 66.9629 37.5993C66.9629 37.5993 67.3492 43.7566 70.4504 46.7723C73.5515 49.788 80.0501 50.3261 80.0501 50.3261C80.0501 50.3261 79.8794 43.5937 76.7782 40.578Z" fill="#ACCC5F"/>
<path d="M87.1987 37.122C84.6361 31.1961 75.8439 27.1483 75.8439 27.1483C75.8439 27.1483 73.2093 35.6576 75.7719 41.5835C78.3345 47.5094 86.6585 52.1567 86.6585 52.1567C86.6585 52.1567 89.7613 43.0479 87.1987 37.122Z" fill="#BBD468"/>
<path d="M41.0736 83.7595C42.152 61.1127 60.8274 43.3054 83.5 43.3054V43.3054C106.173 43.3054 124.848 61.1126 125.926 83.7595L126.836 102.857C128.014 127.6 108.271 148.305 83.5 148.305V148.305C58.729 148.305 38.986 127.6 40.1642 102.857L41.0736 83.7595Z" fill="#B1C1C9"/>
<circle cx="65" cy="83.3054" r="9" fill="white"/>
<circle cx="66.9" cy="82.4054" r="7.2" fill="#525151"/>
<circle r="2.25" transform="matrix(-1 0 0 1 70.05 79.1553)" fill="white"/>
<circle r="1.35" transform="matrix(-1 0 0 1 66.45 82.7553)" fill="white"/>
<circle cx="103" cy="83.3054" r="9" fill="white"/>
<circle cx="104.9" cy="82.4054" r="7.2" fill="#525151"/>
<circle r="2.25" transform="matrix(-1 0 0 1 108.05 79.1553)" fill="white"/>
<circle r="1.35" transform="matrix(-1 0 0 1 104.45 82.7553)" fill="white"/>
<ellipse cx="54" cy="94.7054" rx="4" ry="2.4" fill="#FFDED0"/>
<ellipse cx="113" cy="94.7054" rx="4" ry="2.4" fill="#FFDED0"/>
<path d="M120.944 145.68C117.848 143.455 112.387 143.915 110.725 144.118C110.451 144.151 110.269 144.405 110.324 144.675C110.662 146.315 111.966 151.638 115.062 153.864C118.158 156.089 123.619 155.629 125.281 155.426C125.555 155.393 125.737 155.139 125.682 154.869C125.345 153.229 124.04 147.906 120.944 145.68Z" fill="#BBD468"/>
<path d="M113.356 155.227C113.225 151.975 110.088 148.547 109.016 147.467C108.822 147.271 108.513 147.283 108.335 147.494C107.353 148.657 104.503 152.327 104.634 155.579C104.766 158.831 107.902 162.259 108.974 163.34C109.169 163.535 109.478 163.523 109.656 163.312C110.637 162.149 113.487 158.48 113.356 155.227Z" fill="#BBD468"/>
<rect x="58" y="147.305" width="8" height="8" rx="2" fill="#FBFBFB"/>
<rect x="102" y="147.305" width="8" height="8" rx="2" fill="#FBFBFB"/>
<path d="M33 125.167C33 109.202 47.0636 97.0924 62.9852 98.2782C77.0738 99.3275 89.7644 99.3828 103.902 98.3626C119.851 97.2118 134 109.3 134 125.291V125.291C134 138.812 123.748 150.228 110.255 151.098C91.4304 152.311 75.6815 152.294 56.8708 151.085C43.3141 150.214 33 138.752 33 125.167V125.167Z" fill="#D9E7EE"/>
<circle cx="59.5" cy="107.805" r="3.5" fill="#525151"/>
<circle cx="109.5" cy="107.805" r="3.5" fill="#525151"/>
<path d="M62 127.305C70 140.639 98.4444 140.639 106 127.305" stroke="#525151" stroke-width="2.5" stroke-linecap="round" stroke-linejoin="round"/>
<circle cx="50.25" cy="118.555" r="1.25" fill="#525151"/>
<circle cx="54.25" cy="119.555" r="1.25" fill="#525151"/>
<circle cx="51.25" cy="122.555" r="1.25" fill="#525151"/>
<circle r="1.25" transform="matrix(-1 0 0 1 118.75 118.555)" fill="#525151"/>
<circle r="1.25" transform="matrix(-1 0 0 1 114.75 119.555)" fill="#525151"/>
<circle r="1.25" transform="matrix(-1 0 0 1 117.75 122.555)" fill="#525151"/>
</svg>
