<svg width="168" height="188" viewBox="0 0 168 188" fill="none" xmlns="http://www.w3.org/2000/svg">
<path d="M17.5 7C21.0899 7 24 4.08985 24 0.5C24 0.331764 23.9936 0.165021 23.9811 0H33.0189C33.0064 0.165021 33 0.331764 33 0.5C33 4.08985 35.9101 7 39.5 7C43.0899 7 46 4.08985 46 0.5C46 0.331764 45.9936 0.165021 45.9811 0H55.0189C55.0064 0.165021 55 0.331764 55 0.5C55 4.08985 57.9101 7 61.5 7C65.0899 7 68 4.08985 68 0.5C68 0.331764 67.9936 0.165021 67.9811 0H77.0189C77.0064 0.165021 77 0.331764 77 0.5C77 4.08985 79.9101 7 83.5 7C87.0899 7 90 4.08985 90 0.5C90 0.331764 89.9936 0.165021 89.9811 0H99.0189C99.0064 0.165021 99 0.331764 99 0.5C99 4.08985 101.91 7 105.5 7C109.09 7 112 4.08985 112 0.5C112 0.331764 111.994 0.165021 111.981 0H121.019C121.006 0.165021 121 0.331764 121 0.5C121 4.08985 123.91 7 127.5 7C131.09 7 134 4.08985 134 0.5C134 0.331764 133.994 0.165021 133.981 0H143.019C143.006 0.165021 143 0.331764 143 0.5C143 4.08985 145.91 7 149.5 7C153.09 7 156 4.08985 156 0.5C156 0.331764 155.994 0.165021 155.981 0H168V12.0189C167.835 12.0064 167.668 12 167.5 12C163.91 12 161 14.9101 161 18.5C161 22.0899 163.91 25 167.5 25C167.668 25 167.835 24.9936 168 24.9811V34.0189C167.835 34.0064 167.668 34 167.5 34C163.91 34 161 36.9101 161 40.5C161 44.0899 163.91 47 167.5 47C167.668 47 167.835 46.9936 168 46.9811V56.0189C167.835 56.0064 167.668 56 167.5 56C163.91 56 161 58.9101 161 62.5C161 66.0899 163.91 69 167.5 69C167.668 69 167.835 68.9936 168 68.9811V78.0189C167.835 78.0064 167.668 78 167.5 78C163.91 78 161 80.9101 161 84.5C161 88.0899 163.91 91 167.5 91C167.668 91 167.835 90.9936 168 90.9811V100.019C167.835 100.006 167.668 100 167.5 100C163.91 100 161 102.91 161 106.5C161 110.09 163.91 113 167.5 113C167.668 113 167.835 112.994 168 112.981V122.019C167.835 122.006 167.668 122 167.5 122C163.91 122 161 124.91 161 128.5C161 132.09 163.91 135 167.5 135C167.668 135 167.835 134.994 168 134.981V144.019C167.835 144.006 167.668 144 167.5 144C163.91 144 161 146.91 161 150.5C161 154.09 163.91 157 167.5 157C167.668 157 167.835 156.994 168 156.981V166.019C167.835 166.006 167.668 166 167.5 166C163.91 166 161 168.91 161 172.5C161 176.09 163.91 179 167.5 179C167.668 179 167.835 178.994 168 178.981V188H155.981C155.726 184.644 152.922 182 149.5 182C146.078 182 143.274 184.644 143.019 188H133.981C133.726 184.644 130.922 182 127.5 182C124.078 182 121.274 184.644 121.019 188H111.981C111.726 184.644 108.922 182 105.5 182C102.078 182 99.2743 184.644 99.0189 188H89.9811C89.7257 184.644 86.9216 182 83.5 182C80.0784 182 77.2743 184.644 77.0189 188H67.9811C67.7257 184.644 64.9216 182 61.5 182C58.0784 182 55.2743 184.644 55.0189 188H45.9811C45.7257 184.644 42.9216 182 39.5 182C36.0784 182 33.2743 184.644 33.0189 188H23.9811C23.7257 184.644 20.9216 182 17.5 182C14.0784 182 11.2743 184.644 11.0189 188H0V178.981C0.165021 178.994 0.331764 179 0.5 179C4.08985 179 7 176.09 7 172.5C7 168.91 4.08985 166 0.5 166C0.331764 166 0.165021 166.006 0 166.019V156.981C0.165021 156.994 0.331764 157 0.5 157C4.08985 157 7 154.09 7 150.5C7 146.91 4.08985 144 0.5 144C0.331764 144 0.165021 144.006 0 144.019V134.981C0.165021 134.994 0.331764 135 0.5 135C4.08985 135 7 132.09 7 128.5C7 124.91 4.08985 122 0.5 122C0.331764 122 0.165021 122.006 0 122.019V112.981C0.165021 112.994 0.331764 113 0.5 113C4.08985 113 7 110.09 7 106.5C7 102.91 4.08985 100 0.5 100C0.331764 100 0.165021 100.006 0 100.019V90.9811C0.165021 90.9936 0.331764 91 0.5 91C4.08985 91 7 88.0899 7 84.5C7 80.9101 4.08985 78 0.5 78C0.331764 78 0.165021 78.0064 0 78.0189V68.9811C0.165021 68.9936 0.331764 69 0.5 69C4.08985 69 7 66.0899 7 62.5C7 58.9101 4.08985 56 0.5 56C0.331764 56 0.165021 56.0064 0 56.0189V46.9811C0.165021 46.9936 0.331764 47 0.5 47C4.08985 47 7 44.0899 7 40.5C7 36.9101 4.08985 34 0.5 34C0.331764 34 0.165021 34.0064 0 34.0189V24.9811C0.165021 24.9936 0.331764 25 0.5 25C4.08985 25 7 22.0899 7 18.5C7 14.9101 4.08985 12 0.5 12C0.331764 12 0.165021 12.0064 0 12.0189V0H11.0189C11.0064 0.165021 11 0.331764 11 0.5C11 4.08985 13.9101 7 17.5 7Z" fill="white"/>
<rect x="14" y="16" width="140" height="156" rx="4" fill="#FFF4D0"/>
<circle cx="46.9615" cy="50.9615" r="25.9615" fill="#C4C4C4"/>
<circle cx="45.6301" cy="50.9306" r="17.9733" fill="#FFDED0"/>
<circle r="25.9615" transform="matrix(-1 0 0 1 121.961 50.9615)" fill="#C4C4C4"/>
<circle r="17.9733" transform="matrix(-1 0 0 1 123.293 50.9306)" fill="#FFDED0"/>
<path fill-rule="evenodd" clip-rule="evenodd" d="M82.9443 151.572C82.9463 151.596 82.9482 151.62 82.9501 151.644C82.9508 151.62 82.9516 151.596 82.9525 151.572H82.9443ZM125.879 134.519C126.124 134.501 126.37 134.492 126.619 134.492C132.012 134.492 136.384 138.864 136.384 144.257V145.095C136.384 150.488 132.012 154.86 126.619 154.86C124.198 154.86 121.983 153.979 120.276 152.52C120.175 157.825 115.843 162.096 110.513 162.096C106.295 162.096 102.701 159.421 101.336 155.676C100.43 159.863 96.7042 163 92.2458 163C87.2057 163 83.102 158.991 82.9501 153.987C82.5659 159.029 78.3535 163 73.2135 163C68.4903 163 64.5502 159.647 63.6443 155.191C62.3129 158.698 58.9209 161.191 54.9466 161.191C49.8103 161.191 45.6465 157.027 45.6465 151.891V151.704C43.8618 153.644 41.3016 154.86 38.4574 154.86C33.0643 154.86 28.6923 150.488 28.6923 145.095V144.257C28.6923 138.864 33.0643 134.492 38.4574 134.492C38.6956 134.492 38.9318 134.5 39.1657 134.517C45.0792 124.233 56.1764 117.307 68.891 117.307H96.1527C108.868 117.307 119.966 124.234 125.879 134.519Z" fill="#D5DE72"/>
<path fill-rule="evenodd" clip-rule="evenodd" d="M136.007 105.051C133.874 102.473 132.538 99.2694 132.538 95.9232V95.9232C132.538 67.9053 110.798 45.1923 83.9806 45.1923C57.163 45.1923 35.423 67.9053 35.423 95.9232V95.9232C35.423 99.2694 34.0869 102.473 31.9539 105.051C28.6251 109.075 26.7692 113.552 26.7692 118.269C26.7692 135.793 52.3836 150 83.9806 150C115.578 150 141.192 135.793 141.192 118.269C141.192 113.552 139.336 109.075 136.007 105.051Z" fill="#C4C4C4"/>
<path fill-rule="evenodd" clip-rule="evenodd" d="M133.698 101.319C134.282 102.657 135.067 103.915 136.007 105.051C139.336 109.075 141.192 113.552 141.192 118.269C141.192 135.793 115.578 150 83.9806 150C52.3836 150 26.7692 135.793 26.7692 118.269C26.7692 113.552 28.6251 109.075 31.9539 105.051C32.894 103.915 33.6793 102.657 34.2637 101.319C36.9096 100.462 39.7208 99.9999 42.6346 99.9999C50.7856 99.9999 58.1336 103.613 63.3076 109.398C68.4816 103.613 75.8296 99.9998 83.9806 99.9998C92.1317 99.9998 99.4797 103.613 104.654 109.398C109.828 103.613 117.176 99.9998 125.327 99.9998C128.24 99.9998 131.052 100.462 133.698 101.319Z" fill="#EBEBEB"/>
<rect x="83.5662" y="102.196" width="1.92307" height="11.5384" rx="0.961536" fill="#433D3C"/>
<ellipse cx="84.5732" cy="101.805" rx="7.13278" ry="4.68937" fill="#433D3C"/>
<circle cx="80.8949" cy="100.289" r="1.4423" fill="white"/>
<path d="M76.7691 110.721C80.4128 114.119 88.51 114.119 92.1537 110.721" stroke="#433D3C" stroke-width="1.92307" stroke-linecap="round"/>
<ellipse rx="6.42867" ry="8.03584" transform="matrix(-1 0 0 1 62.044 91.6895)" fill="#433D3C"/>
<ellipse rx="2.41075" ry="2.81254" transform="matrix(-1 0 0 1 63.6511 88.877)" fill="white"/>
<circle r="1.20538" transform="matrix(-1 0 0 1 60.035 92.895)" fill="white"/>
<ellipse rx="6.42867" ry="8.03584" transform="matrix(-1 0 0 1 107.374 91.6895)" fill="#433D3C"/>
<ellipse rx="2.41075" ry="2.81254" transform="matrix(-1 0 0 1 108.982 88.877)" fill="white"/>
<circle r="1.20538" transform="matrix(-1 0 0 1 105.365 92.895)" fill="white"/>
<circle cx="45" cy="117" r="11" fill="#FFDED0"/>
<circle cx="123" cy="117" r="11" fill="#FFDED0"/>
<path d="M105.615 103.324C112.285 102.914 116.068 102.81 122.923 102.933" stroke="#343434" stroke-width="1.5" stroke-linecap="round" stroke-linejoin="round"/>
<path d="M122.849 114.423C116.313 113.251 112.584 112.714 105.775 112.049" stroke="#343434" stroke-width="1.5" stroke-linecap="round" stroke-linejoin="round"/>
<path d="M105.556 107.929C112.141 107.784 115.363 108.058 121.949 108.442" stroke="#343434" stroke-width="1.5" stroke-linecap="round" stroke-linejoin="round"/>
<path d="M64.2691 103.324C57.5998 102.914 53.8164 102.81 46.9615 102.933" stroke="#343434" stroke-width="1.5" stroke-linecap="round" stroke-linejoin="round"/>
<path d="M47.0356 114.423C53.5709 113.251 57.2999 112.714 64.1089 112.049" stroke="#343434" stroke-width="1.5" stroke-linecap="round" stroke-linejoin="round"/>
<path d="M64.3286 107.929C57.7434 107.784 54.5213 108.058 47.935 108.442" stroke="#343434" stroke-width="1.5" stroke-linecap="round" stroke-linejoin="round"/>
<path d="M66.1808 45.4505C65.8919 45.8204 65.5093 46.1252 65.0716 46.3343L63.935 46.877C63.4972 47.0861 63.0197 47.192 62.5504 47.1842L51.0164 46.9926C48.8551 46.9567 47.2603 49.1755 48.2168 50.8506C50.8259 55.4196 52.6023 59.1571 54.5173 64.0586C55.2185 65.8534 57.9426 66.0056 59.2719 64.3038L66.6576 54.8485C66.9465 54.4786 67.3291 54.1738 67.7669 53.9647L68.1753 53.7697C68.613 53.5607 69.0905 53.4547 69.5598 53.4625L81.6148 53.6628C83.7623 53.6985 85.355 51.5058 84.4171 49.8347C81.8246 45.2155 80.0199 41.4739 78.0608 36.5555C77.3501 34.7712 74.6354 34.6268 73.3103 36.3232L66.1808 45.4505Z" fill="#FF8A70"/>
</svg>
