<svg width="168" height="188" viewBox="0 0 168 188" fill="none" xmlns="http://www.w3.org/2000/svg">
<path d="M17.5 7C21.0899 7 24 4.08985 24 0.5C24 0.331764 23.9936 0.165021 23.9811 0H33.0189C33.0064 0.165021 33 0.331764 33 0.5C33 4.08985 35.9101 7 39.5 7C43.0899 7 46 4.08985 46 0.5C46 0.331764 45.9936 0.165021 45.9811 0H55.0189C55.0064 0.165021 55 0.331764 55 0.5C55 4.08985 57.9101 7 61.5 7C65.0899 7 68 4.08985 68 0.5C68 0.331764 67.9936 0.165021 67.9811 0H77.0189C77.0064 0.165021 77 0.331764 77 0.5C77 4.08985 79.9101 7 83.5 7C87.0899 7 90 4.08985 90 0.5C90 0.331764 89.9936 0.165021 89.9811 0H99.0189C99.0064 0.165021 99 0.331764 99 0.5C99 4.08985 101.91 7 105.5 7C109.09 7 112 4.08985 112 0.5C112 0.331764 111.994 0.165021 111.981 0H121.019C121.006 0.165021 121 0.331764 121 0.5C121 4.08985 123.91 7 127.5 7C131.09 7 134 4.08985 134 0.5C134 0.331764 133.994 0.165021 133.981 0H143.019C143.006 0.165021 143 0.331764 143 0.5C143 4.08985 145.91 7 149.5 7C153.09 7 156 4.08985 156 0.5C156 0.331764 155.994 0.165021 155.981 0H168V12.0189C167.835 12.0064 167.668 12 167.5 12C163.91 12 161 14.9101 161 18.5C161 22.0899 163.91 25 167.5 25C167.668 25 167.835 24.9936 168 24.9811V34.0189C167.835 34.0064 167.668 34 167.5 34C163.91 34 161 36.9101 161 40.5C161 44.0899 163.91 47 167.5 47C167.668 47 167.835 46.9936 168 46.9811V56.0189C167.835 56.0064 167.668 56 167.5 56C163.91 56 161 58.9101 161 62.5C161 66.0899 163.91 69 167.5 69C167.668 69 167.835 68.9936 168 68.9811V78.0189C167.835 78.0064 167.668 78 167.5 78C163.91 78 161 80.9101 161 84.5C161 88.0899 163.91 91 167.5 91C167.668 91 167.835 90.9936 168 90.9811V100.019C167.835 100.006 167.668 100 167.5 100C163.91 100 161 102.91 161 106.5C161 110.09 163.91 113 167.5 113C167.668 113 167.835 112.994 168 112.981V122.019C167.835 122.006 167.668 122 167.5 122C163.91 122 161 124.91 161 128.5C161 132.09 163.91 135 167.5 135C167.668 135 167.835 134.994 168 134.981V144.019C167.835 144.006 167.668 144 167.5 144C163.91 144 161 146.91 161 150.5C161 154.09 163.91 157 167.5 157C167.668 157 167.835 156.994 168 156.981V166.019C167.835 166.006 167.668 166 167.5 166C163.91 166 161 168.91 161 172.5C161 176.09 163.91 179 167.5 179C167.668 179 167.835 178.994 168 178.981V188H155.981C155.726 184.644 152.922 182 149.5 182C146.078 182 143.274 184.644 143.019 188H133.981C133.726 184.644 130.922 182 127.5 182C124.078 182 121.274 184.644 121.019 188H111.981C111.726 184.644 108.922 182 105.5 182C102.078 182 99.2743 184.644 99.0189 188H89.9811C89.7257 184.644 86.9216 182 83.5 182C80.0784 182 77.2743 184.644 77.0189 188H67.9811C67.7257 184.644 64.9216 182 61.5 182C58.0784 182 55.2743 184.644 55.0189 188H45.9811C45.7257 184.644 42.9216 182 39.5 182C36.0784 182 33.2743 184.644 33.0189 188H23.9811C23.7257 184.644 20.9216 182 17.5 182C14.0784 182 11.2743 184.644 11.0189 188H0V178.981C0.165021 178.994 0.331764 179 0.5 179C4.08985 179 7 176.09 7 172.5C7 168.91 4.08985 166 0.5 166C0.331764 166 0.165021 166.006 0 166.019V156.981C0.165021 156.994 0.331764 157 0.5 157C4.08985 157 7 154.09 7 150.5C7 146.91 4.08985 144 0.5 144C0.331764 144 0.165021 144.006 0 144.019V134.981C0.165021 134.994 0.331764 135 0.5 135C4.08985 135 7 132.09 7 128.5C7 124.91 4.08985 122 0.5 122C0.331764 122 0.165021 122.006 0 122.019V112.981C0.165021 112.994 0.331764 113 0.5 113C4.08985 113 7 110.09 7 106.5C7 102.91 4.08985 100 0.5 100C0.331764 100 0.165021 100.006 0 100.019V90.9811C0.165021 90.9936 0.331764 91 0.5 91C4.08985 91 7 88.0899 7 84.5C7 80.9101 4.08985 78 0.5 78C0.331764 78 0.165021 78.0064 0 78.0189V68.9811C0.165021 68.9936 0.331764 69 0.5 69C4.08985 69 7 66.0899 7 62.5C7 58.9101 4.08985 56 0.5 56C0.331764 56 0.165021 56.0064 0 56.0189V46.9811C0.165021 46.9936 0.331764 47 0.5 47C4.08985 47 7 44.0899 7 40.5C7 36.9101 4.08985 34 0.5 34C0.331764 34 0.165021 34.0064 0 34.0189V24.9811C0.165021 24.9936 0.331764 25 0.5 25C4.08985 25 7 22.0899 7 18.5C7 14.9101 4.08985 12 0.5 12C0.331764 12 0.165021 12.0064 0 12.0189V0H11.0189C11.0064 0.165021 11 0.331764 11 0.5C11 4.08985 13.9101 7 17.5 7Z" fill="white"/>
<g clip-path="url(#clip0_106_1132)">
<rect x="14" y="16" width="140" height="156" rx="4" fill="#FFE6C8"/>
<path d="M80.8369 45.0727C82.1147 40.3423 88.0696 36.349 88.0696 36.349C88.0696 36.349 90.7176 42.4403 89.4397 47.1707C88.1619 51.9012 82.6768 56.3123 82.6768 56.3123C82.6768 56.3123 79.559 49.8032 80.8369 45.0727Z" fill="#ACCC5F"/>
<path d="M77.8862 42.4706C73.7595 37.5054 64.1836 36.0954 64.1836 36.0954C64.1836 36.0954 64.0501 45.0022 68.1767 49.9675C72.3034 54.9328 81.5988 57.0497 81.5988 57.0497C81.5988 57.0497 82.0128 47.4359 77.8862 42.4706Z" fill="#BBD468"/>
<circle cx="41.5" cy="68.5232" r="19.5" fill="#454545"/>
<circle cx="40.5" cy="68.5" r="13.5" fill="#FFDED0"/>
<circle cx="127.5" cy="68.5232" r="19.5" fill="#454545"/>
<circle cx="127.5" cy="68.5" r="13.5" fill="#FFDED0"/>
<path d="M142 104.177C142 129.87 116.033 154 84 154C51.9675 154 26 129.87 26 104.177C26 78.4839 51.9675 50 84 50C116.033 50 142 78.4839 142 104.177Z" fill="#FBFBFB"/>
<circle cx="53" cy="99" r="13" fill="#454545"/>
<circle cx="57.3888" cy="96.5066" r="4.5" transform="rotate(-150 57.3888 96.5066)" fill="white"/>
<circle cx="51.3398" cy="104.458" r="3" transform="rotate(-150 51.3398 104.458)" fill="white"/>
<circle cx="117" cy="99" r="13" fill="#454545"/>
<circle cx="121.389" cy="96.5066" r="4.5" transform="rotate(-150 121.389 96.5066)" fill="white"/>
<circle cx="115.34" cy="104.458" r="3" transform="rotate(-150 115.34 104.458)" fill="white"/>
<ellipse cx="46.5" cy="120.5" rx="7.5" ry="5.5" fill="#FFC6AD"/>
<ellipse cx="123.5" cy="120.5" rx="7.5" ry="5.5" fill="#FFC6AD"/>
<rect x="83.9038" y="114.009" width="2.14795" height="8.91294" rx="1.07397" fill="#454545"/>
<ellipse cx="84.935" cy="111.612" rx="7.30303" ry="4.61181" fill="#454545"/>
<ellipse cx="81.1974" cy="109.6" rx="1.15989" ry="1.11412" fill="white"/>
<path d="M77.5 120.493C81.3663 123.836 88.6337 123.836 92.5 120.493" stroke="#454545" stroke-width="2.5" stroke-linecap="round"/>
<path d="M74.4643 98.7857C74.4643 111.181 63.9475 121.321 50.8571 121.321C37.7668 121.321 27.25 111.181 27.25 98.7857C27.25 86.3909 37.7668 76.25 50.8571 76.25C63.9475 76.25 74.4643 86.3909 74.4643 98.7857Z" stroke="#323232" stroke-width="2.5"/>
<path d="M140.75 98.7857C140.75 111.181 130.233 121.321 117.143 121.321C104.053 121.321 93.5357 111.181 93.5357 98.7857C93.5357 86.3909 104.053 76.25 117.143 76.25C130.233 76.25 140.75 86.3909 140.75 98.7857Z" stroke="#323232" stroke-width="2.5"/>
<path d="M74.6095 97.0383C81.6834 95.8336 85.8348 95.8553 93.3905 97.0383V101.429C86.1753 100.331 82.0612 100.315 74.6095 101.429V97.0383Z" fill="#242424"/>
<path d="M108.48 125.717C108.709 125.347 108.563 124.86 108.169 124.675C103.778 122.619 101.152 121.095 97.1302 118.389C96.7702 118.147 96.2777 118.272 96.0794 118.658C92.3565 125.898 90.0403 130.109 85.5148 137.155C81.2019 145.528 78.6268 150.134 73.5976 158.1C69.9381 165.53 67.6204 169.663 63.213 176.438C62.9975 176.77 63.088 177.214 63.4167 177.434C67.5326 180.179 70.1828 181.696 74.6534 183.827C75.0042 183.994 75.4258 183.852 75.6047 183.507C79.3264 176.33 81.6919 172.224 86.0584 165.19C90.4925 156.885 93.123 152.311 97.9756 144.245C101.861 136.785 104.141 132.691 108.48 125.717Z" fill="#BCD466"/>
<g style="mix-blend-mode:multiply" opacity="0.25">
<path fill-rule="evenodd" clip-rule="evenodd" d="M70.7422 181.872C68.2959 180.574 66.1887 179.283 63.4167 177.434C63.088 177.214 62.9975 176.77 63.213 176.438C67.6204 169.663 69.9381 165.53 73.5976 158.1C78.6268 150.134 81.2019 145.528 85.5147 137.155C90.0403 130.109 92.3565 125.898 96.0793 118.658C96.2777 118.272 96.7702 118.147 97.1302 118.389C98.2057 119.113 99.1815 119.752 100.118 120.339C99.9336 120.392 99.7699 120.517 99.6744 120.703C95.9515 127.944 93.6353 132.155 89.1098 139.2C84.7969 147.574 82.2218 152.179 77.1926 160.145C73.5331 167.575 71.2154 171.709 66.808 178.484C66.5925 178.815 66.683 179.26 67.0117 179.479C68.3764 180.389 69.5799 181.165 70.7422 181.872ZM104.42 122.823C105.559 123.423 106.775 124.022 108.169 124.675C108.376 124.772 108.514 124.953 108.566 125.156C107.105 124.402 105.789 123.661 104.42 122.823Z" fill="#BCD466"/>
</g>
<path d="M104.494 146.883C107.257 150.879 106.437 158.259 106.437 158.259C106.437 158.259 100.104 156.641 97.3417 152.645C94.5791 148.648 94.7783 141.394 94.7783 141.394C94.7783 141.394 101.732 142.887 104.494 146.883Z" fill="#ACCC5F"/>
<path d="M110.431 145.627C116.519 143.116 121.226 134.141 121.226 134.141C121.226 134.141 112.976 131.239 106.889 133.751C100.801 136.263 95.5342 144.741 95.5342 144.741C95.5342 144.741 104.343 148.139 110.431 145.627Z" fill="#BBD468"/>
<path d="M63.5782 152.334C60.5083 146.971 61.6057 138.14 61.6057 138.14C61.6057 138.14 68.8067 141.257 71.8766 146.62C74.9465 151.983 74.5612 160.774 74.5612 160.774C74.5612 160.774 66.6481 157.697 63.5782 152.334Z" fill="#ACCC5F"/>
<path d="M69.5404 147.908C69.1437 142.59 73.4077 136.041 73.4077 136.041C73.4077 136.041 78.0438 141.062 78.4404 146.379C78.8371 151.697 75.0817 158.482 75.0817 158.482C75.0817 158.482 69.937 153.225 69.5404 147.908Z" fill="#BBD468"/>
<rect width="14.3366" height="5.94194" rx="2.97097" transform="matrix(-0.86916 -0.494531 -0.494531 0.86916 99.4448 141.662)" fill="#8BB554"/>
<rect width="14.3366" height="5.94194" rx="2.97097" transform="matrix(-0.86916 -0.494531 -0.494531 0.86916 87.6909 162.32)" fill="#8BB554"/>
</g>
<defs>
<clipPath id="clip0_106_1132">
<rect x="14" y="16" width="140" height="156" rx="4" fill="white"/>
</clipPath>
</defs>
</svg>
