<svg width="168" height="188" viewBox="0 0 168 188" fill="none" xmlns="http://www.w3.org/2000/svg">
<path d="M17.5 7C21.0899 7 24 4.08985 24 0.5C24 0.331764 23.9936 0.165021 23.9811 0H33.0189C33.0064 0.165021 33 0.331764 33 0.5C33 4.08985 35.9101 7 39.5 7C43.0899 7 46 4.08985 46 0.5C46 0.331764 45.9936 0.165021 45.9811 0H55.0189C55.0064 0.165021 55 0.331764 55 0.5C55 4.08985 57.9101 7 61.5 7C65.0899 7 68 4.08985 68 0.5C68 0.331764 67.9936 0.165021 67.9811 0H77.0189C77.0064 0.165021 77 0.331764 77 0.5C77 4.08985 79.9101 7 83.5 7C87.0899 7 90 4.08985 90 0.5C90 0.331764 89.9936 0.165021 89.9811 0H99.0189C99.0064 0.165021 99 0.331764 99 0.5C99 4.08985 101.91 7 105.5 7C109.09 7 112 4.08985 112 0.5C112 0.331764 111.994 0.165021 111.981 0H121.019C121.006 0.165021 121 0.331764 121 0.5C121 4.08985 123.91 7 127.5 7C131.09 7 134 4.08985 134 0.5C134 0.331764 133.994 0.165021 133.981 0H143.019C143.006 0.165021 143 0.331764 143 0.5C143 4.08985 145.91 7 149.5 7C153.09 7 156 4.08985 156 0.5C156 0.331764 155.994 0.165021 155.981 0H168V12.0189C167.835 12.0064 167.668 12 167.5 12C163.91 12 161 14.9101 161 18.5C161 22.0899 163.91 25 167.5 25C167.668 25 167.835 24.9936 168 24.9811V34.0189C167.835 34.0064 167.668 34 167.5 34C163.91 34 161 36.9101 161 40.5C161 44.0899 163.91 47 167.5 47C167.668 47 167.835 46.9936 168 46.9811V56.0189C167.835 56.0064 167.668 56 167.5 56C163.91 56 161 58.9101 161 62.5C161 66.0899 163.91 69 167.5 69C167.668 69 167.835 68.9936 168 68.9811V78.0189C167.835 78.0064 167.668 78 167.5 78C163.91 78 161 80.9101 161 84.5C161 88.0899 163.91 91 167.5 91C167.668 91 167.835 90.9936 168 90.9811V100.019C167.835 100.006 167.668 100 167.5 100C163.91 100 161 102.91 161 106.5C161 110.09 163.91 113 167.5 113C167.668 113 167.835 112.994 168 112.981V122.019C167.835 122.006 167.668 122 167.5 122C163.91 122 161 124.91 161 128.5C161 132.09 163.91 135 167.5 135C167.668 135 167.835 134.994 168 134.981V144.019C167.835 144.006 167.668 144 167.5 144C163.91 144 161 146.91 161 150.5C161 154.09 163.91 157 167.5 157C167.668 157 167.835 156.994 168 156.981V166.019C167.835 166.006 167.668 166 167.5 166C163.91 166 161 168.91 161 172.5C161 176.09 163.91 179 167.5 179C167.668 179 167.835 178.994 168 178.981V188H155.981C155.726 184.644 152.922 182 149.5 182C146.078 182 143.274 184.644 143.019 188H133.981C133.726 184.644 130.922 182 127.5 182C124.078 182 121.274 184.644 121.019 188H111.981C111.726 184.644 108.922 182 105.5 182C102.078 182 99.2743 184.644 99.0189 188H89.9811C89.7257 184.644 86.9216 182 83.5 182C80.0784 182 77.2743 184.644 77.0189 188H67.9811C67.7257 184.644 64.9216 182 61.5 182C58.0784 182 55.2743 184.644 55.0189 188H45.9811C45.7257 184.644 42.9216 182 39.5 182C36.0784 182 33.2743 184.644 33.0189 188H23.9811C23.7257 184.644 20.9216 182 17.5 182C14.0784 182 11.2743 184.644 11.0189 188H0V178.981C0.165021 178.994 0.331764 179 0.5 179C4.08985 179 7 176.09 7 172.5C7 168.91 4.08985 166 0.5 166C0.331764 166 0.165021 166.006 0 166.019V156.981C0.165021 156.994 0.331764 157 0.5 157C4.08985 157 7 154.09 7 150.5C7 146.91 4.08985 144 0.5 144C0.331764 144 0.165021 144.006 0 144.019V134.981C0.165021 134.994 0.331764 135 0.5 135C4.08985 135 7 132.09 7 128.5C7 124.91 4.08985 122 0.5 122C0.331764 122 0.165021 122.006 0 122.019V112.981C0.165021 112.994 0.331764 113 0.5 113C4.08985 113 7 110.09 7 106.5C7 102.91 4.08985 100 0.5 100C0.331764 100 0.165021 100.006 0 100.019V90.9811C0.165021 90.9936 0.331764 91 0.5 91C4.08985 91 7 88.0899 7 84.5C7 80.9101 4.08985 78 0.5 78C0.331764 78 0.165021 78.0064 0 78.0189V68.9811C0.165021 68.9936 0.331764 69 0.5 69C4.08985 69 7 66.0899 7 62.5C7 58.9101 4.08985 56 0.5 56C0.331764 56 0.165021 56.0064 0 56.0189V46.9811C0.165021 46.9936 0.331764 47 0.5 47C4.08985 47 7 44.0899 7 40.5C7 36.9101 4.08985 34 0.5 34C0.331764 34 0.165021 34.0064 0 34.0189V24.9811C0.165021 24.9936 0.331764 25 0.5 25C4.08985 25 7 22.0899 7 18.5C7 14.9101 4.08985 12 0.5 12C0.331764 12 0.165021 12.0064 0 12.0189V0H11.0189C11.0064 0.165021 11 0.331764 11 0.5C11 4.08985 13.9101 7 17.5 7Z" fill="white"/>
<rect x="14" y="16" width="140" height="156" rx="4" fill="#FEE7CB"/>
<path fill-rule="evenodd" clip-rule="evenodd" d="M91.7634 35.3029C94.3582 36.2474 95.6962 39.1166 94.7517 41.7115L90.9895 52.0481C90.1803 54.2712 87.9584 55.5718 85.7065 55.3048C85.3371 55.5734 84.9243 55.7955 84.4737 55.9595C81.8788 56.904 79.0096 55.5661 78.0651 52.9712L74.3029 42.6346C73.3584 40.0397 74.6964 37.1705 77.2913 36.226C79.8861 35.2815 82.7554 36.6195 83.6998 39.2144L84.3593 41.0263L85.3548 38.2913C86.2993 35.6964 89.1685 34.3584 91.7634 35.3029Z" fill="#282828"/>
<ellipse cx="84" cy="93.5" rx="49" ry="50.5" fill="#282828"/>
<path fill-rule="evenodd" clip-rule="evenodd" d="M40.5311 116.83C40.528 116.807 40.525 116.785 40.522 116.762C37.5644 94.6321 47.4747 75.0473 62.6572 73.0183C70.4102 71.9822 78.0387 75.7243 84.042 82.5817C90.0453 75.7243 97.6739 71.9822 105.427 73.0183C120.573 75.0425 130.472 94.5384 127.583 116.603C119.447 132.874 102.984 144 84 144C65.1044 144 48.7068 132.977 40.5311 116.83Z" fill="white"/>
<circle cx="54.5" cy="113.5" r="7.5" fill="#FFC6AD"/>
<circle cx="113.5" cy="113.5" r="7.5" fill="#FFC6AD"/>
<g filter="url(#filter0_f_60_210)">
<path d="M35.2922 106.711C35.413 105.95 36.3136 105.604 36.9248 106.072C63.4566 126.394 105.974 125.492 130.625 106.048C131.217 105.581 132.103 105.889 132.259 106.627L136.725 127.705C137.477 131.254 135.755 134.89 132.443 136.371C100.678 150.567 65.7394 150.543 36.026 136.298C32.9739 134.835 31.3548 131.492 31.8859 128.149L35.2922 106.711Z" fill="#8ED2C9"/>
</g>
<path d="M35.2922 106.711C35.413 105.95 36.3136 105.604 36.9248 106.072C63.4566 126.394 105.974 125.492 130.625 106.048C131.217 105.581 132.103 105.889 132.259 106.627L136.725 127.705C137.477 131.254 135.755 134.89 132.443 136.371C100.678 150.567 65.7394 150.543 36.026 136.298C32.9739 134.835 31.3548 131.492 31.8859 128.149L35.2922 106.711Z" fill="#8ED2C9"/>
<g filter="url(#filter1_f_60_210)">
<path d="M99.9926 133C98.8241 133 97.9035 134.001 98.0081 135.165C99.097 147.28 100.759 154.195 107.086 162.995C107.531 163.614 108.298 163.912 109.047 163.772L109.14 163.755C109.676 165.311 110.557 166.558 111.588 167.678C111.962 168.084 112.595 168.11 113.001 167.736C113.407 167.361 113.433 166.729 113.059 166.322C112.225 165.417 111.562 164.484 111.134 163.383L113.537 162.935C114.058 164.642 114.987 165.983 116.088 167.178C116.462 167.584 117.095 167.61 117.501 167.236C117.907 166.861 117.933 166.229 117.559 165.822C116.646 164.831 115.938 163.807 115.518 162.565L117.613 162.175C118.146 163.769 119.039 165.039 120.088 166.178C120.462 166.584 121.095 166.61 121.501 166.236C121.907 165.861 121.933 165.229 121.559 164.822C120.705 163.895 120.031 162.939 119.603 161.804L121.697 161.414C122.236 162.897 123.092 164.097 124.088 165.178C124.462 165.584 125.095 165.61 125.501 165.236C125.907 164.861 125.933 164.229 125.559 163.822C124.765 162.96 124.126 162.073 123.697 161.041L125.787 160.651C126.329 162.026 127.146 163.155 128.088 164.178C128.462 164.584 129.095 164.61 129.501 164.236C129.907 163.861 129.933 163.229 129.559 162.822C128.826 162.027 128.225 161.209 127.8 160.276L129.883 159.887C130.424 161.156 131.2 162.214 132.088 163.178C132.462 163.584 133.095 163.61 133.501 163.236C133.907 162.861 133.933 162.229 133.559 161.822C132.887 161.094 132.327 160.347 131.911 159.509L133.987 159.122C134.521 160.288 135.256 161.274 136.088 162.178C136.462 162.584 137.095 162.61 137.501 162.236C137.907 161.861 137.933 161.229 137.559 160.822C136.818 160.018 136.212 159.192 135.786 158.246C136.239 157.636 136.341 156.78 135.93 156.043C131.581 148.238 129.458 142.953 127.658 134.604C127.457 133.674 126.639 133 125.687 133H99.9926Z" fill="#8ED2C9"/>
</g>
<path fill-rule="evenodd" clip-rule="evenodd" d="M99.9926 133C98.8241 133 97.9035 134.001 98.0081 135.165C99.097 147.28 100.759 154.195 107.086 162.995C107.531 163.614 108.298 163.912 109.047 163.772L109.14 163.755C109.676 165.311 110.557 166.558 111.588 167.678C111.962 168.084 112.595 168.11 113.001 167.736C113.407 167.361 113.433 166.729 113.059 166.323C112.225 165.417 111.562 164.484 111.134 163.383L113.537 162.935C114.058 164.642 114.987 165.983 116.088 167.178C116.462 167.584 117.095 167.61 117.501 167.236C117.907 166.861 117.933 166.229 117.559 165.823C116.646 164.831 115.938 163.807 115.518 162.565L117.613 162.175C118.146 163.769 119.039 165.039 120.088 166.178C120.462 166.584 121.095 166.61 121.501 166.236C121.907 165.861 121.933 165.229 121.559 164.823C120.705 163.895 120.031 162.939 119.603 161.804L121.697 161.414C122.236 162.897 123.092 164.097 124.088 165.178C124.462 165.584 125.095 165.61 125.501 165.236C125.907 164.861 125.933 164.229 125.559 163.823C124.765 162.96 124.126 162.073 123.697 161.041L125.787 160.651C126.329 162.026 127.146 163.155 128.088 164.178C128.462 164.584 129.095 164.61 129.501 164.236C129.907 163.861 129.933 163.229 129.559 162.823C128.826 162.027 128.225 161.209 127.8 160.276L129.883 159.887C130.424 161.156 131.2 162.214 132.088 163.178C132.462 163.584 133.095 163.61 133.501 163.236C133.907 162.861 133.933 162.229 133.559 161.823C132.887 161.094 132.327 160.347 131.911 159.509L133.987 159.122C134.521 160.288 135.256 161.274 136.088 162.178C136.462 162.584 137.095 162.61 137.501 162.236C137.907 161.861 137.933 161.229 137.559 160.823C136.818 160.018 136.212 159.192 135.786 158.246C136.239 157.636 136.341 156.78 135.93 156.043C131.581 148.238 129.458 142.953 127.658 134.604C127.457 133.674 126.639 133 125.687 133H99.9926Z" fill="#8ED2C9"/>
<path d="M112.114 140.589C112.182 140.549 112.248 140.507 112.314 140.461C113.428 139.672 113.697 138.135 112.913 137.027C112.13 135.92 110.591 135.662 109.476 136.451C109.368 136.527 109.267 136.611 109.175 136.701C109.107 135.747 108.502 134.877 107.566 134.533C106.299 134.068 104.905 134.742 104.452 136.038C104.21 136.73 104.285 137.458 104.599 138.058C104.499 138.046 104.396 138.039 104.293 138.039C102.919 138.035 101.82 139.126 101.837 140.475C101.855 141.824 102.982 142.921 104.355 142.925C104.429 142.925 104.503 142.922 104.575 142.916C104.545 142.982 104.518 143.05 104.494 143.12C104.04 144.417 104.7 145.845 105.967 146.309C107.233 146.774 108.627 146.1 109.08 144.804C109.121 144.689 109.152 144.573 109.175 144.456C109.624 144.861 110.221 145.109 110.873 145.111C112.246 145.115 113.345 144.024 113.328 142.675C113.317 141.794 112.832 141.02 112.114 140.589Z" fill="white"/>
<g style="mix-blend-mode:multiply">
<circle cx="108.097" cy="140.606" r="1.85293" transform="rotate(79.3678 108.097 140.606)" fill="#FED402"/>
</g>
<path d="M126.93 150.003C127.025 149.949 127.118 149.889 127.21 149.825C128.768 148.722 129.143 146.574 128.048 145.026C126.952 143.478 124.801 143.118 123.243 144.22C123.092 144.327 122.952 144.444 122.823 144.57C122.727 143.236 121.882 142.02 120.574 141.54C118.804 140.89 116.855 141.832 116.222 143.644C115.884 144.61 115.989 145.628 116.428 146.467C116.287 146.449 116.144 146.44 115.999 146.44C114.08 146.435 112.544 147.959 112.568 149.844C112.592 151.73 114.167 153.263 116.087 153.268C116.19 153.269 116.293 153.264 116.394 153.256C116.352 153.349 116.314 153.444 116.28 153.542C115.647 155.353 116.569 157.349 118.339 157.999C120.109 158.649 122.057 157.707 122.691 155.895C122.747 155.734 122.791 155.572 122.823 155.409C123.45 155.975 124.284 156.322 125.196 156.324C127.115 156.33 128.651 154.805 128.627 152.92C128.612 151.688 127.934 150.606 126.93 150.003Z" fill="white"/>
<g style="mix-blend-mode:multiply">
<circle cx="121.317" cy="150.027" r="2.58966" transform="rotate(79.3678 121.317 150.027)" fill="#FED402"/>
</g>
<circle r="6.5" transform="matrix(-1 0 0 1 61.5 100.5)" fill="#282828"/>
<circle r="1.5" transform="matrix(-1 0 0 1 64.5 98.5)" fill="white"/>
<circle r="6.5" transform="matrix(-1 0 0 1 106.5 100.5)" fill="#282828"/>
<circle r="1.5" transform="matrix(-1 0 0 1 109.5 98.5)" fill="white"/>
<path d="M93 102.5C93 100.015 88.9706 98 84 98C79.0294 98 75 100.015 75 102.5C75 104.985 79.0294 110 84 110C88.9706 110 93 104.985 93 102.5Z" fill="#FED402"/>
<circle cx="41" cy="38" r="2" fill="white"/>
<circle cx="140" cy="72" r="2" fill="white"/>
<circle cx="123" cy="39" r="2" fill="white"/>
<circle cx="32" cy="155" r="2" fill="white"/>
<circle cx="103" cy="68" r="2" fill="white"/>
<circle cx="63" cy="110" r="2" fill="white"/>
<circle cx="32" cy="60" r="2" fill="white"/>
<circle cx="142" cy="34" r="2" fill="white"/>
<circle cx="146.5" cy="136.5" r="1.5" fill="white"/>
<circle cx="140.5" cy="155.5" r="1.5" fill="white"/>
<circle cx="21.5" cy="138.5" r="1.5" fill="white"/>
<defs>
<filter id="filter0_f_60_210" x="30.7861" y="104.826" width="107.113" height="43.1737" filterUnits="userSpaceOnUse" color-interpolation-filters="sRGB">
<feFlood flood-opacity="0" result="BackgroundImageFix"/>
<feBlend mode="normal" in="SourceGraphic" in2="BackgroundImageFix" result="shape"/>
<feGaussianBlur stdDeviation="0.5" result="effect1_foregroundBlur_60_210"/>
</filter>
<filter id="filter1_f_60_210" x="97" y="132" width="41.8234" height="37" filterUnits="userSpaceOnUse" color-interpolation-filters="sRGB">
<feFlood flood-opacity="0" result="BackgroundImageFix"/>
<feBlend mode="normal" in="SourceGraphic" in2="BackgroundImageFix" result="shape"/>
<feGaussianBlur stdDeviation="0.5" result="effect1_foregroundBlur_60_210"/>
</filter>
</defs>
</svg>
