<svg width="168" height="188" viewBox="0 0 168 188" fill="none" xmlns="http://www.w3.org/2000/svg">
<path d="M17.5 7C21.0899 7 24 4.08985 24 0.5C24 0.331764 23.9936 0.165021 23.9811 0H33.0189C33.0064 0.165021 33 0.331764 33 0.5C33 4.08985 35.9101 7 39.5 7C43.0899 7 46 4.08985 46 0.5C46 0.331764 45.9936 0.165021 45.9811 0H55.0189C55.0064 0.165021 55 0.331764 55 0.5C55 4.08985 57.9101 7 61.5 7C65.0899 7 68 4.08985 68 0.5C68 0.331764 67.9936 0.165021 67.9811 0H77.0189C77.0064 0.165021 77 0.331764 77 0.5C77 4.08985 79.9101 7 83.5 7C87.0899 7 90 4.08985 90 0.5C90 0.331764 89.9936 0.165021 89.9811 0H99.0189C99.0064 0.165021 99 0.331764 99 0.5C99 4.08985 101.91 7 105.5 7C109.09 7 112 4.08985 112 0.5C112 0.331764 111.994 0.165021 111.981 0H121.019C121.006 0.165021 121 0.331764 121 0.5C121 4.08985 123.91 7 127.5 7C131.09 7 134 4.08985 134 0.5C134 0.331764 133.994 0.165021 133.981 0H143.019C143.006 0.165021 143 0.331764 143 0.5C143 4.08985 145.91 7 149.5 7C153.09 7 156 4.08985 156 0.5C156 0.331764 155.994 0.165021 155.981 0H168V12.0189C167.835 12.0064 167.668 12 167.5 12C163.91 12 161 14.9101 161 18.5C161 22.0899 163.91 25 167.5 25C167.668 25 167.835 24.9936 168 24.9811V34.0189C167.835 34.0064 167.668 34 167.5 34C163.91 34 161 36.9101 161 40.5C161 44.0899 163.91 47 167.5 47C167.668 47 167.835 46.9936 168 46.9811V56.0189C167.835 56.0064 167.668 56 167.5 56C163.91 56 161 58.9101 161 62.5C161 66.0899 163.91 69 167.5 69C167.668 69 167.835 68.9936 168 68.9811V78.0189C167.835 78.0064 167.668 78 167.5 78C163.91 78 161 80.9101 161 84.5C161 88.0899 163.91 91 167.5 91C167.668 91 167.835 90.9936 168 90.9811V100.019C167.835 100.006 167.668 100 167.5 100C163.91 100 161 102.91 161 106.5C161 110.09 163.91 113 167.5 113C167.668 113 167.835 112.994 168 112.981V122.019C167.835 122.006 167.668 122 167.5 122C163.91 122 161 124.91 161 128.5C161 132.09 163.91 135 167.5 135C167.668 135 167.835 134.994 168 134.981V144.019C167.835 144.006 167.668 144 167.5 144C163.91 144 161 146.91 161 150.5C161 154.09 163.91 157 167.5 157C167.668 157 167.835 156.994 168 156.981V166.019C167.835 166.006 167.668 166 167.5 166C163.91 166 161 168.91 161 172.5C161 176.09 163.91 179 167.5 179C167.668 179 167.835 178.994 168 178.981V188H155.981C155.726 184.644 152.922 182 149.5 182C146.078 182 143.274 184.644 143.019 188H133.981C133.726 184.644 130.922 182 127.5 182C124.078 182 121.274 184.644 121.019 188H111.981C111.726 184.644 108.922 182 105.5 182C102.078 182 99.2743 184.644 99.0189 188H89.9811C89.7257 184.644 86.9216 182 83.5 182C80.0784 182 77.2743 184.644 77.0189 188H67.9811C67.7257 184.644 64.9216 182 61.5 182C58.0784 182 55.2743 184.644 55.0189 188H45.9811C45.7257 184.644 42.9216 182 39.5 182C36.0784 182 33.2743 184.644 33.0189 188H23.9811C23.7257 184.644 20.9216 182 17.5 182C14.0784 182 11.2743 184.644 11.0189 188H0V178.981C0.165021 178.994 0.331764 179 0.5 179C4.08985 179 7 176.09 7 172.5C7 168.91 4.08985 166 0.5 166C0.331764 166 0.165021 166.006 0 166.019V156.981C0.165021 156.994 0.331764 157 0.5 157C4.08985 157 7 154.09 7 150.5C7 146.91 4.08985 144 0.5 144C0.331764 144 0.165021 144.006 0 144.019V134.981C0.165021 134.994 0.331764 135 0.5 135C4.08985 135 7 132.09 7 128.5C7 124.91 4.08985 122 0.5 122C0.331764 122 0.165021 122.006 0 122.019V112.981C0.165021 112.994 0.331764 113 0.5 113C4.08985 113 7 110.09 7 106.5C7 102.91 4.08985 100 0.5 100C0.331764 100 0.165021 100.006 0 100.019V90.9811C0.165021 90.9936 0.331764 91 0.5 91C4.08985 91 7 88.0899 7 84.5C7 80.9101 4.08985 78 0.5 78C0.331764 78 0.165021 78.0064 0 78.0189V68.9811C0.165021 68.9936 0.331764 69 0.5 69C4.08985 69 7 66.0899 7 62.5C7 58.9101 4.08985 56 0.5 56C0.331764 56 0.165021 56.0064 0 56.0189V46.9811C0.165021 46.9936 0.331764 47 0.5 47C4.08985 47 7 44.0899 7 40.5C7 36.9101 4.08985 34 0.5 34C0.331764 34 0.165021 34.0064 0 34.0189V24.9811C0.165021 24.9936 0.331764 25 0.5 25C4.08985 25 7 22.0899 7 18.5C7 14.9101 4.08985 12 0.5 12C0.331764 12 0.165021 12.0064 0 12.0189V0H11.0189C11.0064 0.165021 11 0.331764 11 0.5C11 4.08985 13.9101 7 17.5 7Z" fill="white"/>
<rect x="14" y="16" width="140" height="156" rx="4" fill="#FFEBA8"/>
<path d="M50.9263 49.6358C43.3573 51.4144 40.1038 88.1679 40.1038 88.1679L74.6579 80.6708C74.6579 80.6708 58.0747 47.9561 50.9263 49.6358Z" fill="#C4C4C4"/>
<g style="mix-blend-mode:multiply">
<path d="M52.5092 55.9955C46.8744 57.3195 44.4523 84.6812 44.4523 84.6812L70.1765 79.0999C70.1765 79.0999 57.8309 54.745 52.5092 55.9955Z" fill="#C4C4C4"/>
</g>
<path d="M113.315 49.6358C120.884 51.4144 124.137 88.1679 124.137 88.1679L89.5834 80.6708C89.5834 80.6708 106.167 47.9561 113.315 49.6358Z" fill="#C4C4C4"/>
<g style="mix-blend-mode:multiply">
<path d="M111.732 55.9955C117.367 57.3195 119.789 84.6812 119.789 84.6812L94.0648 79.0999C94.0648 79.0999 106.41 54.745 111.732 55.9955Z" fill="#C4C4C4"/>
</g>
<path d="M86.2589 40.9221C76.5887 52.9887 74.897 60.0426 73.3751 76.8065" stroke="#5EA985" stroke-width="1.10842" stroke-linecap="round"/>
<path d="M82.0564 51.281C80.0194 51.5954 77.9547 53.218 77.9547 53.218C77.9547 53.218 80.4125 54.1425 82.4495 53.8282C84.4866 53.5138 86.5513 51.8912 86.5513 51.8912C86.5513 51.8912 84.0935 50.9666 82.0564 51.281Z" fill="#5EA985"/>
<path d="M75.2391 49.8082C76.0729 51.6932 78.1771 53.2643 78.1771 53.2643C78.1771 53.2643 78.4299 50.6505 77.5961 48.7655C76.7622 46.8806 74.6581 45.3095 74.6581 45.3095C74.6581 45.3095 74.4052 47.9233 75.2391 49.8082Z" fill="#5EA985"/>
<path d="M79.6824 57.8389C77.6719 58.2929 75.7239 60.054 75.7239 60.054C75.7239 60.054 78.2397 60.8069 80.2502 60.3529C82.2607 59.8988 84.2087 58.1378 84.2087 58.1378C84.2087 58.1378 81.6929 57.3849 79.6824 57.8389Z" fill="#5EA985"/>
<path d="M78.0146 64.2678C76.1183 65.0757 74.5185 67.158 74.5185 67.158C74.5185 67.158 77.1285 67.4467 79.0248 66.6389C80.921 65.831 82.5209 63.7486 82.5209 63.7486C82.5209 63.7486 79.9108 63.4599 78.0146 64.2678Z" fill="#5EA985"/>
<path d="M72.5092 56.6005C73.3973 58.4605 75.546 59.97 75.546 59.97C75.546 59.97 75.723 57.35 74.8349 55.49C73.9468 53.63 71.7981 52.1204 71.7981 52.1204C71.7981 52.1204 71.6211 54.7405 72.5092 56.6005Z" fill="#5EA985"/>
<path d="M70.9155 64.4534C72.01 66.2 74.3169 67.4546 74.3169 67.4546C74.3169 67.4546 74.194 64.8314 73.0995 63.0849C72.005 61.3383 69.6981 60.0838 69.6981 60.0838C69.6981 60.0838 69.8211 62.7069 70.9155 64.4534Z" fill="#5EA985"/>
<path fill-rule="evenodd" clip-rule="evenodd" d="M83.0497 45.6571C83.1097 45.3856 83.178 45.123 83.2528 44.8721C83.0429 45.0285 82.8197 45.1828 82.5852 45.3323C80.8194 46.4588 79.0836 46.8948 78.7081 46.3062C78.3327 45.7176 79.4597 44.3273 81.2255 43.2009C81.4599 43.0513 81.6939 42.9139 81.9242 42.7895C81.6652 42.7516 81.3983 42.7028 81.1267 42.6428C79.0816 42.1907 77.5459 41.2716 77.6966 40.5899C77.8473 39.9082 79.6273 39.7221 81.6724 40.1742C81.944 40.2342 82.2066 40.3025 82.4574 40.3773C82.301 40.1674 82.1468 39.9442 81.9972 39.7097C80.8708 37.9439 80.4348 36.2081 81.0234 35.8327C81.612 35.4572 83.0023 36.5842 84.1287 38.35C84.2783 38.5845 84.4157 38.8184 84.5401 39.0487C84.578 38.7897 84.6267 38.5228 84.6868 38.2512C85.1389 36.2061 86.058 34.6704 86.7397 34.8211C87.4214 34.9718 87.6075 36.7519 87.1554 38.7969C87.0954 39.0685 87.0271 39.3311 86.9522 39.582C87.1622 39.4256 87.3854 39.2713 87.6199 39.1218C89.3856 37.9954 91.1214 37.5594 91.4969 38.1479C91.8724 38.7365 90.7453 40.1268 88.9796 41.2532C88.7451 41.4028 88.5112 41.5402 88.2809 41.6646C88.5399 41.7025 88.8068 41.7513 89.0783 41.8113C91.1234 42.2634 92.6591 43.1825 92.5084 43.8642C92.3577 44.5459 90.5777 44.732 88.5326 44.2799C88.2611 44.2199 87.9985 44.1516 87.7476 44.0768C87.904 44.2867 88.0582 44.5099 88.2078 44.7444C89.3342 46.5102 89.7702 48.246 89.1816 48.6214C88.5931 48.9969 87.2028 47.8699 86.0764 46.1041C85.9268 45.8696 85.7894 45.6357 85.6649 45.4054C85.6271 45.6644 85.5783 45.9313 85.5183 46.2029C85.0662 48.2479 84.1471 49.7836 83.4654 49.6329C82.7837 49.4822 82.5976 47.7022 83.0497 45.6571Z" fill="white"/>
<circle cx="85.1026" cy="42.2271" r="1.73816" transform="rotate(-167.535 85.1026 42.2271)" fill="#FFCE05"/>
<path d="M96.8186 48.756C88.3386 61.6868 87.3249 68.8694 87.4026 85.7021" stroke="#5EA985" stroke-width="1.10842" stroke-linecap="round"/>
<path d="M93.6193 59.4673C91.6214 59.9738 89.7202 61.7852 89.7202 61.7852C89.7202 61.7852 92.2548 62.4721 94.2527 61.9656C96.2506 61.4591 98.1519 59.6476 98.1519 59.6476C98.1519 59.6476 95.6173 58.9608 93.6193 59.4673Z" fill="#5EA985"/>
<path d="M86.6929 58.6489C87.7021 60.4461 89.946 61.8102 89.946 61.8102C89.946 61.8102 89.9494 59.1842 88.9402 57.387C87.931 55.5898 85.6871 54.2257 85.6871 54.2257C85.6871 54.2257 85.6838 56.8517 86.6929 58.6489Z" fill="#5EA985"/>
<path d="M91.8792 66.2211C89.9209 66.8641 88.1491 68.8022 88.1491 68.8022C88.1491 68.8022 90.725 69.3128 92.6833 68.6697C94.6415 68.0267 96.4134 66.0886 96.4134 66.0886C96.4134 66.0886 93.8375 65.578 91.8792 66.2211Z" fill="#5EA985"/>
<path d="M84.6207 65.6698C85.6815 67.437 87.964 68.7355 87.964 68.7355C87.964 68.7355 87.8913 66.1105 86.8305 64.3433C85.7697 62.5761 83.4872 61.2776 83.4872 61.2776C83.4872 61.2776 83.5599 63.9026 84.6207 65.6698Z" fill="#5EA985"/>
<path fill-rule="evenodd" clip-rule="evenodd" d="M94.0738 53.7745C94.1077 53.4984 94.1507 53.2305 94.2014 52.9737C94.0073 53.1493 93.7997 53.3241 93.5805 53.4953C91.9298 54.7844 90.2433 55.3833 89.8136 54.8331C89.3839 54.2828 90.3737 52.7917 92.0245 51.5026C92.2437 51.3315 92.4635 51.1724 92.6809 51.0267C92.4195 51.0136 92.1491 50.9904 91.8731 50.9565C89.7943 50.7007 88.1782 49.9317 88.2635 49.2388C88.3487 48.5458 90.103 48.1914 92.1818 48.4471C92.4578 48.4811 92.7257 48.5241 92.9826 48.5748C92.8069 48.3807 92.6322 48.1731 92.461 47.9539C91.1719 46.3032 90.573 44.6166 91.1232 44.187C91.6735 43.7573 93.1645 44.7471 94.4536 46.3978C94.6248 46.617 94.7838 46.8369 94.9296 47.0543C94.9427 46.7929 94.9659 46.5225 94.9998 46.2465C95.2555 44.1677 96.0246 42.5516 96.7175 42.6369C97.4104 42.7221 97.7648 44.4764 97.5091 46.5552C97.4752 46.8312 97.4322 47.0991 97.3815 47.356C97.5756 47.1803 97.7831 47.0056 98.0023 46.8344C99.6531 45.5453 101.34 44.9464 101.769 45.4966C102.199 46.0469 101.209 47.5379 99.5584 48.827C99.3392 48.9982 99.1194 49.1572 98.902 49.303C99.1634 49.316 99.4337 49.3392 99.7098 49.3732C101.789 49.6289 103.405 50.398 103.319 51.0909C103.234 51.7838 101.48 52.1382 99.4011 51.8825C99.125 51.8485 98.8571 51.8055 98.6003 51.7549C98.7759 51.949 98.9507 52.1565 99.1219 52.3757C100.411 54.0265 101.01 55.713 100.46 56.1427C99.9094 56.5724 98.4183 55.5826 97.1292 53.9318C96.9581 53.7126 96.7991 53.4928 96.6533 53.2754C96.6402 53.5368 96.617 53.8071 96.5831 54.0831C96.3273 56.1619 95.5583 57.778 94.8654 57.6928C94.1725 57.6075 93.818 55.8532 94.0738 53.7745Z" fill="white"/>
<circle cx="95.7915" cy="50.1648" r="1.73816" transform="rotate(-172.987 95.7915 50.1648)" fill="#FFCE05"/>
<path d="M34.0195 95.7455C33.9703 95.8693 33.8757 95.9687 33.7559 96.0226C25.2784 99.8352 18.2525 107.945 17.0249 111.478C16.9217 111.775 17.1536 112.057 17.4624 112.057C22.6154 112.06 23.8503 112.129 27.9427 114.052C28.262 114.202 28.3296 114.636 28.0711 114.879L24.085 118.628C23.7409 118.951 23.9895 119.578 24.4563 119.612C26.3368 119.746 28.6617 120.32 31.187 121.167C31.3588 121.224 31.4855 121.375 31.5189 121.556C35.4489 142.873 53.791 159 75.8249 159H88.7062C110.265 159 128.289 143.561 132.738 122.928C132.773 122.763 132.887 122.625 133.041 122.564C136.989 120.978 140.754 119.81 143.543 119.612C144.01 119.578 144.258 118.951 143.914 118.628L139.928 114.879C139.669 114.636 139.737 114.202 140.056 114.052C144.149 112.129 145.384 112.06 150.537 112.057C150.845 112.057 151.078 111.778 150.975 111.481C149.563 107.408 140.43 97.2383 130.252 94.6027C130.102 94.5639 129.978 94.4574 129.915 94.3132C122.895 78.2202 107.085 67 88.7062 67H75.8249C56.9059 67 40.7087 78.8899 34.0195 95.7455Z" fill="#CFCFCE"/>
<path fill-rule="evenodd" clip-rule="evenodd" d="M130.535 94.678C127.42 94.0049 124.264 93.8237 121.155 94.176C103.71 94.176 89.1453 110.886 83.5795 133.833C77.3758 110.803 60.8055 95.0245 43.1548 95.0245C39.7307 95.0245 36.4175 95.4229 33.2687 96.2472C25.0105 100.145 18.2289 108.013 17.0249 111.478C16.9217 111.775 17.1536 112.057 17.4624 112.057C22.6154 112.06 23.8503 112.129 27.9427 114.052C28.262 114.202 28.3296 114.636 28.0711 114.879L24.085 118.628C23.7409 118.951 23.9895 119.578 24.4563 119.612C26.3368 119.746 28.6617 120.32 31.187 121.167C31.3588 121.224 31.4855 121.375 31.5189 121.556C34.2073 136.138 43.6397 148.292 56.3846 154.516C56.4486 154.547 56.5127 154.578 56.5769 154.609C62.4142 157.425 68.9393 159 75.8249 159L81.2682 159L86 159L88.7062 159C95.4278 159 101.806 157.499 107.536 154.808C120.185 148.868 129.676 137.128 132.738 122.928C132.773 122.763 132.887 122.625 133.041 122.564C136.989 120.978 140.754 119.81 143.543 119.612C144.01 119.578 144.258 118.951 143.914 118.628L139.928 114.879C139.669 114.636 139.737 114.202 140.056 114.052C144.149 112.129 145.384 112.06 150.537 112.057C150.845 112.057 151.078 111.778 150.975 111.481C149.576 107.445 140.598 97.4264 130.535 94.678Z" fill="#F4F4F4"/>
<ellipse cx="53.5" cy="129.3" rx="5.5" ry="3.3" fill="#FFC7AF"/>
<ellipse cx="112.5" cy="129.3" rx="5.5" ry="3.3" fill="#FFC7AF"/>
<circle r="6.5" transform="matrix(-1 0 0 1 58.5 118.5)" fill="#282828"/>
<circle r="2.25" transform="matrix(-1 0 0 1 56.25 117.25)" fill="white"/>
<circle r="1.5" transform="matrix(-1 0 0 1 59.5 120.5)" fill="white"/>
<circle r="6.5" transform="matrix(-1 0 0 1 107.5 118.5)" fill="#282828"/>
<circle r="2.25" transform="matrix(-1 0 0 1 105.25 117.25)" fill="white"/>
<circle r="1.5" transform="matrix(-1 0 0 1 108.5 120.5)" fill="white"/>
<rect x="83.2634" y="131.567" width="1.93315" height="8.35123" rx="0.966577" fill="#282828"/>
<ellipse cx="84.1913" cy="129.321" rx="6.57272" ry="4.32117" fill="#282828"/>
<circle cx="80.8277" cy="127.436" r="1.0439" fill="white"/>
<path d="M77.5 137C80.9797 140.132 87.5203 140.132 91 137" stroke="#282828" stroke-width="1.93315" stroke-linecap="round"/>
<path d="M38.6592 88.5238C40.4917 89.1918 42.9267 88.6353 44.2854 88.2158C44.8456 88.0428 45.0754 87.4123 44.7579 86.9194C43.988 85.7239 42.4823 83.7309 40.6498 83.0629C38.8173 82.3949 36.3822 82.9514 35.0236 83.3709C34.4634 83.5439 34.2335 84.1744 34.551 84.6674C35.321 85.8628 36.8267 87.8558 38.6592 88.5238Z" fill="#5EA985"/>
<path d="M53.1864 87.263C51.5289 88.2911 49.0316 88.2436 47.6159 88.1104C47.0321 88.0554 46.6784 87.4852 46.8885 86.9378C47.3981 85.6103 48.4651 83.3518 50.1226 82.3237C51.7801 81.2956 54.2775 81.3431 55.6932 81.4763C56.2769 81.5313 56.6307 82.1015 56.4205 82.6489C55.9109 83.9764 54.8439 86.2349 53.1864 87.263Z" fill="#5EA985"/>
<path d="M120.512 84.4856C122.515 86.2312 126.308 86.2602 128.036 86.1708C128.549 86.1443 128.925 85.7123 128.881 85.201C128.734 83.4767 128.186 79.7238 126.183 77.9782C124.179 76.2326 120.387 76.2035 118.658 76.2929C118.146 76.3194 117.77 76.7515 117.813 77.2627C117.961 78.9871 118.509 82.74 120.512 84.4856Z" fill="#5EA985"/>
<path d="M86.9579 128.224C85.3852 127.462 84.2202 125.563 83.6217 124.391C83.3564 123.871 83.6471 123.272 84.2193 123.158C85.5102 122.902 87.7224 122.641 89.2951 123.404C90.8677 124.166 92.0328 126.065 92.6313 127.237C92.8966 127.757 92.6059 128.356 92.0337 128.47C90.7427 128.726 88.5306 128.987 86.9579 128.224Z" fill="#5EA985"/>
<path d="M125.154 106.151C122.741 107.264 119.093 106.226 117.46 105.655C116.975 105.485 116.735 104.965 116.921 104.486C117.548 102.873 119.127 99.4251 121.54 98.3126C123.953 97.2001 127.601 98.2378 129.235 98.8091C129.719 98.9785 129.959 99.499 129.774 99.9773C129.147 101.591 127.567 105.039 125.154 106.151Z" fill="#5EA985"/>
<path fill-rule="evenodd" clip-rule="evenodd" d="M42.9901 83.4731C43.0502 83.2015 43.1184 82.9389 43.1933 82.6881C42.9834 82.8445 42.7602 82.9987 42.5257 83.1483C40.7599 84.2747 39.0241 84.7107 38.6486 84.1221C38.2732 83.5335 39.4002 82.1432 41.166 81.0168C41.4004 80.8673 41.6344 80.7298 41.8647 80.6054C41.6057 80.5675 41.3388 80.5188 41.0672 80.4587C39.0221 80.0067 37.4864 79.0875 37.6371 78.4059C37.7878 77.7242 39.5678 77.538 41.6129 77.9901C41.8845 78.0501 42.1471 78.1184 42.3979 78.1933C42.2415 77.9833 42.0873 77.7601 41.9377 77.5257C40.8113 75.7599 40.3753 74.0241 40.9639 73.6486C41.5525 73.2731 42.9428 74.4002 44.0692 76.1659C44.2188 76.4004 44.3562 76.6343 44.4806 76.8646C44.5185 76.6056 44.5672 76.3387 44.6273 76.0672C45.0794 74.0221 45.9985 72.4864 46.6802 72.6371C47.3618 72.7878 47.548 74.5678 47.0959 76.6129C47.0359 76.8845 46.9676 77.1471 46.8927 77.3979C47.1027 77.2415 47.3259 77.0873 47.5603 76.9377C49.3261 75.8113 51.0619 75.3753 51.4374 75.9639C51.8129 76.5525 50.6858 77.9428 48.9201 79.0692C48.6856 79.2187 48.4517 79.3561 48.2214 79.4806C48.4804 79.5184 48.7473 79.5672 49.0188 79.6272C51.0639 80.0793 52.5996 80.9984 52.4489 81.6801C52.2982 82.3618 50.5182 82.548 48.4731 82.0959C48.2015 82.0358 47.9389 81.9676 47.6881 81.8927C47.8445 82.1026 47.9987 82.3259 48.1483 82.5603C49.2747 84.3261 49.7107 86.0619 49.1221 86.4374C48.5335 86.8129 47.1433 85.6858 46.0168 83.9201C45.8673 83.6856 45.7299 83.4517 45.6054 83.2214C45.5676 83.4804 45.5188 83.7472 45.4588 84.0188C45.0067 86.0639 44.0876 87.5996 43.4059 87.4489C42.7242 87.2982 42.5381 85.5182 42.9901 83.4731Z" fill="white"/>
<circle cx="45.043" cy="80.043" r="1.73816" transform="rotate(-167.535 45.043 80.043)" fill="#FFCE05"/>
</svg>
