<svg width="168" height="188" viewBox="0 0 168 188" fill="none" xmlns="http://www.w3.org/2000/svg">
<path d="M17.5 7C21.0899 7 24 4.08985 24 0.5C24 0.331764 23.9936 0.165021 23.9811 0H33.0189C33.0064 0.165021 33 0.331764 33 0.5C33 4.08985 35.9101 7 39.5 7C43.0899 7 46 4.08985 46 0.5C46 0.331764 45.9936 0.165021 45.9811 0H55.0189C55.0064 0.165021 55 0.331764 55 0.5C55 4.08985 57.9101 7 61.5 7C65.0899 7 68 4.08985 68 0.5C68 0.331764 67.9936 0.165021 67.9811 0H77.0189C77.0064 0.165021 77 0.331764 77 0.5C77 4.08985 79.9101 7 83.5 7C87.0899 7 90 4.08985 90 0.5C90 0.331764 89.9936 0.165021 89.9811 0H99.0189C99.0064 0.165021 99 0.331764 99 0.5C99 4.08985 101.91 7 105.5 7C109.09 7 112 4.08985 112 0.5C112 0.331764 111.994 0.165021 111.981 0H121.019C121.006 0.165021 121 0.331764 121 0.5C121 4.08985 123.91 7 127.5 7C131.09 7 134 4.08985 134 0.5C134 0.331764 133.994 0.165021 133.981 0H143.019C143.006 0.165021 143 0.331764 143 0.5C143 4.08985 145.91 7 149.5 7C153.09 7 156 4.08985 156 0.5C156 0.331764 155.994 0.165021 155.981 0H168V12.0189C167.835 12.0064 167.668 12 167.5 12C163.91 12 161 14.9101 161 18.5C161 22.0899 163.91 25 167.5 25C167.668 25 167.835 24.9936 168 24.9811V34.0189C167.835 34.0064 167.668 34 167.5 34C163.91 34 161 36.9101 161 40.5C161 44.0899 163.91 47 167.5 47C167.668 47 167.835 46.9936 168 46.9811V56.0189C167.835 56.0064 167.668 56 167.5 56C163.91 56 161 58.9101 161 62.5C161 66.0899 163.91 69 167.5 69C167.668 69 167.835 68.9936 168 68.9811V78.0189C167.835 78.0064 167.668 78 167.5 78C163.91 78 161 80.9101 161 84.5C161 88.0899 163.91 91 167.5 91C167.668 91 167.835 90.9936 168 90.9811V100.019C167.835 100.006 167.668 100 167.5 100C163.91 100 161 102.91 161 106.5C161 110.09 163.91 113 167.5 113C167.668 113 167.835 112.994 168 112.981V122.019C167.835 122.006 167.668 122 167.5 122C163.91 122 161 124.91 161 128.5C161 132.09 163.91 135 167.5 135C167.668 135 167.835 134.994 168 134.981V144.019C167.835 144.006 167.668 144 167.5 144C163.91 144 161 146.91 161 150.5C161 154.09 163.91 157 167.5 157C167.668 157 167.835 156.994 168 156.981V166.019C167.835 166.006 167.668 166 167.5 166C163.91 166 161 168.91 161 172.5C161 176.09 163.91 179 167.5 179C167.668 179 167.835 178.994 168 178.981V188H155.981C155.726 184.644 152.922 182 149.5 182C146.078 182 143.274 184.644 143.019 188H133.981C133.726 184.644 130.922 182 127.5 182C124.078 182 121.274 184.644 121.019 188H111.981C111.726 184.644 108.922 182 105.5 182C102.078 182 99.2743 184.644 99.0189 188H89.9811C89.7257 184.644 86.9216 182 83.5 182C80.0784 182 77.2743 184.644 77.0189 188H67.9811C67.7257 184.644 64.9216 182 61.5 182C58.0784 182 55.2743 184.644 55.0189 188H45.9811C45.7257 184.644 42.9216 182 39.5 182C36.0784 182 33.2743 184.644 33.0189 188H23.9811C23.7257 184.644 20.9216 182 17.5 182C14.0784 182 11.2743 184.644 11.0189 188H0V178.981C0.165021 178.994 0.331764 179 0.5 179C4.08985 179 7 176.09 7 172.5C7 168.91 4.08985 166 0.5 166C0.331764 166 0.165021 166.006 0 166.019V156.981C0.165021 156.994 0.331764 157 0.5 157C4.08985 157 7 154.09 7 150.5C7 146.91 4.08985 144 0.5 144C0.331764 144 0.165021 144.006 0 144.019V134.981C0.165021 134.994 0.331764 135 0.5 135C4.08985 135 7 132.09 7 128.5C7 124.91 4.08985 122 0.5 122C0.331764 122 0.165021 122.006 0 122.019V112.981C0.165021 112.994 0.331764 113 0.5 113C4.08985 113 7 110.09 7 106.5C7 102.91 4.08985 100 0.5 100C0.331764 100 0.165021 100.006 0 100.019V90.9811C0.165021 90.9936 0.331764 91 0.5 91C4.08985 91 7 88.0899 7 84.5C7 80.9101 4.08985 78 0.5 78C0.331764 78 0.165021 78.0064 0 78.0189V68.9811C0.165021 68.9936 0.331764 69 0.5 69C4.08985 69 7 66.0899 7 62.5C7 58.9101 4.08985 56 0.5 56C0.331764 56 0.165021 56.0064 0 56.0189V46.9811C0.165021 46.9936 0.331764 47 0.5 47C4.08985 47 7 44.0899 7 40.5C7 36.9101 4.08985 34 0.5 34C0.331764 34 0.165021 34.0064 0 34.0189V24.9811C0.165021 24.9936 0.331764 25 0.5 25C4.08985 25 7 22.0899 7 18.5C7 14.9101 4.08985 12 0.5 12C0.331764 12 0.165021 12.0064 0 12.0189V0H11.0189C11.0064 0.165021 11 0.331764 11 0.5C11 4.08985 13.9101 7 17.5 7Z" fill="white"/>
<rect x="14" y="16" width="140" height="156" rx="4" fill="#BED6CC"/>
<path d="M39.2141 53.8161C37.7199 46.6252 41.6342 34.7264 43.6703 29.2606C44.1946 27.853 45.9515 27.4979 46.971 28.601C50.6005 32.5281 57.669 40.8619 59.1234 47.6311C61.1673 57.1436 50.6234 70.6311 50.6234 70.6311C50.6234 70.6311 41.1684 63.2214 39.2141 53.8161Z" fill="#F5F5F5"/>
<g style="mix-blend-mode:multiply">
<path fill-rule="evenodd" clip-rule="evenodd" d="M43.3514 30.128C47.1576 34.4313 52.8368 41.6433 54.1234 47.6312C55.5961 54.4852 50.5337 63.4029 47.5891 67.852C49.324 69.6128 50.6234 70.6311 50.6234 70.6311C50.6234 70.6311 61.1673 57.1436 59.1234 47.6311C57.6689 40.8619 50.6005 32.5281 46.9709 28.601C45.9515 27.4979 44.1946 27.853 43.6702 29.2606C43.5684 29.5341 43.4618 29.8237 43.3514 30.128Z" fill="#F5F5F5"/>
</g>
<path d="M128.416 53.8161C129.91 46.6252 125.996 34.7264 123.96 29.2606C123.435 27.853 121.678 27.4979 120.659 28.601C117.03 32.5281 109.961 40.8619 108.507 47.6311C106.463 57.1436 117.007 70.6311 117.007 70.6311C117.007 70.6311 126.462 63.2214 128.416 53.8161Z" fill="#F5F5F5"/>
<g style="mix-blend-mode:multiply">
<path fill-rule="evenodd" clip-rule="evenodd" d="M124.279 30.128C120.472 34.4313 114.793 41.6433 113.507 47.6312C112.034 54.4852 117.096 63.4029 120.041 67.852C118.306 69.6128 117.007 70.6311 117.007 70.6311C117.007 70.6311 106.463 57.1436 108.507 47.6311C109.961 40.8619 117.03 32.5281 120.659 28.601C121.679 27.4979 123.435 27.853 123.96 29.2606C124.062 29.5341 124.168 29.8237 124.279 30.128Z" fill="#F5F5F5"/>
</g>
<path d="M36.6735 87.2729C34.171 62.1844 53.874 40.4183 79.087 40.4183H88.817C114.03 40.4183 133.733 62.1843 131.231 87.2728L128.734 112.307C126.56 134.101 108.222 150.701 86.32 150.701H81.584C59.6818 150.701 41.3443 134.101 39.1705 112.307L36.6735 87.2729Z" fill="#F5F5F5"/>
<path fill-rule="evenodd" clip-rule="evenodd" d="M58.8228 45.5282C63.2483 43.1315 68.1545 41.493 73.3752 40.7962C68.7348 51.4133 66.7497 58.089 65.1667 69.6311C60.8315 60.0096 59.8124 53.7497 58.8228 45.5282ZM109.269 45.6303C108.285 53.8758 106.827 60.0868 101.833 69.6311C99.7193 58.5992 97.4591 50.2864 92.9431 40.6146C98.8317 41.1779 104.35 42.9347 109.269 45.6303ZM91.6223 40.5087C85.6707 51.6893 84.9522 61.9678 85 73.6311C79.012 62.6917 75.7183 52.4145 74.5184 40.6592C76.018 40.5001 77.5422 40.4183 79.087 40.4183H88.817C89.7601 40.4183 90.6955 40.4488 91.6223 40.5087Z" fill="#1F1F1F"/>
<path fill-rule="evenodd" clip-rule="evenodd" d="M36.5052 80.9839C36.4089 83.049 36.4616 85.149 36.6735 87.2729L36.7889 88.4304L51.4559 85.0626L36.5052 80.9839ZM37.2232 74.9451H50.9165L39.0219 68.4515C38.2568 70.5473 37.6524 72.7171 37.2232 74.9451ZM38.0705 101.279L50.5 94.1337H37.3578L38.0705 101.279Z" fill="#1F1F1F"/>
<path fill-rule="evenodd" clip-rule="evenodd" d="M130.546 94.1337L129.888 100.735L118.404 94.1337H130.546ZM131.411 81.2535C131.49 83.2316 131.433 85.2413 131.231 87.2728L131.138 88.2059L117.448 85.0626L131.411 81.2535ZM129.046 68.9081C129.734 70.862 130.283 72.8785 130.681 74.9451H117.988L129.046 68.9081Z" fill="#1F1F1F"/>
<path fill-rule="evenodd" clip-rule="evenodd" d="M125.565 124.729C119.042 140.105 103.819 150.701 86.32 150.701H81.584C64.1864 150.701 49.0381 140.227 42.4534 124.996C48.25 114.442 59.4704 107.289 72.3616 107.289H95.8048C108.587 107.289 119.727 114.322 125.565 124.729Z" fill="#1F1F1F"/>
<path d="M95.3608 148.258C98.5212 150.731 104.357 150.309 104.357 150.309C104.357 150.309 103.078 144.914 99.9171 142.441C96.7566 139.968 91.0198 139.872 91.0198 139.872C91.0198 139.872 92.2003 145.785 95.3608 148.258Z" fill="#A6C65A"/>
<path d="M97.6066 148.217C98.7653 153.267 94.827 160.072 94.827 160.072C94.827 160.072 88.9219 155.828 87.7632 150.777C86.6045 145.726 90.0833 139.542 90.0833 139.542C90.0833 139.542 96.4479 143.166 97.6066 148.217Z" fill="#CCE772"/>
<path d="M66.0724 57.4727C70.6755 60.5703 80.076 58.4804 80.076 58.4804C80.076 58.4804 77.2215 49.5965 72.6185 46.4989C68.0154 43.4014 58.8753 44.7143 58.8753 44.7143C58.8753 44.7143 61.4693 54.3752 66.0724 57.4727Z" fill="#A6C65A"/>
<path d="M71.8376 56.3238C75.0221 63.87 71.7109 75.1096 71.7109 75.1096C71.7109 75.1096 62.2184 69.7299 59.0339 62.1836C55.8494 54.6374 58.7197 44.4415 58.7197 44.4415C58.7197 44.4415 68.653 48.7775 71.8376 56.3238Z" fill="#CCE772"/>
<path d="M73 134.631C77.7273 142.631 94.5354 142.631 99 134.631" stroke="#F5F5F5" stroke-width="2" stroke-linecap="round" stroke-linejoin="round"/>
<ellipse cx="70.5" cy="118.631" rx="2.5" ry="3" fill="#F5F5F5"/>
<ellipse cx="100.5" cy="118.631" rx="2.5" ry="3" fill="#F5F5F5"/>
<circle cx="53" cy="101.631" r="6" fill="#FFDED0"/>
<circle cx="114.805" cy="101.631" r="6" fill="#FFDED0"/>
<ellipse rx="6.5" ry="7.5" transform="matrix(-1 0 0 1 63.5 87.1312)" fill="#181818"/>
<circle cx="66" cy="85" r="2" fill="white"/>
<ellipse rx="6.5" ry="7.5" transform="matrix(-1 0 0 1 104.5 87.1312)" fill="#181818"/>
<circle cx="107" cy="85" r="2" fill="white"/>
</svg>
